<?xml version="1.0" encoding="utf-8" standalone="no"?>
<!DOCTYPE svg PUBLIC "-//W3C//DTD SVG 1.1//EN"
  "http://www.w3.org/Graphics/SVG/1.1/DTD/svg11.dtd">
<svg xmlns:xlink="http://www.w3.org/1999/xlink" width="1008pt" height="432pt" viewBox="0 0 1008 432" xmlns="http://www.w3.org/2000/svg" version="1.1">
 <metadata>
  <rdf:RDF xmlns:dc="http://purl.org/dc/elements/1.1/" xmlns:cc="http://creativecommons.org/ns#" xmlns:rdf="http://www.w3.org/1999/02/22-rdf-syntax-ns#">
   <cc:Work>
    <dc:type rdf:resource="http://purl.org/dc/dcmitype/StillImage"/>
    <dc:date>2022-06-08T00:41:12.085970</dc:date>
    <dc:format>image/svg+xml</dc:format>
    <dc:creator>
     <cc:Agent>
      <dc:title>Matplotlib v3.5.2, https://matplotlib.org/</dc:title>
     </cc:Agent>
    </dc:creator>
   </cc:Work>
  </rdf:RDF>
 </metadata>
 <defs>
  <style type="text/css">*{stroke-linejoin: round; stroke-linecap: butt}</style>
 </defs>
 <g id="figure_1">
  <g id="patch_1">
   <path d="M 0 432 
L 1008 432 
L 1008 0 
L 0 0 
z
" style="fill: #ffffff"/>
  </g>
  <g id="axes_1">
   <g id="patch_2">
    <path d="M 100.8 388.8 
L 907.2 388.8 
L 907.2 43.2 
L 100.8 43.2 
z
" style="fill: #ffffff"/>
   </g>
   <g id="matplotlib.axis_1">
    <g id="xtick_1">
     <g id="line2d_1">
      <path d="M 170.776837 388.8 
L 170.776837 43.2 
" clip-path="url(#p3a701b9fb0)" style="fill: none; stroke: #b0b0b0; stroke-width: 0.8; stroke-linecap: square"/>
     </g>
     <g id="line2d_2">
      <defs>
       <path id="m25a16ba503" d="M 0 0 
L 0 3.5 
" style="stroke: #000000; stroke-width: 0.8"/>
      </defs>
      <g>
       <use xlink:href="#m25a16ba503" x="170.776837" y="388.8" style="stroke: #000000; stroke-width: 0.8"/>
      </g>
     </g>
     <g id="text_1">
      <!-- 0 -->
      <g transform="translate(167.595587 403.398438)scale(0.1 -0.1)">
       <defs>
        <path id="DejaVuSans-30" d="M 2034 4250 
Q 1547 4250 1301 3770 
Q 1056 3291 1056 2328 
Q 1056 1369 1301 889 
Q 1547 409 2034 409 
Q 2525 409 2770 889 
Q 3016 1369 3016 2328 
Q 3016 3291 2770 3770 
Q 2525 4250 2034 4250 
z
M 2034 4750 
Q 2819 4750 3233 4129 
Q 3647 3509 3647 2328 
Q 3647 1150 3233 529 
Q 2819 -91 2034 -91 
Q 1250 -91 836 529 
Q 422 1150 422 2328 
Q 422 3509 836 4129 
Q 1250 4750 2034 4750 
z
" transform="scale(0.015625)"/>
       </defs>
       <use xlink:href="#DejaVuSans-30"/>
      </g>
     </g>
    </g>
    <g id="xtick_2">
     <g id="line2d_3">
      <path d="M 293.830982 388.8 
L 293.830982 43.2 
" clip-path="url(#p3a701b9fb0)" style="fill: none; stroke: #b0b0b0; stroke-width: 0.8; stroke-linecap: square"/>
     </g>
     <g id="line2d_4">
      <g>
       <use xlink:href="#m25a16ba503" x="293.830982" y="388.8" style="stroke: #000000; stroke-width: 0.8"/>
      </g>
     </g>
     <g id="text_2">
      <!-- 5000 -->
      <g transform="translate(281.105982 403.398438)scale(0.1 -0.1)">
       <defs>
        <path id="DejaVuSans-35" d="M 691 4666 
L 3169 4666 
L 3169 4134 
L 1269 4134 
L 1269 2991 
Q 1406 3038 1543 3061 
Q 1681 3084 1819 3084 
Q 2600 3084 3056 2656 
Q 3513 2228 3513 1497 
Q 3513 744 3044 326 
Q 2575 -91 1722 -91 
Q 1428 -91 1123 -41 
Q 819 9 494 109 
L 494 744 
Q 775 591 1075 516 
Q 1375 441 1709 441 
Q 2250 441 2565 725 
Q 2881 1009 2881 1497 
Q 2881 1984 2565 2268 
Q 2250 2553 1709 2553 
Q 1456 2553 1204 2497 
Q 953 2441 691 2322 
L 691 4666 
z
" transform="scale(0.015625)"/>
       </defs>
       <use xlink:href="#DejaVuSans-35"/>
       <use xlink:href="#DejaVuSans-30" x="63.623047"/>
       <use xlink:href="#DejaVuSans-30" x="127.246094"/>
       <use xlink:href="#DejaVuSans-30" x="190.869141"/>
      </g>
     </g>
    </g>
    <g id="xtick_3">
     <g id="line2d_5">
      <path d="M 416.885126 388.8 
L 416.885126 43.2 
" clip-path="url(#p3a701b9fb0)" style="fill: none; stroke: #b0b0b0; stroke-width: 0.8; stroke-linecap: square"/>
     </g>
     <g id="line2d_6">
      <g>
       <use xlink:href="#m25a16ba503" x="416.885126" y="388.8" style="stroke: #000000; stroke-width: 0.8"/>
      </g>
     </g>
     <g id="text_3">
      <!-- 10000 -->
      <g transform="translate(400.978876 403.398438)scale(0.1 -0.1)">
       <defs>
        <path id="DejaVuSans-31" d="M 794 531 
L 1825 531 
L 1825 4091 
L 703 3866 
L 703 4441 
L 1819 4666 
L 2450 4666 
L 2450 531 
L 3481 531 
L 3481 0 
L 794 0 
L 794 531 
z
" transform="scale(0.015625)"/>
       </defs>
       <use xlink:href="#DejaVuSans-31"/>
       <use xlink:href="#DejaVuSans-30" x="63.623047"/>
       <use xlink:href="#DejaVuSans-30" x="127.246094"/>
       <use xlink:href="#DejaVuSans-30" x="190.869141"/>
       <use xlink:href="#DejaVuSans-30" x="254.492188"/>
      </g>
     </g>
    </g>
    <g id="xtick_4">
     <g id="line2d_7">
      <path d="M 539.939271 388.8 
L 539.939271 43.2 
" clip-path="url(#p3a701b9fb0)" style="fill: none; stroke: #b0b0b0; stroke-width: 0.8; stroke-linecap: square"/>
     </g>
     <g id="line2d_8">
      <g>
       <use xlink:href="#m25a16ba503" x="539.939271" y="388.8" style="stroke: #000000; stroke-width: 0.8"/>
      </g>
     </g>
     <g id="text_4">
      <!-- 15000 -->
      <g transform="translate(524.033021 403.398438)scale(0.1 -0.1)">
       <use xlink:href="#DejaVuSans-31"/>
       <use xlink:href="#DejaVuSans-35" x="63.623047"/>
       <use xlink:href="#DejaVuSans-30" x="127.246094"/>
       <use xlink:href="#DejaVuSans-30" x="190.869141"/>
       <use xlink:href="#DejaVuSans-30" x="254.492188"/>
      </g>
     </g>
    </g>
    <g id="xtick_5">
     <g id="line2d_9">
      <path d="M 662.993416 388.8 
L 662.993416 43.2 
" clip-path="url(#p3a701b9fb0)" style="fill: none; stroke: #b0b0b0; stroke-width: 0.8; stroke-linecap: square"/>
     </g>
     <g id="line2d_10">
      <g>
       <use xlink:href="#m25a16ba503" x="662.993416" y="388.8" style="stroke: #000000; stroke-width: 0.8"/>
      </g>
     </g>
     <g id="text_5">
      <!-- 20000 -->
      <g transform="translate(647.087166 403.398438)scale(0.1 -0.1)">
       <defs>
        <path id="DejaVuSans-32" d="M 1228 531 
L 3431 531 
L 3431 0 
L 469 0 
L 469 531 
Q 828 903 1448 1529 
Q 2069 2156 2228 2338 
Q 2531 2678 2651 2914 
Q 2772 3150 2772 3378 
Q 2772 3750 2511 3984 
Q 2250 4219 1831 4219 
Q 1534 4219 1204 4116 
Q 875 4013 500 3803 
L 500 4441 
Q 881 4594 1212 4672 
Q 1544 4750 1819 4750 
Q 2544 4750 2975 4387 
Q 3406 4025 3406 3419 
Q 3406 3131 3298 2873 
Q 3191 2616 2906 2266 
Q 2828 2175 2409 1742 
Q 1991 1309 1228 531 
z
" transform="scale(0.015625)"/>
       </defs>
       <use xlink:href="#DejaVuSans-32"/>
       <use xlink:href="#DejaVuSans-30" x="63.623047"/>
       <use xlink:href="#DejaVuSans-30" x="127.246094"/>
       <use xlink:href="#DejaVuSans-30" x="190.869141"/>
       <use xlink:href="#DejaVuSans-30" x="254.492188"/>
      </g>
     </g>
    </g>
    <g id="xtick_6">
     <g id="line2d_11">
      <path d="M 786.04756 388.8 
L 786.04756 43.2 
" clip-path="url(#p3a701b9fb0)" style="fill: none; stroke: #b0b0b0; stroke-width: 0.8; stroke-linecap: square"/>
     </g>
     <g id="line2d_12">
      <g>
       <use xlink:href="#m25a16ba503" x="786.04756" y="388.8" style="stroke: #000000; stroke-width: 0.8"/>
      </g>
     </g>
     <g id="text_6">
      <!-- 25000 -->
      <g transform="translate(770.14131 403.398438)scale(0.1 -0.1)">
       <use xlink:href="#DejaVuSans-32"/>
       <use xlink:href="#DejaVuSans-35" x="63.623047"/>
       <use xlink:href="#DejaVuSans-30" x="127.246094"/>
       <use xlink:href="#DejaVuSans-30" x="190.869141"/>
       <use xlink:href="#DejaVuSans-30" x="254.492188"/>
      </g>
     </g>
    </g>
    <g id="text_7">
     <!-- time (in seconds) -->
     <g transform="translate(460.628906 417.076563)scale(0.1 -0.1)">
      <defs>
       <path id="DejaVuSans-74" d="M 1172 4494 
L 1172 3500 
L 2356 3500 
L 2356 3053 
L 1172 3053 
L 1172 1153 
Q 1172 725 1289 603 
Q 1406 481 1766 481 
L 2356 481 
L 2356 0 
L 1766 0 
Q 1100 0 847 248 
Q 594 497 594 1153 
L 594 3053 
L 172 3053 
L 172 3500 
L 594 3500 
L 594 4494 
L 1172 4494 
z
" transform="scale(0.015625)"/>
       <path id="DejaVuSans-69" d="M 603 3500 
L 1178 3500 
L 1178 0 
L 603 0 
L 603 3500 
z
M 603 4863 
L 1178 4863 
L 1178 4134 
L 603 4134 
L 603 4863 
z
" transform="scale(0.015625)"/>
       <path id="DejaVuSans-6d" d="M 3328 2828 
Q 3544 3216 3844 3400 
Q 4144 3584 4550 3584 
Q 5097 3584 5394 3201 
Q 5691 2819 5691 2113 
L 5691 0 
L 5113 0 
L 5113 2094 
Q 5113 2597 4934 2840 
Q 4756 3084 4391 3084 
Q 3944 3084 3684 2787 
Q 3425 2491 3425 1978 
L 3425 0 
L 2847 0 
L 2847 2094 
Q 2847 2600 2669 2842 
Q 2491 3084 2119 3084 
Q 1678 3084 1418 2786 
Q 1159 2488 1159 1978 
L 1159 0 
L 581 0 
L 581 3500 
L 1159 3500 
L 1159 2956 
Q 1356 3278 1631 3431 
Q 1906 3584 2284 3584 
Q 2666 3584 2933 3390 
Q 3200 3197 3328 2828 
z
" transform="scale(0.015625)"/>
       <path id="DejaVuSans-65" d="M 3597 1894 
L 3597 1613 
L 953 1613 
Q 991 1019 1311 708 
Q 1631 397 2203 397 
Q 2534 397 2845 478 
Q 3156 559 3463 722 
L 3463 178 
Q 3153 47 2828 -22 
Q 2503 -91 2169 -91 
Q 1331 -91 842 396 
Q 353 884 353 1716 
Q 353 2575 817 3079 
Q 1281 3584 2069 3584 
Q 2775 3584 3186 3129 
Q 3597 2675 3597 1894 
z
M 3022 2063 
Q 3016 2534 2758 2815 
Q 2500 3097 2075 3097 
Q 1594 3097 1305 2825 
Q 1016 2553 972 2059 
L 3022 2063 
z
" transform="scale(0.015625)"/>
       <path id="DejaVuSans-20" transform="scale(0.015625)"/>
       <path id="DejaVuSans-28" d="M 1984 4856 
Q 1566 4138 1362 3434 
Q 1159 2731 1159 2009 
Q 1159 1288 1364 580 
Q 1569 -128 1984 -844 
L 1484 -844 
Q 1016 -109 783 600 
Q 550 1309 550 2009 
Q 550 2706 781 3412 
Q 1013 4119 1484 4856 
L 1984 4856 
z
" transform="scale(0.015625)"/>
       <path id="DejaVuSans-6e" d="M 3513 2113 
L 3513 0 
L 2938 0 
L 2938 2094 
Q 2938 2591 2744 2837 
Q 2550 3084 2163 3084 
Q 1697 3084 1428 2787 
Q 1159 2491 1159 1978 
L 1159 0 
L 581 0 
L 581 3500 
L 1159 3500 
L 1159 2956 
Q 1366 3272 1645 3428 
Q 1925 3584 2291 3584 
Q 2894 3584 3203 3211 
Q 3513 2838 3513 2113 
z
" transform="scale(0.015625)"/>
       <path id="DejaVuSans-73" d="M 2834 3397 
L 2834 2853 
Q 2591 2978 2328 3040 
Q 2066 3103 1784 3103 
Q 1356 3103 1142 2972 
Q 928 2841 928 2578 
Q 928 2378 1081 2264 
Q 1234 2150 1697 2047 
L 1894 2003 
Q 2506 1872 2764 1633 
Q 3022 1394 3022 966 
Q 3022 478 2636 193 
Q 2250 -91 1575 -91 
Q 1294 -91 989 -36 
Q 684 19 347 128 
L 347 722 
Q 666 556 975 473 
Q 1284 391 1588 391 
Q 1994 391 2212 530 
Q 2431 669 2431 922 
Q 2431 1156 2273 1281 
Q 2116 1406 1581 1522 
L 1381 1569 
Q 847 1681 609 1914 
Q 372 2147 372 2553 
Q 372 3047 722 3315 
Q 1072 3584 1716 3584 
Q 2034 3584 2315 3537 
Q 2597 3491 2834 3397 
z
" transform="scale(0.015625)"/>
       <path id="DejaVuSans-63" d="M 3122 3366 
L 3122 2828 
Q 2878 2963 2633 3030 
Q 2388 3097 2138 3097 
Q 1578 3097 1268 2742 
Q 959 2388 959 1747 
Q 959 1106 1268 751 
Q 1578 397 2138 397 
Q 2388 397 2633 464 
Q 2878 531 3122 666 
L 3122 134 
Q 2881 22 2623 -34 
Q 2366 -91 2075 -91 
Q 1284 -91 818 406 
Q 353 903 353 1747 
Q 353 2603 823 3093 
Q 1294 3584 2113 3584 
Q 2378 3584 2631 3529 
Q 2884 3475 3122 3366 
z
" transform="scale(0.015625)"/>
       <path id="DejaVuSans-6f" d="M 1959 3097 
Q 1497 3097 1228 2736 
Q 959 2375 959 1747 
Q 959 1119 1226 758 
Q 1494 397 1959 397 
Q 2419 397 2687 759 
Q 2956 1122 2956 1747 
Q 2956 2369 2687 2733 
Q 2419 3097 1959 3097 
z
M 1959 3584 
Q 2709 3584 3137 3096 
Q 3566 2609 3566 1747 
Q 3566 888 3137 398 
Q 2709 -91 1959 -91 
Q 1206 -91 779 398 
Q 353 888 353 1747 
Q 353 2609 779 3096 
Q 1206 3584 1959 3584 
z
" transform="scale(0.015625)"/>
       <path id="DejaVuSans-64" d="M 2906 2969 
L 2906 4863 
L 3481 4863 
L 3481 0 
L 2906 0 
L 2906 525 
Q 2725 213 2448 61 
Q 2172 -91 1784 -91 
Q 1150 -91 751 415 
Q 353 922 353 1747 
Q 353 2572 751 3078 
Q 1150 3584 1784 3584 
Q 2172 3584 2448 3432 
Q 2725 3281 2906 2969 
z
M 947 1747 
Q 947 1113 1208 752 
Q 1469 391 1925 391 
Q 2381 391 2643 752 
Q 2906 1113 2906 1747 
Q 2906 2381 2643 2742 
Q 2381 3103 1925 3103 
Q 1469 3103 1208 2742 
Q 947 2381 947 1747 
z
" transform="scale(0.015625)"/>
       <path id="DejaVuSans-29" d="M 513 4856 
L 1013 4856 
Q 1481 4119 1714 3412 
Q 1947 2706 1947 2009 
Q 1947 1309 1714 600 
Q 1481 -109 1013 -844 
L 513 -844 
Q 928 -128 1133 580 
Q 1338 1288 1338 2009 
Q 1338 2731 1133 3434 
Q 928 4138 513 4856 
z
" transform="scale(0.015625)"/>
      </defs>
      <use xlink:href="#DejaVuSans-74"/>
      <use xlink:href="#DejaVuSans-69" x="39.208984"/>
      <use xlink:href="#DejaVuSans-6d" x="66.992188"/>
      <use xlink:href="#DejaVuSans-65" x="164.404297"/>
      <use xlink:href="#DejaVuSans-20" x="225.927734"/>
      <use xlink:href="#DejaVuSans-28" x="257.714844"/>
      <use xlink:href="#DejaVuSans-69" x="296.728516"/>
      <use xlink:href="#DejaVuSans-6e" x="324.511719"/>
      <use xlink:href="#DejaVuSans-20" x="387.890625"/>
      <use xlink:href="#DejaVuSans-73" x="419.677734"/>
      <use xlink:href="#DejaVuSans-65" x="471.777344"/>
      <use xlink:href="#DejaVuSans-63" x="533.300781"/>
      <use xlink:href="#DejaVuSans-6f" x="588.28125"/>
      <use xlink:href="#DejaVuSans-6e" x="649.462891"/>
      <use xlink:href="#DejaVuSans-64" x="712.841797"/>
      <use xlink:href="#DejaVuSans-73" x="776.318359"/>
      <use xlink:href="#DejaVuSans-29" x="828.417969"/>
     </g>
    </g>
   </g>
   <g id="matplotlib.axis_2">
    <g id="ytick_1">
     <g id="line2d_13">
      <path d="M 100.8 373.313249 
L 907.2 373.313249 
" clip-path="url(#p3a701b9fb0)" style="fill: none; stroke: #b0b0b0; stroke-width: 0.8; stroke-linecap: square"/>
     </g>
     <g id="line2d_14">
      <defs>
       <path id="m94e9e5a4ee" d="M 0 0 
L -3.5 0 
" style="stroke: #000000; stroke-width: 0.8"/>
      </defs>
      <g>
       <use xlink:href="#m94e9e5a4ee" x="100.8" y="373.313249" style="stroke: #000000; stroke-width: 0.8"/>
      </g>
     </g>
     <g id="text_8">
      <!-- 0 -->
      <g transform="translate(87.4375 377.112468)scale(0.1 -0.1)">
       <use xlink:href="#DejaVuSans-30"/>
      </g>
     </g>
    </g>
    <g id="ytick_2">
     <g id="line2d_15">
      <path d="M 100.8 307.586876 
L 907.2 307.586876 
" clip-path="url(#p3a701b9fb0)" style="fill: none; stroke: #b0b0b0; stroke-width: 0.8; stroke-linecap: square"/>
     </g>
     <g id="line2d_16">
      <g>
       <use xlink:href="#m94e9e5a4ee" x="100.8" y="307.586876" style="stroke: #000000; stroke-width: 0.8"/>
      </g>
     </g>
     <g id="text_9">
      <!-- 500 -->
      <g transform="translate(74.7125 311.386095)scale(0.1 -0.1)">
       <use xlink:href="#DejaVuSans-35"/>
       <use xlink:href="#DejaVuSans-30" x="63.623047"/>
       <use xlink:href="#DejaVuSans-30" x="127.246094"/>
      </g>
     </g>
    </g>
    <g id="ytick_3">
     <g id="line2d_17">
      <path d="M 100.8 241.860503 
L 907.2 241.860503 
" clip-path="url(#p3a701b9fb0)" style="fill: none; stroke: #b0b0b0; stroke-width: 0.8; stroke-linecap: square"/>
     </g>
     <g id="line2d_18">
      <g>
       <use xlink:href="#m94e9e5a4ee" x="100.8" y="241.860503" style="stroke: #000000; stroke-width: 0.8"/>
      </g>
     </g>
     <g id="text_10">
      <!-- 1000 -->
      <g transform="translate(68.35 245.659722)scale(0.1 -0.1)">
       <use xlink:href="#DejaVuSans-31"/>
       <use xlink:href="#DejaVuSans-30" x="63.623047"/>
       <use xlink:href="#DejaVuSans-30" x="127.246094"/>
       <use xlink:href="#DejaVuSans-30" x="190.869141"/>
      </g>
     </g>
    </g>
    <g id="ytick_4">
     <g id="line2d_19">
      <path d="M 100.8 176.134131 
L 907.2 176.134131 
" clip-path="url(#p3a701b9fb0)" style="fill: none; stroke: #b0b0b0; stroke-width: 0.8; stroke-linecap: square"/>
     </g>
     <g id="line2d_20">
      <g>
       <use xlink:href="#m94e9e5a4ee" x="100.8" y="176.134131" style="stroke: #000000; stroke-width: 0.8"/>
      </g>
     </g>
     <g id="text_11">
      <!-- 1500 -->
      <g transform="translate(68.35 179.933349)scale(0.1 -0.1)">
       <use xlink:href="#DejaVuSans-31"/>
       <use xlink:href="#DejaVuSans-35" x="63.623047"/>
       <use xlink:href="#DejaVuSans-30" x="127.246094"/>
       <use xlink:href="#DejaVuSans-30" x="190.869141"/>
      </g>
     </g>
    </g>
    <g id="ytick_5">
     <g id="line2d_21">
      <path d="M 100.8 110.407758 
L 907.2 110.407758 
" clip-path="url(#p3a701b9fb0)" style="fill: none; stroke: #b0b0b0; stroke-width: 0.8; stroke-linecap: square"/>
     </g>
     <g id="line2d_22">
      <g>
       <use xlink:href="#m94e9e5a4ee" x="100.8" y="110.407758" style="stroke: #000000; stroke-width: 0.8"/>
      </g>
     </g>
     <g id="text_12">
      <!-- 2000 -->
      <g transform="translate(68.35 114.206977)scale(0.1 -0.1)">
       <use xlink:href="#DejaVuSans-32"/>
       <use xlink:href="#DejaVuSans-30" x="63.623047"/>
       <use xlink:href="#DejaVuSans-30" x="127.246094"/>
       <use xlink:href="#DejaVuSans-30" x="190.869141"/>
      </g>
     </g>
    </g>
    <g id="ytick_6">
     <g id="line2d_23">
      <path d="M 100.8 44.681385 
L 907.2 44.681385 
" clip-path="url(#p3a701b9fb0)" style="fill: none; stroke: #b0b0b0; stroke-width: 0.8; stroke-linecap: square"/>
     </g>
     <g id="line2d_24">
      <g>
       <use xlink:href="#m94e9e5a4ee" x="100.8" y="44.681385" style="stroke: #000000; stroke-width: 0.8"/>
      </g>
     </g>
     <g id="text_13">
      <!-- 2500 -->
      <g transform="translate(68.35 48.480604)scale(0.1 -0.1)">
       <use xlink:href="#DejaVuSans-32"/>
       <use xlink:href="#DejaVuSans-35" x="63.623047"/>
       <use xlink:href="#DejaVuSans-30" x="127.246094"/>
       <use xlink:href="#DejaVuSans-30" x="190.869141"/>
      </g>
     </g>
    </g>
    <g id="text_14">
     <!-- memory used (in MiB) -->
     <g transform="translate(62.270313 271.275781)rotate(-90)scale(0.1 -0.1)">
      <defs>
       <path id="DejaVuSans-72" d="M 2631 2963 
Q 2534 3019 2420 3045 
Q 2306 3072 2169 3072 
Q 1681 3072 1420 2755 
Q 1159 2438 1159 1844 
L 1159 0 
L 581 0 
L 581 3500 
L 1159 3500 
L 1159 2956 
Q 1341 3275 1631 3429 
Q 1922 3584 2338 3584 
Q 2397 3584 2469 3576 
Q 2541 3569 2628 3553 
L 2631 2963 
z
" transform="scale(0.015625)"/>
       <path id="DejaVuSans-79" d="M 2059 -325 
Q 1816 -950 1584 -1140 
Q 1353 -1331 966 -1331 
L 506 -1331 
L 506 -850 
L 844 -850 
Q 1081 -850 1212 -737 
Q 1344 -625 1503 -206 
L 1606 56 
L 191 3500 
L 800 3500 
L 1894 763 
L 2988 3500 
L 3597 3500 
L 2059 -325 
z
" transform="scale(0.015625)"/>
       <path id="DejaVuSans-75" d="M 544 1381 
L 544 3500 
L 1119 3500 
L 1119 1403 
Q 1119 906 1312 657 
Q 1506 409 1894 409 
Q 2359 409 2629 706 
Q 2900 1003 2900 1516 
L 2900 3500 
L 3475 3500 
L 3475 0 
L 2900 0 
L 2900 538 
Q 2691 219 2414 64 
Q 2138 -91 1772 -91 
Q 1169 -91 856 284 
Q 544 659 544 1381 
z
M 1991 3584 
L 1991 3584 
z
" transform="scale(0.015625)"/>
       <path id="DejaVuSans-4d" d="M 628 4666 
L 1569 4666 
L 2759 1491 
L 3956 4666 
L 4897 4666 
L 4897 0 
L 4281 0 
L 4281 4097 
L 3078 897 
L 2444 897 
L 1241 4097 
L 1241 0 
L 628 0 
L 628 4666 
z
" transform="scale(0.015625)"/>
       <path id="DejaVuSans-42" d="M 1259 2228 
L 1259 519 
L 2272 519 
Q 2781 519 3026 730 
Q 3272 941 3272 1375 
Q 3272 1813 3026 2020 
Q 2781 2228 2272 2228 
L 1259 2228 
z
M 1259 4147 
L 1259 2741 
L 2194 2741 
Q 2656 2741 2882 2914 
Q 3109 3088 3109 3444 
Q 3109 3797 2882 3972 
Q 2656 4147 2194 4147 
L 1259 4147 
z
M 628 4666 
L 2241 4666 
Q 2963 4666 3353 4366 
Q 3744 4066 3744 3513 
Q 3744 3084 3544 2831 
Q 3344 2578 2956 2516 
Q 3422 2416 3680 2098 
Q 3938 1781 3938 1306 
Q 3938 681 3513 340 
Q 3088 0 2303 0 
L 628 0 
L 628 4666 
z
" transform="scale(0.015625)"/>
      </defs>
      <use xlink:href="#DejaVuSans-6d"/>
      <use xlink:href="#DejaVuSans-65" x="97.412109"/>
      <use xlink:href="#DejaVuSans-6d" x="158.935547"/>
      <use xlink:href="#DejaVuSans-6f" x="256.347656"/>
      <use xlink:href="#DejaVuSans-72" x="317.529297"/>
      <use xlink:href="#DejaVuSans-79" x="358.642578"/>
      <use xlink:href="#DejaVuSans-20" x="417.822266"/>
      <use xlink:href="#DejaVuSans-75" x="449.609375"/>
      <use xlink:href="#DejaVuSans-73" x="512.988281"/>
      <use xlink:href="#DejaVuSans-65" x="565.087891"/>
      <use xlink:href="#DejaVuSans-64" x="626.611328"/>
      <use xlink:href="#DejaVuSans-20" x="690.087891"/>
      <use xlink:href="#DejaVuSans-28" x="721.875"/>
      <use xlink:href="#DejaVuSans-69" x="760.888672"/>
      <use xlink:href="#DejaVuSans-6e" x="788.671875"/>
      <use xlink:href="#DejaVuSans-20" x="852.050781"/>
      <use xlink:href="#DejaVuSans-4d" x="883.837891"/>
      <use xlink:href="#DejaVuSans-69" x="970.117188"/>
      <use xlink:href="#DejaVuSans-42" x="997.900391"/>
      <use xlink:href="#DejaVuSans-29" x="1066.503906"/>
     </g>
    </g>
   </g>
   <g id="line2d_25">
    <path d="M 170.776837 373.090909 
L 170.916538 343.471935 
L 170.959664 343.471935 
L 170.964916 343.613658 
L 171.012816 340.585623 
L 171.556016 277.770724 
L 171.590666 278.482417 
L 171.673188 267.422928 
L 171.923527 222.661214 
L 172.035408 226.510828 
L 172.040758 226.446642 
L 172.312349 200.459564 
L 172.064665 230.044134 
L 172.371292 204.108405 
L 172.376617 204.108405 
L 172.379293 204.66143 
L 172.416598 200.716821 
L 172.475181 203.849094 
L 172.477856 201.142502 
L 172.56899 208.00526 
L 172.582297 205.721268 
L 172.614277 205.097895 
L 172.702558 212.850012 
L 172.739841 212.051539 
L 172.785132 211.974003 
L 172.833074 215.413341 
L 172.81977 210.320574 
L 172.892138 211.02097 
L 172.900048 211.018403 
L 172.902748 211.021998 
L 172.908076 209.969862 
L 172.987965 215.504741 
L 173.006598 213.180698 
L 173.011988 213.180698 
L 173.059907 218.419295 
L 173.126477 217.16844 
L 173.190473 217.0108 
L 173.270451 205.421905 
L 173.310753 207.247866 
L 173.316104 207.247866 
L 173.420062 212.39917 
L 173.436047 211.892872 
L 173.499939 208.518233 
L 173.526561 210.271792 
L 173.585971 221.541812 
L 173.641907 217.744573 
L 173.761776 207.333105 
L 173.817731 221.800609 
L 173.88155 214.948121 
L 173.889551 214.929122 
L 173.892201 224.467149 
L 174.001441 220.294551 
L 174.004067 220.294551 
L 174.118584 217.796435 
L 174.131889 218.373595 
L 174.171835 216.580497 
L 174.222425 216.851105 
L 174.257035 216.786406 
L 174.368889 196.117515 
L 174.387561 197.192758 
L 174.449233 199.616931 
L 174.531874 198.891887 
L 174.699616 186.870636 
L 174.720922 187.816993 
L 174.752884 194.792718 
L 174.822124 186.057786 
L 174.830127 187.599788 
L 174.835461 187.597734 
L 174.989975 193.406816 
L 175.035355 193.165991 
L 175.061969 193.157775 
L 175.107255 190.63039 
L 175.10993 194.707993 
L 175.112581 194.705425 
L 175.158229 213.561706 
L 175.227843 213.464657 
L 175.230543 213.463116 
L 175.235894 211.921114 
L 175.307642 216.643656 
L 175.331598 215.090871 
L 175.336923 215.004605 
L 175.406289 210.636882 
L 175.4489 211.583239 
L 175.451526 211.583239 
L 175.510125 198.751192 
L 175.576749 199.821299 
L 175.58475 199.821299 
L 175.592726 201.424407 
L 175.685927 195.640999 
L 175.709859 193.80939 
L 175.720535 198.92475 
L 175.744513 198.151439 
L 175.747184 206.512039 
L 175.811073 195.545491 
L 175.856372 202.108372 
L 175.938914 201.872681 
L 175.949566 200.85803 
L 175.973549 211.113398 
L 176.018789 210.712878 
L 176.058796 210.601965 
L 176.141319 210.559345 
L 176.178604 205.556439 
L 176.255857 205.754131 
L 176.261186 205.750023 
L 176.407763 177.177537 
L 176.519602 170.121708 
L 176.570615 170.986934 
L 176.575943 170.963314 
L 176.578604 170.843158 
L 176.597234 172.485804 
L 176.605235 172.462697 
L 176.623841 181.10058 
L 176.717025 178.417095 
L 176.756988 178.415041 
L 176.762338 176.359552 
L 176.834212 183.179176 
L 176.860843 183.011266 
L 176.868844 183.000996 
L 176.983368 170.269079 
L 176.986043 172.879135 
L 177.007354 172.870919 
L 177.018008 173.491725 
L 177.095252 170.985394 
L 177.111231 171.778218 
L 177.113857 171.779759 
L 177.116533 171.673467 
L 177.119208 171.959479 
L 177.207083 169.611815 
L 177.228364 168.694727 
L 177.231039 170.697327 
L 177.255008 168.728104 
L 177.340262 191.039126 
L 177.372264 190.654524 
L 177.414877 190.589311 
L 177.422881 192.088694 
L 177.526793 191.924892 
L 177.529465 191.924892 
L 177.625381 184.213853 
L 177.641358 185.881146 
L 177.66798 185.895011 
L 177.673306 185.836473 
L 177.691961 185.836473 
L 177.705263 188.346912 
L 177.804312 188.213406 
L 177.82563 188.208271 
L 177.857611 196.429202 
L 177.93486 188.999555 
L 177.948189 188.987231 
L 178.004102 185.50476 
L 178.006778 189.533068 
L 178.012103 189.298404 
L 178.081481 202.949977 
L 178.126741 202.83547 
L 178.150697 202.831362 
L 178.161366 203.471167 
L 178.187997 201.765362 
L 178.254628 202.609022 
L 178.32121 197.230756 
L 178.363878 202.192584 
L 178.385179 202.192584 
L 178.614274 220.695071 
L 178.43839 201.394624 
L 178.640858 220.016241 
L 178.646209 220.044996 
L 178.869897 208.745708 
L 178.931146 194.369091 
L 178.989739 202.845226 
L 178.992414 226.970399 
L 179.101585 224.56009 
L 179.122879 224.434799 
L 179.125554 226.075391 
L 179.146859 222.741831 
L 179.232082 223.44993 
L 179.282682 223.319505 
L 179.57827 216.695519 
L 179.703458 197.163489 
L 179.706158 198.028715 
L 179.783409 187.474497 
L 179.929907 158.744884 
L 180.047151 146.429405 
L 180.161687 128.013697 
L 180.27897 103.66721 
L 180.302904 101.259468 
L 180.51092 64.433701 
L 180.545542 67.335931 
L 180.596149 74.676232 
L 180.657406 70.025064 
L 180.668119 69.774995 
L 180.710708 73.308815 
L 180.732013 73.205604 
L 180.761295 73.142959 
L 180.923843 60.776644 
L 181.070304 58.909091 
L 181.168851 62.983099 
L 181.283417 110.591586 
L 181.307397 109.179496 
L 181.31277 109.676039 
L 181.331422 125.307619 
L 181.424641 119.82152 
L 181.451287 122.173292 
L 181.469942 118.473616 
L 181.584377 140.637782 
L 181.642961 134.578632 
L 181.648302 145.950835 
L 181.658961 145.921566 
L 181.664235 145.662768 
L 181.66691 146.56856 
L 181.674862 146.557263 
L 181.677488 146.55829 
L 181.682863 148.879252 
L 181.749241 144.741572 
L 181.767834 144.981884 
L 181.876798 135.308811 
L 181.887472 144.900239 
L 181.988162 142.614708 
L 181.993513 142.583898 
L 182.025416 138.574076 
L 182.051907 150.375041 
L 182.06786 150.294424 
L 182.104973 149.997114 
L 182.26198 129.389329 
L 182.264631 133.653327 
L 182.269969 133.605573 
L 182.277972 132.055355 
L 182.331319 137.691392 
L 182.371136 137.650313 
L 182.416632 137.620017 
L 182.496285 131.700022 
L 182.54673 132.812749 
L 182.573191 132.782967 
L 182.661143 110.945379 
L 182.690361 118.632284 
L 182.703592 118.531127 
L 182.772763 114.276371 
L 182.817786 115.406557 
L 182.820461 115.402962 
L 182.926967 106.946854 
L 182.940294 108.088849 
L 182.958949 108.078066 
L 183.044097 100.560612 
L 183.084191 100.687957 
L 183.121513 97.383666 
L 183.169576 102.028672 
L 183.190876 101.433027 
L 183.196202 101.392462 
L 183.201528 101.095152 
L 183.206903 107.715544 
L 183.265504 105.526548 
L 183.276158 104.985332 
L 183.278821 106.359424 
L 183.303262 105.81102 
L 183.417705 120.935274 
L 183.423055 120.934761 
L 183.439035 117.108767 
L 183.497611 122.783315 
L 183.516264 122.447494 
L 183.676062 115.734162 
L 183.769748 140.807746 
L 183.791004 139.736611 
L 183.804333 139.070105 
L 183.807009 141.161025 
L 183.841638 139.932763 
L 183.844291 152.477771 
L 183.953349 144.480207 
L 183.961368 143.340779 
L 183.980008 147.99246 
L 184.06256 145.128741 
L 184.070561 143.694571 
L 184.123824 138.332224 
L 184.131825 136.243871 
L 184.166435 159.393418 
L 184.182363 159.311774 
L 184.187667 158.580568 
L 184.261908 158.848608 
L 184.267216 152.157355 
L 184.373892 153.219247 
L 184.376545 153.219247 
L 184.384521 155.796953 
L 184.46967 149.13959 
L 184.483019 149.561164 
L 184.49637 149.555515 
L 184.531175 146.222469 
L 184.601333 149.872337 
L 184.604023 149.871823 
L 184.638567 149.864635 
L 184.739505 141.728429 
L 184.7501 147.396815 
L 184.752726 147.378843 
L 184.867848 141.423931 
L 184.779439 149.734209 
L 184.873221 143.853752 
L 184.875872 143.831672 
L 184.899852 128.259657 
L 184.915832 153.424128 
L 184.985638 144.040148 
L 184.990964 142.629599 
L 185.050008 147.442002 
L 185.089981 145.641715 
L 185.092631 145.641202 
L 185.095309 162.08974 
L 185.204522 156.590805 
L 185.295203 151.486741 
L 185.324525 153.411291 
L 185.399265 174.287117 
L 185.482275 169.119381 
L 185.543662 171.08347 
L 185.554316 167.565055 
L 185.586344 169.453148 
L 185.594321 167.179939 
L 185.655683 173.864003 
L 185.762489 200.229008 
L 185.770446 199.858784 
L 185.773109 199.484965 
L 185.834835 201.244173 
L 185.866945 201.023373 
L 185.968637 203.785421 
L 185.990454 203.771044 
L 185.995716 203.739721 
L 185.998396 203.871173 
L 186.003712 203.840878 
L 186.179948 229.690341 
L 186.009124 203.69248 
L 186.219862 228.5961 
L 186.227855 228.455404 
L 186.233183 228.469268 
L 186.328947 223.761104 
L 186.350178 225.324672 
L 186.363458 225.32724 
L 186.499167 218.44651 
L 186.507171 221.562865 
L 186.552558 221.509462 
L 186.638115 219.002617 
L 186.664697 220.571834 
L 186.691282 220.565672 
L 186.699283 212.344741 
L 186.805907 213.638729 
L 186.813923 213.626405 
L 186.947089 202.623399 
L 186.952415 203.024433 
L 186.955066 203.02546 
L 186.957741 203.530731 
L 186.981732 195.107486 
L 187.029622 196.444607 
L 187.048277 187.910448 
L 187.088233 198.559148 
L 187.101535 198.457477 
L 187.197812 217.007205 
L 187.213797 213.27518 
L 187.21912 214.458254 
L 187.251127 211.670018 
L 187.325702 213.70959 
L 187.349681 213.710617 
L 187.360335 213.972495 
L 187.376315 205.735132 
L 187.448314 203.639077 
L 187.45895 215.828752 
L 187.498933 229.565564 
L 187.571237 224.951881 
L 187.637864 222.321285 
L 187.611186 226.371673 
L 187.677979 225.976288 
L 187.683401 225.974234 
L 187.812047 230.176614 
L 187.814705 230.180208 
L 187.8174 230.169425 
L 187.820099 230.168911 
L 187.828088 229.737069 
L 187.886797 232.627489 
L 187.918831 231.795639 
L 187.929436 231.796153 
L 187.96664 233.509146 
L 188.003876 226.286948 
L 188.031036 227.075151 
L 188.103117 226.925212 
L 188.105792 231.777667 
L 188.215089 230.51038 
L 188.254965 230.433871 
L 188.369167 224.428637 
L 188.371818 225.497718 
L 188.40645 225.460747 
L 188.427756 209.694119 
L 188.526164 210.038669 
L 188.621827 214.275966 
L 188.637807 213.65362 
L 188.72568 210.610694 
L 188.74966 212.778124 
L 188.754986 212.771449 
L 188.760312 213.145267 
L 188.762999 213.112404 
L 188.819151 236.681984 
L 188.875345 227.403782 
L 188.896651 227.387864 
L 188.912633 221.772881 
L 188.965933 215.379964 
L 188.981903 222.043489 
L 189.021878 221.69329 
L 189.029855 221.69329 
L 189.03253 219.665016 
L 189.134394 224.126707 
L 189.137106 224.113869 
L 189.145063 224.109761 
L 189.263023 225.402722 
L 189.268405 225.397074 
L 189.273682 225.397074 
L 189.300453 226.075904 
L 189.305722 223.844802 
L 189.373424 223.844802 
L 193.12329 223.835046 
L 193.14765 220.00135 
L 193.209211 221.769286 
L 193.211862 233.493742 
L 193.321434 228.863113 
L 200.508028 228.88622 
L 200.524111 221.44887 
L 200.577849 236.412403 
L 200.61525 232.339422 
L 207.890117 232.329666 
L 207.914184 223.789345 
L 207.970218 245.881622 
L 207.991654 241.212996 
L 215.270415 241.202726 
L 215.27309 241.334179 
L 215.275741 239.095888 
L 215.297106 233.892208 
L 215.387986 235.587743 
L 216.34346 235.585689 
L 216.348867 235.975426 
L 216.407834 231.858798 
L 216.410485 227.183496 
L 216.413135 235.954373 
L 216.517045 233.093222 
L 216.530376 233.02082 
L 216.535702 233.147651 
L 216.658225 230.235665 
L 216.663555 230.122698 
L 216.804723 226.411725 
L 216.812744 226.454344 
L 216.826048 225.481286 
L 216.842004 225.500799 
L 216.868667 225.298998 
L 216.871342 225.378589 
L 216.988571 222.568786 
L 216.996552 222.5503 
L 217.113823 219.1238 
L 217.159048 219.042155 
L 217.278954 216.026958 
L 217.294939 216.165086 
L 217.310921 215.750702 
L 217.313589 215.777403 
L 217.433505 212.590188 
L 217.609406 209.095907 
L 217.612081 209.160606 
L 217.72663 206.533092 
L 217.729283 206.554145 
L 217.753266 205.871206 
L 217.758592 205.822425 
L 217.873202 202.639317 
L 217.89724 202.577699 
L 218.430352 190.435265 
L 218.454308 190.437833 
L 218.467637 190.351053 
L 218.584839 187.970526 
L 218.853978 181.988913 
L 218.856629 182.090583 
L 218.917888 180.539338 
L 218.923213 180.598389 
L 219.069764 177.381905 
L 219.080437 177.37831 
L 219.208401 173.924081 
L 219.213754 173.929216 
L 219.378957 169.819778 
L 219.410961 169.864451 
L 219.525539 166.651047 
L 219.528214 166.665425 
L 219.55487 166.651561 
L 219.677395 163.545476 
L 219.680046 163.589636 
L 219.690712 163.601446 
L 219.810569 160.503064 
L 219.815897 160.502037 
L 219.826549 160.627328 
L 219.946465 157.184396 
L 219.959797 157.102751 
L 220.346212 148.058186 
L 220.359538 148.161911 
L 220.37019 148.189125 
L 220.492806 145.199089 
L 220.51149 145.281761 
L 220.519472 145.311543 
L 220.548754 144.489963 
L 220.551429 144.542852 
L 220.658028 141.738185 
L 220.671385 141.791074 
L 220.684729 141.817262 
L 220.799245 138.098073 
L 220.836565 138.147882 
L 220.839216 138.18588 
L 220.852542 137.570722 
L 220.863214 137.615909 
L 220.988473 133.536766 
L 221.017757 133.590682 
L 221.097696 132.283343 
L 221.190951 129.341575 
L 221.217612 129.430408 
L 221.220287 129.451974 
L 221.225613 129.336953 
L 221.342889 126.240625 
L 221.430808 125.028795 
L 221.433486 125.070901 
L 221.548049 117.609417 
L 221.694585 117.500558 
L 221.798541 114.91669 
L 221.713252 117.567311 
L 221.8305 114.961363 
L 221.843842 114.966498 
L 221.974351 111.443462 
L 222.024992 111.378249 
L 222.155585 108.421076 
L 222.160916 108.483721 
L 222.163566 108.56896 
L 222.227547 107.085495 
L 222.246222 107.164059 
L 222.382073 103.632293 
L 222.392742 103.690317 
L 222.827293 93.640344 
L 222.829971 93.693233 
L 222.859319 92.964595 
L 222.971732 236.081717 
L 230.032436 236.085312 
L 230.096466 242.567575 
L 230.059151 233.539955 
L 230.236076 241.755752 
L 230.241428 256.008105 
L 230.346347 244.563501 
L 237.422507 244.554258 
L 237.443935 235.354106 
L 237.489714 240.768829 
L 237.492364 259.276965 
L 237.599658 249.399524 
L 244.80844 249.380011 
L 244.835234 241.769103 
L 244.861937 260.649517 
L 244.915839 252.831159 
L 252.190685 252.820376 
L 252.215131 244.770436 
L 252.26579 258.090296 
L 252.300523 254.509236 
L 259.572565 254.499993 
L 259.618004 246.895246 
L 259.730377 247.924275 
L 266.957893 247.914519 
L 266.981923 245.789195 
L 267.033092 248.835715 
L 267.06248 248.810041 
L 274.341524 248.800284 
L 274.368285 248.270879 
L 274.384258 249.181805 
L 274.448492 249.162806 
L 281.723746 249.152536 
L 281.750473 246.784847 
L 281.782475 250.148702 
L 281.787801 250.148702 
L 281.790451 267.416766 
L 281.900073 257.764232 
L 289.10631 257.754475 
L 289.181733 250.085029 
L 289.221799 250.795182 
L 296.48951 250.785426 
L 296.5162 248.091672 
L 296.570017 250.585166 
L 296.572692 263.35046 
L 296.682663 258.281827 
L 303.872481 258.272071 
L 303.888475 250.983632 
L 303.923181 269.048628 
L 303.981977 258.3912 
L 311.257233 258.371174 
L 311.281315 249.037515 
L 311.369791 250.646784 
L 318.6409 250.617002 
L 318.683622 249.990034 
L 318.712985 250.924581 
L 318.747706 250.924581 
L 326.022421 250.915338 
L 326.043825 248.230827 
L 326.049244 249.243937 
L 326.094486 269.250942 
L 326.161344 259.844882 
L 333.406696 259.826397 
L 333.441439 252.290457 
L 333.519773 253.058121 
L 340.789509 253.046311 
L 340.829942 250.044464 
L 340.910077 251.834994 
L 348.174163 251.825238 
L 348.248894 251.223944 
L 348.251554 252.058874 
L 348.28104 252.058874 
L 355.555531 252.049632 
L 355.596021 249.519166 
L 355.560857 252.619603 
L 355.636882 252.030633 
L 355.639558 262.939157 
L 355.749802 260.129354 
L 362.938925 260.109842 
L 362.965606 252.440396 
L 363.054289 253.436561 
L 370.3229 253.426291 
L 370.360793 250.935878 
L 370.435632 252.95645 
L 377.705211 252.94464 
L 377.766531 252.362345 
L 377.777183 252.910236 
L 377.779861 264.871409 
L 377.889541 260.565818 
L 385.088361 260.537577 
L 385.112428 251.692245 
L 385.208688 254.229385 
L 392.472444 254.217062 
L 392.523512 253.56596 
L 392.515535 254.274572 
L 392.582356 254.260708 
L 399.856392 254.250952 
L 399.88052 251.898666 
L 399.93129 254.118985 
L 399.933965 265.59748 
L 400.043456 261.800242 
L 407.238491 261.789972 
L 407.310498 253.890997 
L 407.353682 254.551855 
L 414.622953 254.542612 
L 414.64434 253.916158 
L 414.660339 254.695118 
L 414.732545 254.647364 
L 422.00534 254.636581 
L 422.0267 251.938719 
L 422.06942 253.773922 
L 422.072144 271.936481 
L 422.181586 261.403316 
L 429.389537 261.394073 
L 429.432387 251.591601 
L 429.501814 252.701761 
L 436.772849 252.691491 
L 436.842247 252.016769 
L 436.834271 252.725381 
L 436.882382 252.721273 
L 444.153676 252.711517 
L 444.169703 254.061988 
L 444.191077 251.32048 
L 444.231252 253.560311 
L 444.233927 264.499131 
L 444.343657 261.214353 
L 451.539251 261.20511 
L 451.590023 253.338998 
L 451.651491 254.048638 
L 458.922627 254.038881 
L 458.962807 249.501708 
L 459.040383 252.705868 
L 466.305162 252.696112 
L 466.377991 251.93307 
L 466.415488 252.632953 
L 473.68739 252.62371 
L 473.738199 250.452173 
L 473.722175 253.013961 
L 473.764847 252.48969 
L 473.767498 264.421594 
L 473.877533 260.01382 
L 481.070537 260.004063 
L 481.123928 252.225244 
L 481.190742 252.889184 
L 488.453946 252.8784 
L 488.480683 249.90839 
L 488.576784 251.457067 
L 495.838625 251.447825 
L 495.895234 250.859882 
L 495.905886 257.155236 
L 495.908561 261.63798 
L 496.015547 259.037167 
L 503.223178 259.027924 
L 503.244946 249.211074 
L 503.335738 253.697412 
L 510.603507 253.686629 
L 510.654521 252.871725 
L 510.713794 253.57931 
L 517.988811 253.569554 
L 518.012849 250.583112 
L 518.058671 252.394695 
L 518.061347 266.674263 
L 518.168756 260.059006 
L 525.37238 259.950147 
L 525.442097 252.295079 
L 525.484873 253.005232 
L 532.755235 252.995475 
L 532.776666 249.991061 
L 532.832764 253.626551 
L 532.862154 253.591121 
L 540.138833 253.581878 
L 540.154931 253.116658 
L 540.189679 262.187411 
L 540.192332 263.844948 
L 540.194997 261.229244 
L 540.29918 261.229244 
L 547.521626 261.219488 
L 547.561789 248.99849 
L 547.641941 252.609846 
L 554.905313 252.60009 
L 554.972011 251.951556 
L 554.964034 252.661709 
L 555.014809 252.643223 
L 562.288067 252.63398 
L 562.307133 250.394662 
L 562.357984 253.765706 
L 562.363287 253.765706 
L 562.368638 264.522751 
L 562.476074 261.447989 
L 569.669923 261.437206 
L 569.720712 253.608066 
L 569.793088 254.318219 
L 577.054751 254.308976 
L 577.09782 250.838829 
L 577.172942 252.626791 
L 584.436543 252.617035 
L 584.506002 251.894559 
L 584.546014 252.598036 
L 591.821175 252.58828 
L 591.842485 249.469872 
L 591.853194 254.480994 
L 591.925746 253.627578 
L 599.203643 253.617308 
L 599.254408 252.90048 
L 599.313191 253.610633 
L 606.587406 253.600877 
L 606.614193 250.466037 
L 606.65956 253.600363 
L 606.662236 265.643694 
L 606.771835 261.314483 
L 613.969936 261.30524 
L 614.036974 253.461208 
L 614.085575 254.105121 
L 621.355523 254.00191 
L 621.377284 250.868098 
L 621.452084 255.01194 
L 621.460031 254.273032 
L 621.572694 254.969834 
L 628.738664 254.935944 
L 628.789751 254.214494 
L 628.848994 254.918999 
L 636.119685 254.908729 
L 636.165181 250.857314 
L 636.191871 253.595742 
L 636.194571 269.34183 
L 636.301798 261.240027 
L 643.504642 261.230271 
L 643.573973 253.376996 
L 643.616847 254.087149 
L 650.88667 254.077393 
L 650.929342 251.880181 
L 650.900028 255.041209 
L 650.998784 253.711277 
L 658.270639 253.70152 
L 658.318751 252.935397 
L 658.38033 253.64555 
L 665.654609 253.564419 
L 665.711241 249.414415 
L 665.743267 253.596769 
L 665.764661 253.58804 
L 673.038126 253.54388 
L 673.104853 252.850158 
L 673.094199 253.571095 
L 673.147499 253.553123 
L 680.419544 253.543366 
L 680.467587 250.645757 
L 680.42487 254.569827 
L 680.505005 253.442723 
L 680.50768 264.513509 
L 680.617747 261.141438 
L 687.803915 261.132195 
L 687.854935 253.295865 
L 687.916413 254.006018 
L 695.185305 253.995749 
L 695.234249 249.633674 
L 695.341456 251.962339 
L 702.568682 251.952583 
L 702.627804 251.394935 
L 702.635808 251.94334 
L 702.63849 265.711988 
L 702.745872 259.373501 
L 709.95276 259.363231 
L 709.971811 249.029299 
L 710.065288 255.200903 
L 717.336375 255.19166 
L 717.38176 254.437348 
L 717.445928 255.147501 
L 724.720217 255.137231 
L 724.760276 250.214942 
L 724.792337 255.101287 
L 724.795012 270.639926 
L 724.902217 262.700385 
L 732.101194 262.688575 
L 732.170545 254.831706 
L 732.226788 255.50078 
L 739.486879 255.49051 
L 739.524303 251.30867 
L 739.54831 255.350328 
L 739.550964 270.958288 
L 739.658053 262.763544 
L 746.868932 262.753788 
L 746.916918 254.975482 
L 746.983769 255.676392 
L 754.252092 255.666636 
L 754.278824 252.219596 
L 754.364408 255.428378 
L 761.637115 255.339545 
L 761.703899 254.676633 
L 761.706557 255.386272 
L 761.746764 255.386272 
L 769.019559 255.376002 
L 769.062694 250.480415 
L 769.086705 253.544907 
L 769.089355 268.706132 
L 769.198982 261.15068 
L 776.402761 261.140924 
L 776.451321 253.446317 
L 776.516155 254.155443 
L 783.785252 254.1462 
L 783.825431 249.478087 
L 783.846693 253.703574 
L 783.849392 273.114421 
L 783.956349 261.02847 
L 791.168574 261.017687 
L 791.184569 253.698439 
L 791.281112 255.74674 
L 798.551215 255.736984 
L 798.585857 251.116112 
L 798.663684 255.559317 
L 805.934419 255.550075 
L 805.974505 254.974455 
L 805.982509 255.522346 
L 805.985159 273.315708 
L 806.092625 262.991019 
L 813.318923 262.980749 
L 813.374952 251.460662 
L 813.431075 255.630179 
L 820.519025 255.609126 
L 820.527036 245.102662 
L 820.633542 252.415748 
L 820.649522 252.400857 
L 820.766694 249.093999 
L 820.779999 249.093999 
L 820.897171 245.809734 
L 820.9105 245.809734 
L 821.027709 243.122142 
L 821.286061 236.97878 
L 821.29407 236.881731 
L 821.419238 233.428015 
L 821.440536 233.428015 
L 821.576373 229.833091 
L 821.595003 229.769418 
L 821.898642 221.946439 
L 821.909296 221.946439 
L 822.026473 219.266549 
L 822.034474 219.167446 
L 822.151664 216.622603 
L 822.154314 216.622603 
L 822.274181 212.419196 
L 822.314112 212.419196 
L 822.457923 208.850973 
L 822.481904 208.850973 
L 822.678948 204.535626 
L 822.686924 204.535626 
L 822.84939 200.15712 
L 822.860042 200.15712 
L 822.995852 196.836398 
L 823.006506 196.836398 
L 823.139663 193.308227 
L 823.144989 193.228636 
L 823.280833 189.295323 
L 823.307467 189.295323 
L 823.424654 186.134296 
L 823.440658 186.134296 
L 823.571169 182.360164 
L 823.595126 182.360164 
L 823.744262 178.250212 
L 823.770894 178.197323 
L 823.909376 173.176444 
L 823.970642 173.176444 
L 824.106465 169.704243 
L 824.122447 169.704243 
L 824.236971 166.627427 
L 824.2503 166.627427 
L 824.436725 162.117982 
L 824.45538 162.117982 
L 824.593875 158.75464 
L 824.721708 155.516589 
L 824.844187 152.017687 
L 824.873493 151.929367 
L 825.043977 147.563185 
L 825.062608 147.563185 
L 825.182435 144.615254 
L 825.190439 144.610633 
L 825.195765 141.904041 
L 825.307606 136.320894 
L 825.480706 136.235655 
L 825.603209 133.417637 
L 825.619189 133.360126 
L 825.736401 130.206287 
L 825.784338 130.206287 
L 825.917497 127.193657 
L 825.920147 127.193657 
L 826.034689 124.529172 
L 826.040027 124.529172 
L 826.157221 121.462112 
L 826.162547 121.462112 
L 826.290373 117.826622 
L 826.298349 117.78657 
L 826.439505 114.320531 
L 826.447481 114.320531 
L 826.572681 111.342305 
L 826.58066 111.350521 
L 826.695622 255.037101 
L 828.086969 255.026831 
L 828.105616 251.263483 
L 828.127003 260.102653 
L 828.156273 258.809692 
L 828.158955 268.66608 
L 828.266534 260.701892 
L 829.565801 260.679299 
L 829.573758 249.545354 
L 829.680311 256.73469 
L 829.690962 256.73469 
L 829.808142 253.436047 
L 829.821486 253.436047 
L 829.938665 250.158458 
L 829.95198 250.158458 
L 830.069135 247.470866 
L 830.346169 240.627621 
L 830.35682 240.627621 
L 830.47666 237.740281 
L 830.612487 234.144844 
L 830.631142 234.081171 
L 830.934764 226.259219 
L 830.945415 226.259219 
L 831.062602 223.579329 
L 831.067931 223.481253 
L 831.190438 219.457053 
L 831.233067 219.457053 
L 831.352936 216.23338 
L 831.360913 216.183058 
L 831.502095 212.95271 
L 831.515424 212.95271 
L 831.712498 208.634795 
L 831.717826 208.634795 
L 831.880317 204.256289 
L 831.890971 204.256289 
L 832.02681 200.934026 
L 832.034797 200.934026 
L 832.167946 197.377613 
L 832.173272 197.298023 
L 832.309106 193.36471 
L 832.335738 193.36471 
L 832.452942 190.203682 
L 832.468922 190.203682 
L 832.599426 186.429551 
L 832.620731 186.429551 
L 832.769885 182.319599 
L 832.796519 182.242062 
L 832.934974 177.245317 
L 832.993563 177.245317 
L 833.129407 173.773116 
L 833.142697 173.773116 
L 833.257288 170.6963 
L 833.27061 170.6963 
L 833.459741 166.188395 
L 833.475729 166.188395 
L 833.595551 163.053042 
L 833.606215 162.962155 
L 833.832632 157.023674 
L 833.845937 156.967704 
L 834.000392 152.998961 
L 834.016396 152.892156 
L 834.133586 149.753208 
L 834.16022 149.753208 
L 834.365277 135.476721 
L 834.495783 135.391482 
L 834.610315 133.011982 
L 834.612965 133.011982 
L 834.746149 129.291766 
L 834.796762 129.291766 
L 834.929896 126.278623 
L 834.932547 126.278623 
L 835.047096 123.614138 
L 835.049746 123.614138 
L 835.16694 120.547078 
L 835.172266 120.547078 
L 835.300127 116.911588 
L 835.308103 116.852537 
L 835.433274 113.721291 
L 835.443928 113.668402 
L 835.587714 109.999022 
L 835.705952 253.618849 
L 837.209814 253.692278 
L 837.223163 298.667602 
L 837.223163 298.667602 
" clip-path="url(#p3a701b9fb0)" style="fill: none; stroke: #000000; stroke-width: 1.5; stroke-linecap: square"/>
   </g>
   <g id="patch_3">
    <path d="M 100.8 388.8 
L 100.8 43.2 
" style="fill: none; stroke: #000000; stroke-width: 0.8; stroke-linejoin: miter; stroke-linecap: square"/>
   </g>
   <g id="patch_4">
    <path d="M 907.2 388.8 
L 907.2 43.2 
" style="fill: none; stroke: #000000; stroke-width: 0.8; stroke-linejoin: miter; stroke-linecap: square"/>
   </g>
   <g id="patch_5">
    <path d="M 100.8 388.8 
L 907.2 388.8 
" style="fill: none; stroke: #000000; stroke-width: 0.8; stroke-linejoin: miter; stroke-linecap: square"/>
   </g>
   <g id="patch_6">
    <path d="M 100.8 43.2 
L 907.2 43.2 
" style="fill: none; stroke: #000000; stroke-width: 0.8; stroke-linejoin: miter; stroke-linecap: square"/>
   </g>
   <g id="text_15">
    <!-- __main__.py FLAME -->
    <g transform="translate(445.83375 37.2)scale(0.12 -0.12)">
     <defs>
      <path id="DejaVuSans-5f" d="M 3263 -1063 
L 3263 -1509 
L -63 -1509 
L -63 -1063 
L 3263 -1063 
z
" transform="scale(0.015625)"/>
      <path id="DejaVuSans-61" d="M 2194 1759 
Q 1497 1759 1228 1600 
Q 959 1441 959 1056 
Q 959 750 1161 570 
Q 1363 391 1709 391 
Q 2188 391 2477 730 
Q 2766 1069 2766 1631 
L 2766 1759 
L 2194 1759 
z
M 3341 1997 
L 3341 0 
L 2766 0 
L 2766 531 
Q 2569 213 2275 61 
Q 1981 -91 1556 -91 
Q 1019 -91 701 211 
Q 384 513 384 1019 
Q 384 1609 779 1909 
Q 1175 2209 1959 2209 
L 2766 2209 
L 2766 2266 
Q 2766 2663 2505 2880 
Q 2244 3097 1772 3097 
Q 1472 3097 1187 3025 
Q 903 2953 641 2809 
L 641 3341 
Q 956 3463 1253 3523 
Q 1550 3584 1831 3584 
Q 2591 3584 2966 3190 
Q 3341 2797 3341 1997 
z
" transform="scale(0.015625)"/>
      <path id="DejaVuSans-2e" d="M 684 794 
L 1344 794 
L 1344 0 
L 684 0 
L 684 794 
z
" transform="scale(0.015625)"/>
      <path id="DejaVuSans-70" d="M 1159 525 
L 1159 -1331 
L 581 -1331 
L 581 3500 
L 1159 3500 
L 1159 2969 
Q 1341 3281 1617 3432 
Q 1894 3584 2278 3584 
Q 2916 3584 3314 3078 
Q 3713 2572 3713 1747 
Q 3713 922 3314 415 
Q 2916 -91 2278 -91 
Q 1894 -91 1617 61 
Q 1341 213 1159 525 
z
M 3116 1747 
Q 3116 2381 2855 2742 
Q 2594 3103 2138 3103 
Q 1681 3103 1420 2742 
Q 1159 2381 1159 1747 
Q 1159 1113 1420 752 
Q 1681 391 2138 391 
Q 2594 391 2855 752 
Q 3116 1113 3116 1747 
z
" transform="scale(0.015625)"/>
      <path id="DejaVuSans-46" d="M 628 4666 
L 3309 4666 
L 3309 4134 
L 1259 4134 
L 1259 2759 
L 3109 2759 
L 3109 2228 
L 1259 2228 
L 1259 0 
L 628 0 
L 628 4666 
z
" transform="scale(0.015625)"/>
      <path id="DejaVuSans-4c" d="M 628 4666 
L 1259 4666 
L 1259 531 
L 3531 531 
L 3531 0 
L 628 0 
L 628 4666 
z
" transform="scale(0.015625)"/>
      <path id="DejaVuSans-41" d="M 2188 4044 
L 1331 1722 
L 3047 1722 
L 2188 4044 
z
M 1831 4666 
L 2547 4666 
L 4325 0 
L 3669 0 
L 3244 1197 
L 1141 1197 
L 716 0 
L 50 0 
L 1831 4666 
z
" transform="scale(0.015625)"/>
      <path id="DejaVuSans-45" d="M 628 4666 
L 3578 4666 
L 3578 4134 
L 1259 4134 
L 1259 2753 
L 3481 2753 
L 3481 2222 
L 1259 2222 
L 1259 531 
L 3634 531 
L 3634 0 
L 628 0 
L 628 4666 
z
" transform="scale(0.015625)"/>
     </defs>
     <use xlink:href="#DejaVuSans-5f"/>
     <use xlink:href="#DejaVuSans-5f" x="50"/>
     <use xlink:href="#DejaVuSans-6d" x="100"/>
     <use xlink:href="#DejaVuSans-61" x="197.412109"/>
     <use xlink:href="#DejaVuSans-69" x="258.691406"/>
     <use xlink:href="#DejaVuSans-6e" x="286.474609"/>
     <use xlink:href="#DejaVuSans-5f" x="349.853516"/>
     <use xlink:href="#DejaVuSans-5f" x="399.853516"/>
     <use xlink:href="#DejaVuSans-2e" x="449.853516"/>
     <use xlink:href="#DejaVuSans-70" x="481.640625"/>
     <use xlink:href="#DejaVuSans-79" x="545.117188"/>
     <use xlink:href="#DejaVuSans-20" x="604.296875"/>
     <use xlink:href="#DejaVuSans-46" x="636.083984"/>
     <use xlink:href="#DejaVuSans-4c" x="693.603516"/>
     <use xlink:href="#DejaVuSans-41" x="751.566406"/>
     <use xlink:href="#DejaVuSans-4d" x="819.974609"/>
     <use xlink:href="#DejaVuSans-45" x="906.253906"/>
    </g>
   </g>
  </g>
  <g id="axes_2">
   <g id="matplotlib.axis_3"/>
   <g id="LineCollection_1">
    <path clip-path="url(#p3a701b9fb0)" style="fill: none; stroke-dasharray: 5.55,2.4; stroke-dashoffset: 0; stroke: #ff0000; stroke-width: 1.5"/>
   </g>
   <g id="LineCollection_2">
    <path d="M 181.064976 433 
L 181.064976 -1 
" clip-path="url(#p3a701b9fb0)" style="fill: none; stroke-dasharray: 5.55,2.4; stroke-dashoffset: 0; stroke: #ff0000; stroke-width: 1.5"/>
   </g>
   <g id="patch_7">
    <path d="M 100.8 388.8 
L 100.8 43.2 
" style="fill: none; stroke: #000000; stroke-width: 0.8; stroke-linejoin: miter; stroke-linecap: square"/>
   </g>
   <g id="patch_8">
    <path d="M 907.2 388.8 
L 907.2 43.2 
" style="fill: none; stroke: #000000; stroke-width: 0.8; stroke-linejoin: miter; stroke-linecap: square"/>
   </g>
   <g id="patch_9">
    <path d="M 100.8 388.8 
L 907.2 388.8 
" style="fill: none; stroke: #000000; stroke-width: 0.8; stroke-linejoin: miter; stroke-linecap: square"/>
   </g>
   <g id="patch_10">
    <path d="M 100.8 43.2 
L 907.2 43.2 
" style="fill: none; stroke: #000000; stroke-width: 0.8; stroke-linejoin: miter; stroke-linecap: square"/>
   </g>
  </g>
 </g>
 <defs>
  <clipPath id="p3a701b9fb0">
   <rect x="100.8" y="43.2" width="806.4" height="345.6"/>
  </clipPath>
 </defs>
</svg>
