<svg xmlns="http://www.w3.org/2000/svg" xmlns:xlink="http://www.w3.org/1999/xlink" version="1.1" width="256" height="256" viewBox="0 0 256 256" xml:space="preserve">

<defs>
</defs>
<g style="stroke: none; stroke-width: 0; stroke-dasharray: none; stroke-linecap: butt; stroke-linejoin: miter; stroke-miterlimit: 10; fill: none; fill-rule: nonzero; opacity: 1;" transform="translate(1.4065934065934016 1.4065934065934016) scale(2.81 2.81)" >
	<rect x="22.97" y="59.65" rx="0" ry="0" width="14.84" height="6.55" style="stroke: none; stroke-width: 1; stroke-dasharray: none; stroke-linecap: butt; stroke-linejoin: miter; stroke-miterlimit: 10; fill: rgb(143,143,139); fill-rule: nonzero; opacity: 1;" transform=" matrix(1 0 0 1 0 0) "/>
	<path d="M 43.127 70.44 H 17.648 v -1.067 c 0 -1.75 1.419 -3.169 3.169 -3.169 h 19.141 c 1.75 0 3.169 1.419 3.169 3.169 V 70.44 z" style="stroke: none; stroke-width: 1; stroke-dasharray: none; stroke-linecap: butt; stroke-linejoin: miter; stroke-miterlimit: 10; fill: rgb(203,201,194); fill-rule: nonzero; opacity: 1;" transform=" matrix(1 0 0 1 0 0) " stroke-linecap="round" />
	<path d="M 37.188 59.65 h 18.567 c 2.221 0 4.021 -1.8 4.021 -4.021 V 23.581 c 0 -2.221 -1.8 -4.021 -4.021 -4.021 H 5.021 C 2.8 19.56 1 21.36 1 23.581 V 55.63 c 0 2.221 1.8 4.021 4.021 4.021 H 37.188" style="stroke: none; stroke-width: 1; stroke-dasharray: none; stroke-linecap: butt; stroke-linejoin: miter; stroke-miterlimit: 10; fill: rgb(172,206,255); fill-rule: nonzero; opacity: 1;" transform=" matrix(1 0 0 1 0 0) " stroke-linecap="round" />
	<path d="M 37.807 67.204 H 22.968 c -0.552 0 -1 -0.447 -1 -1 V 59.65 c 0 -0.553 0.448 -1 1 -1 h 14.838 c 0.552 0 1 0.447 1 1 v 6.554 C 38.807 66.757 38.359 67.204 37.807 67.204 z M 23.968 65.204 h 12.838 V 60.65 H 23.968 V 65.204 z" style="stroke: none; stroke-width: 1; stroke-dasharray: none; stroke-linecap: butt; stroke-linejoin: miter; stroke-miterlimit: 10; fill: rgb(0,0,0); fill-rule: nonzero; opacity: 1;" transform=" matrix(1 0 0 1 0 0) " stroke-linecap="round" />
	<path d="M 43.127 71.439 H 17.648 c -0.552 0 -1 -0.447 -1 -1 v -1.066 c 0 -2.299 1.871 -4.169 4.169 -4.169 h 19.141 c 2.299 0 4.169 1.87 4.169 4.169 v 1.066 C 44.127 70.992 43.68 71.439 43.127 71.439 z M 18.648 69.439 h 23.479 v -0.066 c 0 -1.196 -0.973 -2.169 -2.169 -2.169 H 20.817 c -1.196 0 -2.169 0.973 -2.169 2.169 V 69.439 z" style="stroke: none; stroke-width: 1; stroke-dasharray: none; stroke-linecap: butt; stroke-linejoin: miter; stroke-miterlimit: 10; fill: rgb(0,0,0); fill-rule: nonzero; opacity: 1;" transform=" matrix(1 0 0 1 0 0) " stroke-linecap="round" />
	<path d="M 55.754 59.65 H 37.188 H 5.021 C 2.8 59.65 1 57.85 1 55.63 v -3.704 h 58.775 v 3.704 C 59.775 57.85 57.975 59.65 55.754 59.65" style="stroke: none; stroke-width: 1; stroke-dasharray: none; stroke-linecap: butt; stroke-linejoin: miter; stroke-miterlimit: 10; fill: rgb(203,201,194); fill-rule: nonzero; opacity: 1;" transform=" matrix(1 0 0 1 0 0) " stroke-linecap="round" />
	<path d="M 85.137 70.44 H 70.353 c -2.133 0 -3.863 -1.73 -3.863 -3.863 V 23.423 c 0 -2.133 1.73 -3.863 3.863 -3.863 h 14.784 c 2.133 0 3.863 1.73 3.863 3.863 v 43.153 C 89 68.71 87.27 70.44 85.137 70.44 z" style="stroke: none; stroke-width: 1; stroke-dasharray: none; stroke-linecap: butt; stroke-linejoin: miter; stroke-miterlimit: 10; fill: rgb(203,201,194); fill-rule: nonzero; opacity: 1;" transform=" matrix(1 0 0 1 0 0) " stroke-linecap="round" />
	<path d="M 85.137 71.439 H 70.354 c -2.682 0 -4.863 -2.182 -4.863 -4.862 V 23.423 c 0 -2.682 2.182 -4.863 4.863 -4.863 h 14.783 c 2.682 0 4.863 2.182 4.863 4.863 v 43.154 C 90 69.258 87.818 71.439 85.137 71.439 z M 70.354 20.56 c -1.579 0 -2.863 1.285 -2.863 2.863 v 43.154 c 0 1.578 1.284 2.862 2.863 2.862 h 14.783 c 1.579 0 2.863 -1.284 2.863 -2.862 V 23.423 c 0 -1.579 -1.284 -2.863 -2.863 -2.863 H 70.354 z" style="stroke: none; stroke-width: 1; stroke-dasharray: none; stroke-linecap: butt; stroke-linejoin: miter; stroke-miterlimit: 10; fill: rgb(0,0,0); fill-rule: nonzero; opacity: 1;" transform=" matrix(1 0 0 1 0 0) " stroke-linecap="round" />
	<circle cx="77.741" cy="37.120999999999995" r="2.651" style="stroke: none; stroke-width: 1; stroke-dasharray: none; stroke-linecap: butt; stroke-linejoin: miter; stroke-miterlimit: 10; fill: rgb(172,206,255); fill-rule: nonzero; opacity: 1;" transform="  matrix(1 0 0 1 0 0) "/>
	<path d="M 77.745 40.774 c -2.013 0 -3.65 -1.638 -3.65 -3.651 s 1.638 -3.651 3.65 -3.651 c 2.014 0 3.651 1.638 3.651 3.651 S 79.759 40.774 77.745 40.774 z M 77.745 35.472 c -0.91 0 -1.65 0.741 -1.65 1.651 s 0.74 1.651 1.65 1.651 s 1.651 -0.741 1.651 -1.651 S 78.655 35.472 77.745 35.472 z" style="stroke: none; stroke-width: 1; stroke-dasharray: none; stroke-linecap: butt; stroke-linejoin: miter; stroke-miterlimit: 10; fill: rgb(0,0,0); fill-rule: nonzero; opacity: 1;" transform=" matrix(1 0 0 1 0 0) " stroke-linecap="round" />
	<path d="M 89 29.96 H 66.49 c -0.553 0 -1 -0.448 -1 -1 s 0.447 -1 1 -1 H 89 c 0.553 0 1 0.448 1 1 S 89.553 29.96 89 29.96 z" style="stroke: none; stroke-width: 1; stroke-dasharray: none; stroke-linecap: butt; stroke-linejoin: miter; stroke-miterlimit: 10; fill: rgb(0,0,0); fill-rule: nonzero; opacity: 1;" transform=" matrix(1 0 0 1 0 0) " stroke-linecap="round" />
	<path d="M 83.14 56.935 H 72.351 c -0.553 0 -1 -0.447 -1 -1 s 0.447 -1 1 -1 H 83.14 c 0.553 0 1 0.447 1 1 S 83.692 56.935 83.14 56.935 z" style="stroke: none; stroke-width: 1; stroke-dasharray: none; stroke-linecap: butt; stroke-linejoin: miter; stroke-miterlimit: 10; fill: rgb(0,0,0); fill-rule: nonzero; opacity: 1;" transform=" matrix(1 0 0 1 0 0) " stroke-linecap="round" />
	<path d="M 83.14 63.249 H 72.351 c -0.553 0 -1 -0.447 -1 -1 s 0.447 -1 1 -1 H 83.14 c 0.553 0 1 0.447 1 1 S 83.692 63.249 83.14 63.249 z" style="stroke: none; stroke-width: 1; stroke-dasharray: none; stroke-linecap: butt; stroke-linejoin: miter; stroke-miterlimit: 10; fill: rgb(0,0,0); fill-rule: nonzero; opacity: 1;" transform=" matrix(1 0 0 1 0 0) " stroke-linecap="round" />
	<path d="M 31.6 56.935 h -2.424 c -0.552 0 -1 -0.447 -1 -1 s 0.448 -1 1 -1 H 31.6 c 0.552 0 1 0.447 1 1 S 32.152 56.935 31.6 56.935 z" style="stroke: none; stroke-width: 1; stroke-dasharray: none; stroke-linecap: butt; stroke-linejoin: miter; stroke-miterlimit: 10; fill: rgb(0,0,0); fill-rule: nonzero; opacity: 1;" transform=" matrix(1 0 0 1 0 0) " stroke-linecap="round" />
	<path d="M 55.755 60.65 H 5.021 C 2.252 60.65 0 58.398 0 55.63 V 23.581 c 0 -2.769 2.252 -5.021 5.021 -5.021 h 50.734 c 2.769 0 5.021 2.252 5.021 5.021 V 55.63 C 60.775 58.398 58.523 60.65 55.755 60.65 z M 5.021 20.56 C 3.355 20.56 2 21.915 2 23.581 V 55.63 c 0 1.665 1.355 3.021 3.021 3.021 h 50.734 c 1.665 0 3.021 -1.355 3.021 -3.021 V 23.581 c 0 -1.666 -1.355 -3.021 -3.021 -3.021 H 5.021 z" style="stroke: none; stroke-width: 1; stroke-dasharray: none; stroke-linecap: butt; stroke-linejoin: miter; stroke-miterlimit: 10; fill: rgb(0,0,0); fill-rule: nonzero; opacity: 1;" transform=" matrix(1 0 0 1 0 0) " stroke-linecap="round" />
	<path d="M 55.755 60.65 H 5.021 C 2.252 60.65 0 58.398 0 55.63 v -3.704 c 0 -0.553 0.448 -1 1 -1 h 58.775 c 0.553 0 1 0.447 1 1 v 3.704 C 60.775 58.398 58.523 60.65 55.755 60.65 z M 2 52.926 v 2.704 c 0 1.665 1.355 3.021 3.021 3.021 h 50.734 c 1.665 0 3.021 -1.355 3.021 -3.021 v -2.704 H 2 z" style="stroke: none; stroke-width: 1; stroke-dasharray: none; stroke-linecap: butt; stroke-linejoin: miter; stroke-miterlimit: 10; fill: rgb(0,0,0); fill-rule: nonzero; opacity: 1;" transform=" matrix(1 0 0 1 0 0) " stroke-linecap="round" />
</g>
</svg>