<svg xmlns="http://www.w3.org/2000/svg" xmlns:xlink="http://www.w3.org/1999/xlink" version="1.1" width="256" height="256" viewBox="0 0 256 256" xml:space="preserve">
<desc>Created with Fabric.js 1.7.22</desc>
<defs>
</defs>
<g transform="translate(128 128) scale(0.72 0.72)" style="">
	<g style="stroke: none; stroke-width: 0; stroke-dasharray: none; stroke-linecap: butt; stroke-linejoin: miter; stroke-miterlimit: 10; fill: none; fill-rule: nonzero; opacity: 1;" transform="translate(-175.05 -175.05) scale(3.89 3.89)" >
	<path d="M 84.729 53.372 c -4.735 -11.686 -7.5 -20.682 -8.7 -28.31 c -0.008 -0.046 -0.018 -0.091 -0.032 -0.136 c -0.534 -1.735 -1.508 -3.318 -2.818 -4.577 l -10.014 -9.622 C 56.483 4.201 47.66 0.751 38.298 1.014 C 20.491 1.515 5.925 15.841 5.137 33.628 c -0.355 8.018 2.116 15.928 6.96 22.273 c 1.06 1.389 1.62 2.983 1.62 4.61 v 23.061 c 0 2.993 2.435 5.428 5.429 5.428 H 51.51 c 2.993 0 5.428 -2.435 5.428 -5.428 v -2.844 h 11.603 c 4.244 0 7.698 -3.454 7.698 -7.698 V 57.521 h 5.511 c 1.007 0 1.93 -0.465 2.528 -1.276 C 84.88 55.435 85.053 54.417 84.729 53.372 z" style="stroke: none; stroke-width: 1; stroke-dasharray: none; stroke-linecap: butt; stroke-linejoin: miter; stroke-miterlimit: 10; fill: rgb(239,212,168); fill-rule: nonzero; opacity: 1;" transform=" matrix(1 0 0 1 0 0) " stroke-linecap="round" />
	<path d="M 51.658 90 H 18.559 c -3.062 0 -5.552 -2.49 -5.552 -5.552 V 60.863 c 0 -1.664 -0.573 -3.294 -1.657 -4.715 C 6.396 49.66 3.868 41.57 4.231 33.37 C 5.037 15.178 19.934 0.527 38.146 0.014 c 9.575 -0.269 18.598 3.26 25.433 9.935 l 10.241 9.84 c 1.34 1.288 2.336 2.906 2.882 4.681 c 0.014 0.045 0.024 0.092 0.032 0.139 c 1.227 7.801 4.055 17.002 8.897 28.954 c 0.332 1.068 0.154 2.109 -0.459 2.938 c -0.612 0.829 -1.556 1.305 -2.586 1.305 H 70.545 c -0.553 0 -1 -0.447 -1 -1 s 0.447 -1 1 -1 h 12.042 c 0.39 0 0.746 -0.18 0.978 -0.493 s 0.299 -0.708 0.185 -1.08 c -4.857 -11.979 -7.722 -21.3 -8.979 -29.24 c -0.45 -1.425 -1.256 -2.724 -2.335 -3.76 l -10.247 -9.846 c -6.449 -6.3 -14.964 -9.622 -23.985 -9.373 C 21.033 2.497 6.988 16.309 6.229 33.458 c -0.343 7.732 2.041 15.36 6.71 21.477 c 1.353 1.771 2.067 3.821 2.067 5.928 v 23.585 c 0 1.958 1.594 3.552 3.552 3.552 h 33.099 c 1.958 0 3.552 -1.594 3.552 -3.552 V 80.54 c 0 -0.553 0.447 -1 1 -1 s 1 0.447 1 1 v 3.908 C 57.21 87.51 54.72 90 51.658 90 z" style="stroke: none; stroke-width: 1; stroke-dasharray: none; stroke-linecap: butt; stroke-linejoin: miter; stroke-miterlimit: 10; fill: rgb(0,0,0); fill-rule: nonzero; opacity: 1;" transform=" matrix(1 0 0 1 0 0) " stroke-linecap="round" />
	<path d="M 69.077 81.54 H 42.11 c -0.552 0 -1 -0.447 -1 -1 s 0.448 -1 1 -1 h 26.967 c 3.238 0 5.873 -2.635 5.873 -5.873 V 56.806 c 0 -0.553 0.447 -1 1 -1 s 1 0.447 1 1 v 16.861 C 76.95 78.008 73.418 81.54 69.077 81.54 z" style="stroke: none; stroke-width: 1; stroke-dasharray: none; stroke-linecap: butt; stroke-linejoin: miter; stroke-miterlimit: 10; fill: rgb(0,0,0); fill-rule: nonzero; opacity: 1;" transform=" matrix(1 0 0 1 0 0) " stroke-linecap="round" />
	<path d="M 57.97 27.77 c -1.342 0 -2.546 -0.772 -3.163 -1.964 c -0.123 -0.238 -0.252 -0.474 -0.387 -0.708 c -0.135 -0.234 -0.275 -0.464 -0.419 -0.689 c -0.724 -1.13 -0.791 -2.559 -0.12 -3.721 v 0 c 0.975 -1.689 0.396 -3.848 -1.292 -4.823 l -4.676 -2.7 c -1.689 -0.975 -3.848 -0.396 -4.823 1.292 l -0.001 0.002 c -0.661 1.145 -1.907 1.821 -3.228 1.756 c -0.574 -0.028 -1.151 -0.028 -1.727 0 c -1.319 0.064 -2.562 -0.613 -3.222 -1.756 l -0.001 -0.001 c -0.975 -1.689 -3.134 -2.267 -4.823 -1.292 l -4.676 2.7 c -1.689 0.975 -2.267 3.134 -1.292 4.823 l 0.001 0.001 c 0.66 1.143 0.625 2.558 -0.09 3.668 c -0.313 0.486 -0.601 0.985 -0.864 1.496 c -0.605 1.176 -1.812 1.917 -3.135 1.917 H 20.03 c -1.95 0 -3.53 1.581 -3.53 3.53 v 5.4 c 0 1.95 1.581 3.53 3.53 3.53 v 0 c 1.342 0 2.546 0.772 3.163 1.964 c 0.123 0.238 0.252 0.474 0.387 0.708 s 0.275 0.464 0.419 0.689 c 0.724 1.13 0.791 2.559 0.12 3.721 c -0.975 1.689 -0.396 3.848 1.292 4.823 l 4.676 2.7 c 1.689 0.975 3.848 0.396 4.823 -1.292 l 0.001 -0.002 c 0.661 -1.145 1.907 -1.821 3.228 -1.756 c 0.574 0.028 1.151 0.028 1.727 0 c 1.319 -0.064 2.562 0.613 3.222 1.756 l 0.001 0.001 c 0.975 1.689 3.134 2.267 4.823 1.292 l 4.676 -2.7 c 1.689 -0.975 2.267 -3.134 1.292 -4.823 l -0.001 -0.001 c -0.66 -1.143 -0.625 -2.558 0.09 -3.668 c 0.313 -0.486 0.601 -0.985 0.864 -1.496 c 0.605 -1.176 1.812 -1.917 3.135 -1.917 h 0.002 c 1.95 0 3.53 -1.581 3.53 -3.53 l 0 -5.4 C 61.5 29.35 59.919 27.77 57.97 27.77 z M 39 44.5 c -5.79 0 -10.5 -4.71 -10.5 -10.5 c 0 -5.79 4.71 -10.5 10.5 -10.5 S 49.5 28.21 49.5 34 C 49.5 39.79 44.789 44.5 39 44.5 z" style="stroke: none; stroke-width: 1; stroke-dasharray: none; stroke-linecap: butt; stroke-linejoin: miter; stroke-miterlimit: 10; fill: rgb(186,66,66); fill-rule: nonzero; opacity: 1;" transform=" matrix(1 0 0 1 0 0) " stroke-linecap="round" />
	<path d="M 46.155 56.308 c -1.568 0 -3.094 -0.813 -3.932 -2.265 c -0.475 -0.823 -1.374 -1.3 -2.307 -1.258 c -0.608 0.029 -1.221 0.029 -1.824 0 c -0.941 -0.046 -1.839 0.436 -2.314 1.257 c -1.249 2.164 -4.026 2.908 -6.19 1.66 l -4.676 -2.7 c -1.048 -0.605 -1.797 -1.582 -2.111 -2.751 c -0.313 -1.169 -0.152 -2.39 0.453 -3.438 c 0.475 -0.822 0.438 -1.85 -0.095 -2.682 c -0.153 -0.239 -0.301 -0.481 -0.444 -0.729 c -0.143 -0.248 -0.279 -0.498 -0.409 -0.749 c -0.454 -0.878 -1.325 -1.423 -2.274 -1.423 c -2.498 0 -4.53 -2.033 -4.53 -4.531 V 31.3 c 0 -2.498 2.032 -4.531 4.53 -4.531 c 0.951 0 1.812 -0.526 2.247 -1.374 c 0.277 -0.538 0.583 -1.07 0.912 -1.581 c 0.515 -0.799 0.539 -1.805 0.065 -2.627 c -0.605 -1.048 -0.767 -2.27 -0.454 -3.438 c 0.313 -1.169 1.063 -2.146 2.111 -2.751 l 4.676 -2.7 c 1.047 -0.605 2.269 -0.766 3.438 -0.453 s 2.146 1.063 2.751 2.111 c 0.474 0.822 1.351 1.305 2.308 1.259 c 0.601 -0.03 1.216 -0.029 1.824 0 c 0.956 0.055 1.84 -0.435 2.313 -1.257 c 0.606 -1.05 1.583 -1.799 2.752 -2.113 c 1.169 -0.313 2.389 -0.152 3.438 0.453 l 4.676 2.7 c 1.048 0.605 1.798 1.583 2.111 2.751 c 0.313 1.169 0.152 2.39 -0.453 3.438 c -0.475 0.821 -0.438 1.849 0.096 2.681 c 0.152 0.238 0.3 0.48 0.443 0.728 c 0.144 0.249 0.279 0.498 0.409 0.748 c 0.455 0.879 1.327 1.425 2.275 1.425 c 2.498 0 4.53 2.032 4.53 4.53 V 36.7 c 0 2.498 -2.032 4.53 -4.53 4.531 c 0 0 0 0 -0.001 0 c -0.95 0 -1.811 0.526 -2.246 1.375 c -0.277 0.539 -0.584 1.07 -0.912 1.58 c -0.515 0.799 -0.539 1.806 -0.064 2.627 c 0.605 1.048 0.766 2.27 0.453 3.438 c -0.313 1.169 -1.063 2.146 -2.111 2.751 l -4.676 2.7 C 47.7 56.112 46.923 56.308 46.155 56.308 z M 40.044 50.782 c 1.612 0 3.097 0.851 3.91 2.26 c 0.338 0.586 0.884 1.005 1.538 1.18 c 0.651 0.176 1.334 0.086 1.92 -0.252 l 4.676 -2.7 c 0.585 -0.338 1.004 -0.884 1.179 -1.536 c 0.176 -0.652 0.086 -1.335 -0.253 -1.92 c -0.851 -1.475 -0.807 -3.28 0.115 -4.711 c 0.293 -0.456 0.567 -0.931 0.814 -1.412 c 0.78 -1.517 2.321 -2.46 4.023 -2.46 h 0.001 c 1.396 0 2.532 -1.136 2.532 -2.531 V 31.3 c 0 -1.395 -1.135 -2.53 -2.53 -2.53 c -1.699 0 -3.251 -0.96 -4.051 -2.505 c -0.116 -0.224 -0.238 -0.447 -0.365 -0.668 c -0.127 -0.219 -0.259 -0.436 -0.396 -0.649 c -0.938 -1.465 -0.993 -3.29 -0.144 -4.761 c 0.697 -1.208 0.281 -2.758 -0.927 -3.456 l -4.676 -2.7 c -0.584 -0.338 -1.264 -0.428 -1.92 -0.253 c -0.653 0.175 -1.198 0.593 -1.536 1.179 c -0.852 1.476 -2.426 2.338 -4.144 2.257 c -0.544 -0.026 -1.092 -0.026 -1.63 0 c -1.684 0.085 -3.286 -0.782 -4.137 -2.256 c -0.338 -0.586 -0.884 -1.005 -1.537 -1.18 c -0.649 -0.175 -1.333 -0.085 -1.92 0.253 l -4.676 2.7 c -0.585 0.338 -1.004 0.884 -1.179 1.537 c -0.175 0.653 -0.085 1.334 0.253 1.92 c 0.851 1.474 0.807 3.279 -0.115 4.71 c -0.293 0.456 -0.567 0.931 -0.814 1.412 c -0.78 1.518 -2.322 2.46 -4.024 2.46 c -1.396 0 -2.532 1.135 -2.532 2.531 V 36.7 c 0 1.396 1.135 2.531 2.53 2.531 c 1.7 0 3.252 0.96 4.051 2.505 c 0.116 0.224 0.238 0.447 0.365 0.668 c 0.127 0.22 0.259 0.437 0.396 0.649 c 0.938 1.464 0.994 3.289 0.144 4.761 c -0.338 0.585 -0.428 1.268 -0.253 1.92 c 0.175 0.653 0.593 1.198 1.179 1.536 l 4.676 2.7 c 1.208 0.696 2.759 0.282 3.457 -0.927 c 0.852 -1.475 2.436 -2.349 4.144 -2.256 c 0.539 0.025 1.088 0.025 1.631 0 C 39.895 50.783 39.97 50.782 40.044 50.782 z" style="stroke: none; stroke-width: 1; stroke-dasharray: none; stroke-linecap: butt; stroke-linejoin: miter; stroke-miterlimit: 10; fill: rgb(0,0,0); fill-rule: nonzero; opacity: 1;" transform=" matrix(1 0 0 1 0 0) " stroke-linecap="round" />
	<path d="M 39 45.5 c -6.341 0 -11.5 -5.159 -11.5 -11.5 S 32.658 22.5 39 22.5 S 50.5 27.659 50.5 34 S 45.341 45.5 39 45.5 z M 39 24.5 c -5.238 0 -9.5 4.262 -9.5 9.5 s 4.262 9.5 9.5 9.5 c 5.239 0 9.5 -4.262 9.5 -9.5 S 44.238 24.5 39 24.5 z" style="stroke: none; stroke-width: 1; stroke-dasharray: none; stroke-linecap: butt; stroke-linejoin: miter; stroke-miterlimit: 10; fill: rgb(0,0,0); fill-rule: nonzero; opacity: 1;" transform=" matrix(1 0 0 1 0 0) " stroke-linecap="round" />
</g>
</g>
</svg>