<svg xmlns="http://www.w3.org/2000/svg" xmlns:xlink="http://www.w3.org/1999/xlink" version="1.1" width="256" height="256" viewBox="0 0 256 256" xml:space="preserve">
<desc>Created with Fabric.js 1.7.22</desc>
<defs>
</defs>
<g transform="translate(128 128) scale(0.72 0.72)" style="">
	<g style="stroke: none; stroke-width: 0; stroke-dasharray: none; stroke-linecap: butt; stroke-linejoin: miter; stroke-miterlimit: 10; fill: none; fill-rule: nonzero; opacity: 1;" transform="translate(-175.05 -175.05) scale(3.89 3.89)" >
	<path d="M 32.333 77.333 c -1.792 0 -3.583 -0.684 -4.95 -2.05 L 2.05 49.95 c -2.734 -2.734 -2.734 -7.166 0 -9.9 c 2.733 -2.733 7.166 -2.733 9.899 0 l 20.384 20.383 L 78.05 14.717 c 2.734 -2.733 7.166 -2.733 9.9 0 c 2.733 2.733 2.733 7.166 0 9.899 L 37.283 75.283 C 35.917 76.649 34.125 77.333 32.333 77.333 z" style="stroke: none; stroke-width: 1; stroke-dasharray: none; stroke-linecap: butt; stroke-linejoin: miter; stroke-miterlimit: 10; fill: rgb(0,0,0); fill-rule: nonzero; opacity: 1;" transform=" matrix(1 0 0 1 0 0) " stroke-linecap="round" />
</g>
</g>
</svg>