<svg xmlns="http://www.w3.org/2000/svg" xmlns:xlink="http://www.w3.org/1999/xlink" version="1.1" width="256" height="256" viewBox="0 0 256 256" xml:space="preserve">
<desc>Created with Fabric.js 1.7.22</desc>
<defs>
</defs>
<g transform="translate(128 128) scale(0.72 0.72)" style="">
	<g style="stroke: none; stroke-width: 0; stroke-dasharray: none; stroke-linecap: butt; stroke-linejoin: miter; stroke-miterlimit: 10; fill: none; fill-rule: nonzero; opacity: 1;" transform="translate(-175.05 -175.05) scale(3.89 3.89)" >
	<path d="M 85 90 H 5 c -2.761 0 -5 -2.238 -5 -5 V 5 c 0 -2.761 2.239 -5 5 -5 h 80 c 2.762 0 5 2.239 5 5 v 80 C 90 87.762 87.762 90 85 90 z" style="stroke: none; stroke-width: 1; stroke-dasharray: none; stroke-linecap: butt; stroke-linejoin: miter; stroke-miterlimit: 10; fill: rgb(236,0,0); fill-rule: nonzero; opacity: 1;" transform=" matrix(1 0 0 1 0 0) " stroke-linecap="round" />
	<path d="M 25.914 69.086 c -1.28 0 -2.559 -0.488 -3.536 -1.465 c -1.953 -1.952 -1.953 -5.118 0 -7.07 l 38.172 -38.172 c 1.951 -1.952 5.119 -1.952 7.07 0 c 1.953 1.953 1.953 5.119 0 7.071 L 29.45 67.621 C 28.473 68.598 27.194 69.086 25.914 69.086 z" style="stroke: none; stroke-width: 1; stroke-dasharray: none; stroke-linecap: butt; stroke-linejoin: miter; stroke-miterlimit: 10; fill: rgb(255,255,255); fill-rule: nonzero; opacity: 1;" transform=" matrix(1 0 0 1 0 0) " stroke-linecap="round" />
	<path d="M 64.086 69.086 c -1.279 0 -2.56 -0.488 -3.535 -1.465 L 22.378 29.45 c -1.953 -1.953 -1.953 -5.119 0 -7.071 c 1.953 -1.952 5.118 -1.952 7.071 0 l 38.171 38.172 c 1.953 1.952 1.953 5.118 0 7.07 C 66.646 68.598 65.365 69.086 64.086 69.086 z" style="stroke: none; stroke-width: 1; stroke-dasharray: none; stroke-linecap: butt; stroke-linejoin: miter; stroke-miterlimit: 10; fill: rgb(255,255,255); fill-rule: nonzero; opacity: 1;" transform=" matrix(1 0 0 1 0 0) " stroke-linecap="round" />
</g>
</g>
</svg>