<svg xmlns="http://www.w3.org/2000/svg" xmlns:xlink="http://www.w3.org/1999/xlink" version="1.1" width="256" height="256" viewBox="0 0 256 256" xml:space="preserve">
<desc>Created with Fabric.js 1.7.22</desc>
<defs>
</defs>
<g transform="translate(128 128) scale(0.72 0.72)" style="">
	<g style="stroke: none; stroke-width: 0; stroke-dasharray: none; stroke-linecap: butt; stroke-linejoin: miter; stroke-miterlimit: 10; fill: none; fill-rule: nonzero; opacity: 1;" transform="translate(-175.05 -175.05) scale(3.89 3.89)" >
	<path d="M 21.607 89.348 L 0.652 68.393 c -0.869 -0.869 -0.869 -2.279 0 -3.149 L 65.244 0.652 c 0.869 -0.869 2.279 -0.869 3.149 0 l 20.955 20.955 c 0.869 0.869 0.869 2.279 0 3.149 L 24.756 89.348 C 23.887 90.217 22.477 90.217 21.607 89.348 z" style="stroke: none; stroke-width: 1; stroke-dasharray: none; stroke-linecap: butt; stroke-linejoin: miter; stroke-miterlimit: 10; fill: rgb(0,0,0); fill-rule: nonzero; opacity: 1;" transform=" matrix(1 0 0 1 0 0) " stroke-linecap="round" />
	<path d="M 89.348 68.393 L 68.393 89.348 c -0.869 0.869 -2.279 0.869 -3.149 0 L 0.652 24.756 c -0.869 -0.869 -0.869 -2.279 0 -3.149 L 21.607 0.652 c 0.869 -0.869 2.279 -0.869 3.149 0 l 64.592 64.592 C 90.217 66.113 90.217 67.523 89.348 68.393 z" style="stroke: none; stroke-width: 1; stroke-dasharray: none; stroke-linecap: butt; stroke-linejoin: miter; stroke-miterlimit: 10; fill: rgb(0,0,0); fill-rule: nonzero; opacity: 1;" transform=" matrix(1 0 0 1 0 0) " stroke-linecap="round" />
</g>
</g>
</svg>