<svg xmlns="http://www.w3.org/2000/svg" xmlns:xlink="http://www.w3.org/1999/xlink" version="1.1" width="256" height="256" viewBox="0 0 256 256" xml:space="preserve">
<desc>Created with Fabric.js 1.7.22</desc>
<defs>
</defs>
<g transform="translate(128 128) scale(0.72 0.72)" style="">
	<g style="stroke: none; stroke-width: 0; stroke-dasharray: none; stroke-linecap: butt; stroke-linejoin: miter; stroke-miterlimit: 10; fill: none; fill-rule: nonzero; opacity: 1;" transform="translate(-175.05 -175.05) scale(3.89 3.89)" >
	<path d="M 16.42 16.42 C -2.055 34.896 -4.235 62.67 11.55 78.455 c 8.739 8.739 21.15 11.967 33.625 9.975 c 6.29 -1.004 9.934 -7.437 7.955 -13.491 c -2.144 -6.562 -1.006 -13.535 3.634 -18.175 s 11.613 -5.778 18.175 -3.634 c 6.054 1.978 12.487 -1.666 13.491 -7.955 c 1.992 -12.475 -1.236 -24.886 -9.975 -33.625 C 62.67 -4.235 34.896 -2.055 16.42 16.42 z" style="stroke: none; stroke-width: 1; stroke-dasharray: none; stroke-linecap: butt; stroke-linejoin: miter; stroke-miterlimit: 10; fill: rgb(216,216,216); fill-rule: nonzero; opacity: 1;" transform=" matrix(1 0 0 1 0 0) " stroke-linecap="round" />
	<circle cx="21.969" cy="40.799" r="7.009" style="stroke: none; stroke-width: 1; stroke-dasharray: none; stroke-linecap: butt; stroke-linejoin: miter; stroke-miterlimit: 10; fill: rgb(255,224,125); fill-rule: nonzero; opacity: 1;" transform="  matrix(1 0 0 1 0 0) "/>
	<circle cx="40.799" cy="21.969" r="7.009" style="stroke: none; stroke-width: 1; stroke-dasharray: none; stroke-linecap: butt; stroke-linejoin: miter; stroke-miterlimit: 10; fill: rgb(126,178,249); fill-rule: nonzero; opacity: 1;" transform="  matrix(1 0 0 1 0 0) "/>
	<circle cx="65.089" cy="25.439" r="7.009" style="stroke: none; stroke-width: 1; stroke-dasharray: none; stroke-linecap: butt; stroke-linejoin: miter; stroke-miterlimit: 10; fill: rgb(226,128,134); fill-rule: nonzero; opacity: 1;" transform="  matrix(1 0 0 1 0 0) "/>
	<circle cx="25.439" cy="65.089" r="7.009" style="stroke: none; stroke-width: 1; stroke-dasharray: none; stroke-linecap: butt; stroke-linejoin: miter; stroke-miterlimit: 10; fill: rgb(149,214,164); fill-rule: nonzero; opacity: 1;" transform="  matrix(1 0 0 1 0 0) "/>
	<path d="M 38.104 89.999 c -10.539 0 -20.209 -3.786 -27.261 -10.837 C 2.998 71.318 -0.803 60.382 0.14 48.369 C 1.079 36.414 6.61 24.817 15.713 15.713 S 36.414 1.079 48.369 0.14 c 12.012 -0.942 22.949 2.857 30.794 10.703 c 8.637 8.639 12.376 21.21 10.255 34.49 c -0.517 3.235 -2.339 5.957 -5.132 7.663 c -2.875 1.757 -6.397 2.151 -9.657 1.085 c -6.402 -2.09 -12.975 -0.791 -17.158 3.391 c -4.182 4.182 -5.482 10.756 -3.391 17.158 c 1.066 3.263 0.671 6.782 -1.085 9.657 c -1.706 2.793 -4.428 4.615 -7.663 5.132 C 42.893 89.807 40.475 89.999 38.104 89.999 z M 51.897 2.018 c -12.023 0 -24.791 5.13 -34.77 15.109 c -18.056 18.056 -20.241 45.251 -4.87 60.621 c 8.18 8.179 20.123 11.711 32.761 9.694 c 2.648 -0.423 4.876 -1.914 6.271 -4.199 c 1.45 -2.375 1.775 -5.289 0.892 -7.994 c -2.327 -7.121 -0.842 -14.475 3.877 -19.193 c 4.719 -4.719 12.072 -6.203 19.193 -3.877 c 2.708 0.885 5.619 0.559 7.994 -0.892 c 2.285 -1.395 3.776 -3.623 4.199 -6.271 c 2.018 -12.64 -1.515 -24.581 -9.694 -32.761 C 70.873 5.381 61.628 2.018 51.897 2.018 z" style="stroke: none; stroke-width: 1; stroke-dasharray: none; stroke-linecap: butt; stroke-linejoin: miter; stroke-miterlimit: 10; fill: rgb(0,0,0); fill-rule: nonzero; opacity: 1;" transform=" matrix(1 0 0 1 0 0) " stroke-linecap="round" />
	<path d="M 21.969 48.807 c -2.051 0 -4.101 -0.78 -5.663 -2.341 c -3.122 -3.123 -3.122 -8.204 0 -11.327 c 3.123 -3.121 8.203 -3.121 11.326 0 l 0 0 c 3.123 3.122 3.123 8.204 0 11.327 C 26.071 48.026 24.02 48.807 21.969 48.807 z M 21.969 34.796 c -1.539 0 -3.078 0.585 -4.249 1.757 c -2.342 2.343 -2.342 6.155 0 8.498 c 2.343 2.343 6.155 2.342 8.498 0 c 2.343 -2.343 2.343 -6.155 0 -8.498 l 0 0 C 25.047 35.382 23.508 34.796 21.969 34.796 z" style="stroke: none; stroke-width: 1; stroke-dasharray: none; stroke-linecap: butt; stroke-linejoin: miter; stroke-miterlimit: 10; fill: rgb(0,0,0); fill-rule: nonzero; opacity: 1;" transform=" matrix(1 0 0 1 0 0) " stroke-linecap="round" />
	<path d="M 40.802 29.975 c -2.051 0 -4.101 -0.781 -5.663 -2.342 c -3.122 -3.122 -3.122 -8.204 0 -11.326 c 3.123 -3.121 8.203 -3.122 11.327 0 l 0 0 c 3.122 3.122 3.122 8.204 0 11.326 C 44.904 29.194 42.853 29.975 40.802 29.975 z M 40.802 15.963 c -1.539 0 -3.078 0.585 -4.249 1.757 c -2.342 2.343 -2.342 6.155 0 8.498 c 2.343 2.343 6.155 2.343 8.498 0 c 2.342 -2.343 2.342 -6.155 0 -8.498 C 43.88 16.549 42.341 15.963 40.802 15.963 z" style="stroke: none; stroke-width: 1; stroke-dasharray: none; stroke-linecap: butt; stroke-linejoin: miter; stroke-miterlimit: 10; fill: rgb(0,0,0); fill-rule: nonzero; opacity: 1;" transform=" matrix(1 0 0 1 0 0) " stroke-linecap="round" />
	<path d="M 65.086 33.444 c -2.051 0 -4.101 -0.781 -5.663 -2.342 c -1.513 -1.513 -2.346 -3.524 -2.346 -5.663 c 0 -2.14 0.833 -4.151 2.346 -5.663 c 3.125 -3.123 8.206 -3.122 11.327 0 l 0 0 c 3.122 3.122 3.122 8.203 0 11.326 C 69.189 32.663 67.138 33.444 65.086 33.444 z M 65.087 19.433 c -1.539 0 -3.078 0.586 -4.25 1.757 c -1.135 1.135 -1.76 2.643 -1.76 4.249 c 0 1.605 0.625 3.114 1.76 4.249 c 2.343 2.342 6.154 2.344 8.499 0 c 2.342 -2.343 2.342 -6.155 0 -8.498 C 68.164 20.018 66.625 19.433 65.087 19.433 z" style="stroke: none; stroke-width: 1; stroke-dasharray: none; stroke-linecap: butt; stroke-linejoin: miter; stroke-miterlimit: 10; fill: rgb(0,0,0); fill-rule: nonzero; opacity: 1;" transform=" matrix(1 0 0 1 0 0) " stroke-linecap="round" />
	<path d="M 25.439 73.092 c -2.051 0 -4.102 -0.78 -5.663 -2.342 c -3.123 -3.123 -3.123 -8.204 0 -11.327 c 1.512 -1.513 3.523 -2.346 5.663 -2.346 c 2.139 0 4.15 0.833 5.663 2.346 c 3.123 3.123 3.123 8.204 0 11.327 C 29.54 72.311 27.489 73.092 25.439 73.092 z M 25.439 59.078 c -1.605 0 -3.114 0.625 -4.249 1.76 c -2.343 2.343 -2.343 6.156 0 8.499 c 2.343 2.342 6.154 2.342 8.498 0 c 2.343 -2.343 2.343 -6.156 0 -8.499 C 28.552 59.703 27.044 59.078 25.439 59.078 z" style="stroke: none; stroke-width: 1; stroke-dasharray: none; stroke-linecap: butt; stroke-linejoin: miter; stroke-miterlimit: 10; fill: rgb(0,0,0); fill-rule: nonzero; opacity: 1;" transform=" matrix(1 0 0 1 0 0) " stroke-linecap="round" />
	<path d="M 39.994 41.855 c 5.934 0.028 13.188 1.3 20.144 7.856 c 3.926 3.7 4.288 8.836 1.127 12.19 s -8.309 3.297 -12.235 -0.403 C 42.073 54.943 40.373 47.777 39.994 41.855 z" style="stroke: none; stroke-width: 1; stroke-dasharray: none; stroke-linecap: butt; stroke-linejoin: miter; stroke-miterlimit: 10; fill: rgb(242,242,242); fill-rule: nonzero; opacity: 1;" transform=" matrix(1 0 0 1 0 0) " stroke-linecap="round" />
	<path d="M 61.265 61.901 c -1.277 1.355 -2.879 2.143 -4.593 2.369 l 24.11 22.721 c 1.959 1.846 5.044 1.755 6.89 -0.204 c 1.846 -1.959 1.755 -5.044 -0.204 -6.89 l -24.11 -22.721 C 63.233 58.9 62.541 60.546 61.265 61.901 z" style="stroke: none; stroke-width: 1; stroke-dasharray: none; stroke-linecap: butt; stroke-linejoin: miter; stroke-miterlimit: 10; fill: rgb(204,153,106); fill-rule: nonzero; opacity: 1;" transform=" matrix(1 0 0 1 0 0) " stroke-linecap="round" />
	<path d="M 55.658 65.365 c -2.496 0 -5.098 -1.051 -7.314 -3.14 c -7.676 -7.233 -9.011 -15.053 -9.348 -20.307 l -0.068 -1.069 l 1.071 0.005 c 5.263 0.025 13.148 0.894 20.825 8.128 c 4.293 4.046 4.784 9.767 1.169 13.603 C 60.244 64.443 57.998 65.365 55.658 65.365 z M 41.075 42.874 c 0.439 4.869 1.988 11.628 8.64 17.897 c 3.449 3.249 8.001 3.437 10.823 0.444 c 2.82 -2.993 2.364 -7.526 -1.085 -10.777 C 52.799 44.169 45.961 43.024 41.075 42.874 z" style="stroke: none; stroke-width: 1; stroke-dasharray: none; stroke-linecap: butt; stroke-linejoin: miter; stroke-miterlimit: 10; fill: rgb(0,0,0); fill-rule: nonzero; opacity: 1;" transform=" matrix(1 0 0 1 0 0) " stroke-linecap="round" />
	<path d="M 84.12 89.318 c -1.503 0 -2.926 -0.564 -4.023 -1.6 L 54.456 63.554 l 2.086 -0.275 c 1.532 -0.203 2.914 -0.917 3.996 -2.064 c 1.081 -1.146 1.711 -2.568 1.823 -4.11 l 0.152 -2.099 l 25.64 24.164 c 1.143 1.075 1.797 2.532 1.843 4.1 c 0.047 1.568 -0.52 3.06 -1.597 4.202 c -1.075 1.143 -2.532 1.797 -4.1 1.843 C 84.239 89.317 84.179 89.318 84.12 89.318 z M 58.687 64.794 l 22.78 21.469 c 0.753 0.71 1.714 1.103 2.772 1.053 c 1.034 -0.03 1.994 -0.462 2.704 -1.215 s 1.084 -1.737 1.053 -2.772 c -0.03 -1.034 -0.462 -1.994 -1.215 -2.704 L 64 59.157 c -0.387 1.266 -1.064 2.43 -2.008 3.43 v 0.001 C 61.049 63.587 59.927 64.333 58.687 64.794 z" style="stroke: none; stroke-width: 1; stroke-dasharray: none; stroke-linecap: butt; stroke-linejoin: miter; stroke-miterlimit: 10; fill: rgb(0,0,0); fill-rule: nonzero; opacity: 1;" transform=" matrix(1 0 0 1 0 0) " stroke-linecap="round" />
</g>
</g>
</svg>