<svg xmlns="http://www.w3.org/2000/svg" xmlns:xlink="http://www.w3.org/1999/xlink" version="1.1" width="256" height="256" viewBox="0 0 256 256" xml:space="preserve">
<desc>Created with Fabric.js 1.7.22</desc>
<defs>
</defs>
<g transform="translate(128 128) scale(0.72 0.72)" style="">
	<g style="stroke: none; stroke-width: 0; stroke-dasharray: none; stroke-linecap: butt; stroke-linejoin: miter; stroke-miterlimit: 10; fill: none; fill-rule: nonzero; opacity: 1;" transform="translate(-175.05 -175.05) scale(3.89 3.89)" >
	<path d="M 54.304 76.566 c -5.58 0 -10.061 -4.704 -9.694 -10.362 c 0.334 -5.164 4.852 -9.068 10.027 -9.068 l 22.333 0 c 6.605 0 12.018 -5.404 12.029 -12.009 L 89 45 C 89 22.511 69.301 4.28 45 4.28 C 20.699 4.28 1 22.511 1 45 s 19.699 40.72 44 40.72 c 7.12 0 12.707 -1.166 17.249 -3.471 c 3.203 -1.625 1.678 -6.545 -1.881 -6.063 C 58.499 76.439 56.521 76.566 54.304 76.566 z" style="stroke: none; stroke-width: 1; stroke-dasharray: none; stroke-linecap: butt; stroke-linejoin: miter; stroke-miterlimit: 10; fill: rgb(203,172,166); fill-rule: nonzero; opacity: 1;" transform=" matrix(1 0 0 1 0 0) " stroke-linecap="round" />
	<circle cx="44.999" cy="21.329" r="7.299" style="stroke: none; stroke-width: 1; stroke-dasharray: none; stroke-linecap: butt; stroke-linejoin: miter; stroke-miterlimit: 10; fill: rgb(255,224,125); fill-rule: nonzero; opacity: 1;" transform="  matrix(1 0 0 1 0 0) "/>
	<circle cx="68.74900000000001" cy="34.189" r="7.299" style="stroke: none; stroke-width: 1; stroke-dasharray: none; stroke-linecap: butt; stroke-linejoin: miter; stroke-miterlimit: 10; fill: rgb(143,206,158); fill-rule: nonzero; opacity: 1;" transform="  matrix(1 0 0 1 0 0) "/>
	<circle cx="22.249" cy="34.189" r="7.299" style="stroke: none; stroke-width: 1; stroke-dasharray: none; stroke-linecap: butt; stroke-linejoin: miter; stroke-miterlimit: 10; fill: rgb(121,170,238); fill-rule: nonzero; opacity: 1;" transform="  matrix(1 0 0 1 0 0) "/>
	<circle cx="24.219" cy="59.919" r="7.299" style="stroke: none; stroke-width: 1; stroke-dasharray: none; stroke-linecap: butt; stroke-linejoin: miter; stroke-miterlimit: 10; fill: rgb(226,128,134); fill-rule: nonzero; opacity: 1;" transform="  matrix(1 0 0 1 0 0) "/>
	<path d="M 45 86.721 C 20.187 86.721 0 68.005 0 45 C 0 21.996 20.187 3.28 45 3.28 c 24.813 0 45 18.716 45 41.72 v 0.127 c -0.012 7.174 -5.856 13.009 -13.029 13.009 H 54.637 c -4.768 0 -8.733 3.572 -9.028 8.133 c -0.158 2.442 0.671 4.766 2.336 6.541 c 1.666 1.778 3.925 2.757 6.36 2.757 c 2.141 0 4.08 -0.122 5.93 -0.372 c 2.413 -0.324 4.034 1.236 4.563 2.931 c 0.529 1.699 0.087 3.908 -2.096 5.016 C 57.956 85.55 52.166 86.721 45 86.721 z M 45 5.28 C 21.29 5.28 2 23.098 2 45 c 0 21.902 19.29 39.721 43 39.721 c 6.844 0 12.338 -1.101 16.796 -3.363 c 1.22 -0.619 1.351 -1.808 1.092 -2.638 c -0.257 -0.826 -1.025 -1.727 -2.386 -1.543 c -1.938 0.262 -3.966 0.39 -6.197 0.39 c -2.951 0 -5.801 -1.235 -7.819 -3.389 c -2.047 -2.184 -3.067 -5.038 -2.873 -8.038 c 0.364 -5.609 5.206 -10.004 11.024 -10.004 h 22.334 c 6.071 0 11.02 -4.939 11.029 -11.01 V 45 C 88 23.098 68.71 5.28 45 5.28 z" style="stroke: none; stroke-width: 1; stroke-dasharray: none; stroke-linecap: butt; stroke-linejoin: miter; stroke-miterlimit: 10; fill: rgb(0,0,0); fill-rule: nonzero; opacity: 1;" transform=" matrix(1 0 0 1 0 0) " stroke-linecap="round" />
	<path d="M 45 29.628 c -4.576 0 -8.299 -3.723 -8.299 -8.299 S 40.424 13.03 45 13.03 s 8.299 3.723 8.299 8.299 S 49.576 29.628 45 29.628 z M 45 15.03 c -3.473 0 -6.299 2.826 -6.299 6.299 c 0 3.474 2.826 6.299 6.299 6.299 c 3.474 0 6.299 -2.826 6.299 -6.299 C 51.299 17.856 48.474 15.03 45 15.03 z" style="stroke: none; stroke-width: 1; stroke-dasharray: none; stroke-linecap: butt; stroke-linejoin: miter; stroke-miterlimit: 10; fill: rgb(0,0,0); fill-rule: nonzero; opacity: 1;" transform=" matrix(1 0 0 1 0 0) " stroke-linecap="round" />
	<path d="M 68.746 42.491 c -4.576 0 -8.299 -3.723 -8.299 -8.299 s 3.723 -8.299 8.299 -8.299 s 8.299 3.723 8.299 8.299 S 73.322 42.491 68.746 42.491 z M 68.746 27.893 c -3.474 0 -6.299 2.826 -6.299 6.299 c 0 3.474 2.825 6.299 6.299 6.299 s 6.299 -2.826 6.299 -6.299 C 75.045 30.718 72.22 27.893 68.746 27.893 z" style="stroke: none; stroke-width: 1; stroke-dasharray: none; stroke-linecap: butt; stroke-linejoin: miter; stroke-miterlimit: 10; fill: rgb(0,0,0); fill-rule: nonzero; opacity: 1;" transform=" matrix(1 0 0 1 0 0) " stroke-linecap="round" />
	<path d="M 22.244 42.491 c -4.576 0 -8.299 -3.723 -8.299 -8.299 s 3.723 -8.299 8.299 -8.299 s 8.299 3.723 8.299 8.299 S 26.82 42.491 22.244 42.491 z M 22.244 27.893 c -3.473 0 -6.299 2.826 -6.299 6.299 c 0 3.474 2.826 6.299 6.299 6.299 s 6.299 -2.826 6.299 -6.299 C 28.542 30.718 25.717 27.893 22.244 27.893 z" style="stroke: none; stroke-width: 1; stroke-dasharray: none; stroke-linecap: butt; stroke-linejoin: miter; stroke-miterlimit: 10; fill: rgb(0,0,0); fill-rule: nonzero; opacity: 1;" transform=" matrix(1 0 0 1 0 0) " stroke-linecap="round" />
	<path d="M 24.222 68.215 c -4.576 0 -8.299 -3.723 -8.299 -8.299 s 3.723 -8.299 8.299 -8.299 s 8.299 3.723 8.299 8.299 S 28.798 68.215 24.222 68.215 z M 24.222 53.617 c -3.473 0 -6.299 2.825 -6.299 6.299 s 2.826 6.299 6.299 6.299 c 3.474 0 6.299 -2.825 6.299 -6.299 S 27.696 53.617 24.222 53.617 z" style="stroke: none; stroke-width: 1; stroke-dasharray: none; stroke-linecap: butt; stroke-linejoin: miter; stroke-miterlimit: 10; fill: rgb(0,0,0); fill-rule: nonzero; opacity: 1;" transform=" matrix(1 0 0 1 0 0) " stroke-linecap="round" />
</g>
</g>
</svg>