<svg xmlns="http://www.w3.org/2000/svg" xmlns:xlink="http://www.w3.org/1999/xlink" version="1.1" width="256" height="256" viewBox="0 0 256 256" xml:space="preserve">
<desc>Created with Fabric.js 1.7.22</desc>
<defs>
</defs>
<g transform="translate(128 128) scale(0.72 0.72)" style="">
	<g style="stroke: none; stroke-width: 0; stroke-dasharray: none; stroke-linecap: butt; stroke-linejoin: miter; stroke-miterlimit: 10; fill: none; fill-rule: nonzero; opacity: 1;" transform="translate(-175.05 -175.05) scale(3.89 3.89)" >
	<path d="M 62.169 44.179 l 8.222 30.684 l 15.4 -4.126 c 2.309 -0.619 3.68 -2.993 3.061 -5.302 l -5.981 -22.321 c -0.619 -2.309 -2.993 -3.68 -5.302 -3.061 L 62.169 44.179 z" style="stroke: none; stroke-width: 1; stroke-dasharray: none; stroke-linecap: butt; stroke-linejoin: miter; stroke-miterlimit: 10; fill: rgb(249,177,177); fill-rule: nonzero; opacity: 1;" transform=" matrix(1 0 0 1 0 0) " stroke-linecap="round" />
	<rect x="40.6" y="52.01" rx="0" ry="0" width="31.77" height="20.27" style="stroke: none; stroke-width: 1; stroke-dasharray: none; stroke-linecap: butt; stroke-linejoin: miter; stroke-miterlimit: 10; fill: rgb(244,124,124); fill-rule: nonzero; opacity: 1;" transform=" matrix(-0.2588 -0.9659 0.9659 -0.2588 11.0823 132.7929) "/>
	<path d="M 50.809 80.11 l -19.582 5.247 L 21 88.098 c -8.473 2.27 -17.183 -2.758 -19.453 -11.231 l 0 0 c -2.27 -8.473 2.758 -17.183 11.231 -19.453 l 10.228 -2.741 l 19.582 -5.247 L 50.809 80.11 z" style="stroke: none; stroke-width: 1; stroke-dasharray: none; stroke-linecap: butt; stroke-linejoin: miter; stroke-miterlimit: 10; fill: rgb(238,97,97); fill-rule: nonzero; opacity: 1;" transform=" matrix(1 0 0 1 0 0) " stroke-linecap="round" />
	<path d="M 70.389 75.863 c -0.441 0 -0.846 -0.294 -0.965 -0.741 l -8.222 -30.684 c -0.143 -0.533 0.174 -1.082 0.707 -1.225 l 15.4 -4.126 c 1.375 -0.369 2.811 -0.18 4.044 0.532 c 1.232 0.712 2.114 1.861 2.482 3.236 l 5.981 22.321 c 0.761 2.838 -0.93 5.767 -3.769 6.527 l -15.4 4.126 C 70.562 75.852 70.475 75.863 70.389 75.863 z M 63.393 44.886 l 7.704 28.753 l 14.434 -3.867 c 1.773 -0.476 2.83 -2.305 2.354 -4.078 l -5.981 -22.321 c -0.23 -0.859 -0.78 -1.577 -1.551 -2.021 c -0.77 -0.444 -1.666 -0.562 -2.526 -0.333 L 63.393 44.886 z" style="stroke: none; stroke-width: 1; stroke-dasharray: none; stroke-linecap: butt; stroke-linejoin: miter; stroke-miterlimit: 10; fill: rgb(29,29,27); fill-rule: nonzero; opacity: 1;" transform=" matrix(1 0 0 1 0 0) " stroke-linecap="round" />
	<path d="M 50.809 81.11 c -0.174 0 -0.347 -0.046 -0.5 -0.134 c -0.229 -0.133 -0.397 -0.352 -0.466 -0.607 l -8.222 -30.684 c -0.143 -0.533 0.173 -1.082 0.707 -1.225 l 19.581 -5.247 c 0.255 -0.069 0.528 -0.033 0.759 0.1 c 0.229 0.133 0.397 0.351 0.466 0.607 l 8.222 30.684 c 0.143 0.533 -0.174 1.082 -0.707 1.225 l -19.581 5.247 C 50.983 81.099 50.896 81.11 50.809 81.11 z M 43.812 50.133 l 7.705 28.753 l 17.649 -4.729 l -7.704 -28.753 L 43.812 50.133 z" style="stroke: none; stroke-width: 1; stroke-dasharray: none; stroke-linecap: butt; stroke-linejoin: miter; stroke-miterlimit: 10; fill: rgb(29,29,27); fill-rule: nonzero; opacity: 1;" transform=" matrix(1 0 0 1 0 0) " stroke-linecap="round" />
	<path d="M 16.861 89.646 c -2.926 0 -5.812 -0.768 -8.414 -2.27 c -3.906 -2.255 -6.7 -5.895 -7.867 -10.252 c -2.409 -8.992 2.946 -18.268 11.938 -20.678 l 29.81 -7.987 c 0.254 -0.067 0.528 -0.032 0.759 0.1 c 0.229 0.133 0.397 0.352 0.466 0.607 l 8.222 30.684 c 0.068 0.256 0.033 0.529 -0.1 0.759 c -0.133 0.229 -0.352 0.397 -0.607 0.466 l -29.81 7.987 C 19.804 89.453 18.327 89.646 16.861 89.646 z M 41.88 50.651 l -28.844 7.728 C 5.11 60.503 0.388 68.681 2.512 76.607 c 1.029 3.84 3.492 7.05 6.935 9.037 c 3.444 1.988 7.455 2.518 11.294 1.487 l 28.844 -7.728 L 41.88 50.651 z" style="stroke: none; stroke-width: 1; stroke-dasharray: none; stroke-linecap: butt; stroke-linejoin: miter; stroke-miterlimit: 10; fill: rgb(29,29,27); fill-rule: nonzero; opacity: 1;" transform=" matrix(1 0 0 1 0 0) " stroke-linecap="round" />
	<path d="M 45.846 27.724 l 20.419 24.335 L 78.478 41.81 c 1.832 -1.537 2.07 -4.267 0.534 -6.099 L 64.158 18.009 c -1.537 -1.832 -4.267 -2.07 -6.099 -0.534 L 45.846 27.724 z" style="stroke: none; stroke-width: 1; stroke-dasharray: none; stroke-linecap: butt; stroke-linejoin: miter; stroke-miterlimit: 10; fill: rgb(254,240,174); fill-rule: nonzero; opacity: 1;" transform=" matrix(1 0 0 1 0 0) " stroke-linecap="round" />
	<rect x="32.41" y="36.27" rx="0" ry="0" width="31.77" height="20.27" style="stroke: none; stroke-width: 1; stroke-dasharray: none; stroke-linecap: butt; stroke-linejoin: miter; stroke-miterlimit: 10; fill: rgb(254,228,90); fill-rule: nonzero; opacity: 1;" transform=" matrix(-0.6428 -0.766 0.766 -0.6428 43.782 113.229) "/>
	<path d="M 50.736 65.089 L 35.206 78.12 l -8.112 6.806 c -6.72 5.639 -16.738 4.762 -22.377 -1.958 l 0 0 c -5.639 -6.72 -4.762 -16.738 1.958 -22.377 l 8.112 -6.806 l 15.53 -13.031 L 50.736 65.089 z" style="stroke: none; stroke-width: 1; stroke-dasharray: none; stroke-linecap: butt; stroke-linejoin: miter; stroke-miterlimit: 10; fill: rgb(254,212,2); fill-rule: nonzero; opacity: 1;" transform=" matrix(1 0 0 1 0 0) " stroke-linecap="round" />
	<path d="M 66.265 53.059 c -0.029 0 -0.058 -0.001 -0.087 -0.004 c -0.265 -0.023 -0.509 -0.15 -0.679 -0.354 L 45.08 28.366 c -0.355 -0.423 -0.3 -1.054 0.124 -1.409 L 57.417 16.71 c 1.091 -0.916 2.474 -1.349 3.89 -1.227 c 1.418 0.124 2.702 0.793 3.617 1.883 l 14.854 17.703 c 0.916 1.09 1.352 2.472 1.227 3.89 c -0.124 1.418 -0.793 2.703 -1.884 3.618 L 66.908 52.824 C 66.727 52.977 66.5 53.059 66.265 53.059 z M 47.255 27.847 L 66.388 50.65 l 11.447 -9.605 c 0.682 -0.572 1.1 -1.374 1.177 -2.26 c 0.078 -0.886 -0.194 -1.749 -0.766 -2.43 L 63.392 18.652 c -0.572 -0.681 -1.375 -1.099 -2.261 -1.176 c -0.879 -0.079 -1.748 0.194 -2.43 0.766 L 47.255 27.847 z" style="stroke: none; stroke-width: 1; stroke-dasharray: none; stroke-linecap: butt; stroke-linejoin: miter; stroke-miterlimit: 10; fill: rgb(29,29,27); fill-rule: nonzero; opacity: 1;" transform=" matrix(1 0 0 1 0 0) " stroke-linecap="round" />
	<path d="M 50.737 66.089 c -0.286 0 -0.569 -0.121 -0.767 -0.357 L 29.55 41.397 c -0.17 -0.203 -0.253 -0.465 -0.23 -0.729 c 0.023 -0.265 0.15 -0.509 0.354 -0.679 l 15.53 -13.031 c 0.203 -0.171 0.467 -0.252 0.729 -0.23 c 0.264 0.023 0.508 0.15 0.679 0.354 l 20.419 24.335 c 0.171 0.203 0.254 0.466 0.23 0.729 c -0.023 0.265 -0.15 0.509 -0.354 0.679 l -15.529 13.03 C 51.191 66.012 50.964 66.089 50.737 66.089 z M 31.725 40.878 L 50.859 63.68 l 13.997 -11.744 L 45.723 29.132 L 31.725 40.878 z" style="stroke: none; stroke-width: 1; stroke-dasharray: none; stroke-linecap: butt; stroke-linejoin: miter; stroke-miterlimit: 10; fill: rgb(29,29,27); fill-rule: nonzero; opacity: 1;" transform=" matrix(1 0 0 1 0 0) " stroke-linecap="round" />
	<path d="M 16.899 89.636 c -4.822 0 -9.612 -2.05 -12.948 -6.024 c -2.899 -3.454 -4.279 -7.831 -3.886 -12.323 c 0.393 -4.493 2.512 -8.563 5.967 -11.462 l 23.641 -19.838 c 0.423 -0.354 1.054 -0.3 1.409 0.124 l 20.419 24.334 c 0.171 0.203 0.254 0.466 0.23 0.729 c -0.023 0.265 -0.15 0.509 -0.354 0.679 L 27.737 85.692 C 24.581 88.342 20.73 89.636 16.899 89.636 z M 30.193 42.163 L 7.318 61.358 c -3.045 2.556 -4.914 6.144 -5.26 10.104 c -0.347 3.961 0.87 7.818 3.425 10.864 c 5.277 6.287 14.682 7.108 20.969 1.835 l 22.875 -19.195 L 30.193 42.163 z" style="stroke: none; stroke-width: 1; stroke-dasharray: none; stroke-linecap: butt; stroke-linejoin: miter; stroke-miterlimit: 10; fill: rgb(29,29,27); fill-rule: nonzero; opacity: 1;" transform=" matrix(1 0 0 1 0 0) " stroke-linecap="round" />
	<path d="M 24.103 19.7 l 28.791 13.425 l 6.738 -14.449 c 1.01 -2.167 0.073 -4.743 -2.094 -5.753 L 36.594 3.157 c -2.167 -1.01 -4.743 -0.073 -5.753 2.094 L 24.103 19.7 z" style="stroke: none; stroke-width: 1; stroke-dasharray: none; stroke-linecap: butt; stroke-linejoin: miter; stroke-miterlimit: 10; fill: rgb(156,248,210); fill-rule: nonzero; opacity: 1;" transform=" matrix(1 0 0 1 0 0) " stroke-linecap="round" />
	<rect x="18.33" y="25.46" rx="0" ry="0" width="31.77" height="20.27" style="stroke: none; stroke-width: 1; stroke-dasharray: none; stroke-linecap: butt; stroke-linejoin: miter; stroke-miterlimit: 10; fill: rgb(0,242,166); fill-rule: nonzero; opacity: 1;" transform=" matrix(-0.9063 -0.4226 0.4226 -0.9063 50.1787 82.3234) "/>
	<path d="M 44.326 51.499 l -8.567 18.373 l -4.475 9.597 c -3.707 7.95 -13.158 11.39 -21.108 7.683 l 0 0 c -7.95 -3.707 -11.39 -13.158 -7.683 -21.108 l 4.475 -9.597 l 8.567 -18.373 L 44.326 51.499 z" style="stroke: none; stroke-width: 1; stroke-dasharray: none; stroke-linecap: butt; stroke-linejoin: miter; stroke-miterlimit: 10; fill: rgb(5,227,156); fill-rule: nonzero; opacity: 1;" transform=" matrix(1 0 0 1 0 0) " stroke-linecap="round" />
	<path d="M 52.892 34.126 c -0.142 0 -0.285 -0.03 -0.422 -0.094 L 23.68 20.606 c -0.24 -0.112 -0.426 -0.315 -0.517 -0.564 c -0.09 -0.249 -0.079 -0.524 0.034 -0.765 l 6.738 -14.45 c 1.241 -2.662 4.418 -3.821 7.081 -2.577 l 20.944 9.767 c 1.29 0.602 2.269 1.669 2.755 3.007 c 0.487 1.338 0.424 2.785 -0.178 4.075 L 53.8 33.549 C 53.63 33.912 53.269 34.126 52.892 34.126 z M 25.432 19.216 l 26.978 12.58 l 6.315 -13.543 c 0.376 -0.806 0.415 -1.71 0.111 -2.545 s -0.915 -1.502 -1.722 -1.878 L 36.171 4.063 c -1.664 -0.776 -3.649 -0.053 -4.424 1.61 L 25.432 19.216 z" style="stroke: none; stroke-width: 1; stroke-dasharray: none; stroke-linecap: butt; stroke-linejoin: miter; stroke-miterlimit: 10; fill: rgb(29,29,27); fill-rule: nonzero; opacity: 1;" transform=" matrix(1 0 0 1 0 0) " stroke-linecap="round" />
	<path d="M 44.326 52.498 c -0.142 0 -0.285 -0.03 -0.422 -0.094 L 15.113 38.98 c -0.241 -0.112 -0.427 -0.315 -0.517 -0.564 c -0.091 -0.249 -0.079 -0.524 0.033 -0.765 l 8.567 -18.373 c 0.112 -0.241 0.315 -0.427 0.564 -0.517 c 0.248 -0.091 0.524 -0.079 0.765 0.033 l 28.79 13.426 c 0.5 0.233 0.717 0.828 0.483 1.329 l -8.567 18.373 C 45.063 52.284 44.702 52.498 44.326 52.498 z M 16.865 37.59 l 26.978 12.579 l 7.722 -16.559 l -26.977 -12.58 L 16.865 37.59 z" style="stroke: none; stroke-width: 1; stroke-dasharray: none; stroke-linecap: butt; stroke-linejoin: miter; stroke-miterlimit: 10; fill: rgb(29,29,27); fill-rule: nonzero; opacity: 1;" transform=" matrix(1 0 0 1 0 0) " stroke-linecap="round" />
	<path d="M 16.863 89.638 c -2.386 0 -4.808 -0.508 -7.109 -1.581 c -8.437 -3.935 -12.101 -14 -8.166 -22.437 L 14.63 37.651 c 0.233 -0.5 0.829 -0.717 1.329 -0.483 l 28.791 13.425 c 0.241 0.112 0.427 0.315 0.517 0.564 c 0.091 0.249 0.079 0.524 -0.033 0.765 L 32.19 79.891 C 29.329 86.027 23.225 89.638 16.863 89.638 z M 16.02 39.403 L 3.4 66.466 c -3.468 7.437 -0.239 16.31 7.199 19.779 c 3.603 1.68 7.644 1.857 11.38 0.497 c 3.736 -1.36 6.718 -4.093 8.398 -7.696 l 12.62 -27.064 L 16.02 39.403 z" style="stroke: none; stroke-width: 1; stroke-dasharray: none; stroke-linecap: butt; stroke-linejoin: miter; stroke-miterlimit: 10; fill: rgb(29,29,27); fill-rule: nonzero; opacity: 1;" transform=" matrix(1 0 0 1 0 0) " stroke-linecap="round" />
	<path d="M 32.768 21.626 H 1.001 V 5.59 c 0 -2.34 1.897 -4.236 4.236 -4.236 h 23.294 c 2.34 0 4.236 1.897 4.236 4.236 V 21.626 z" style="stroke: none; stroke-width: 1; stroke-dasharray: none; stroke-linecap: butt; stroke-linejoin: miter; stroke-miterlimit: 10; fill: rgb(200,239,254); fill-rule: nonzero; opacity: 1;" transform=" matrix(1 0 0 1 0 0) " stroke-linecap="round" />
	<rect x="1" y="21.63" rx="0" ry="0" width="31.77" height="20.27" style="stroke: none; stroke-width: 1; stroke-dasharray: none; stroke-linecap: butt; stroke-linejoin: miter; stroke-miterlimit: 10; fill: rgb(98,219,251); fill-rule: nonzero; opacity: 1;" transform=" matrix(1 0 0 1 0 0) "/>
	<rect x="1" y="41.9" rx="0" ry="0" width="31.77" height="20.27" style="stroke: none; stroke-width: 1; stroke-dasharray: none; stroke-linecap: butt; stroke-linejoin: miter; stroke-miterlimit: 10; fill: rgb(1,208,251); fill-rule: nonzero; opacity: 1;" transform=" matrix(1 0 0 1 0 0) "/>
	<path d="M 16.885 88.643 L 16.885 88.643 c -8.772 0 -15.883 -7.111 -15.883 -15.883 V 62.171 h 31.767 v 10.589 C 32.768 81.532 25.657 88.643 16.885 88.643 z" style="stroke: none; stroke-width: 1; stroke-dasharray: none; stroke-linecap: butt; stroke-linejoin: miter; stroke-miterlimit: 10; fill: rgb(243,252,255); fill-rule: nonzero; opacity: 1;" transform=" matrix(1 0 0 1 0 0) " stroke-linecap="round" />
	<path d="M 32.768 22.626 H 1.001 c -0.552 0 -1 -0.448 -1 -1 V 5.59 c 0 -2.887 2.349 -5.236 5.236 -5.236 h 23.294 c 2.887 0 5.236 2.349 5.236 5.236 v 16.036 C 33.768 22.178 33.32 22.626 32.768 22.626 z M 2.001 20.626 h 29.767 V 5.59 c 0 -1.785 -1.452 -3.236 -3.236 -3.236 H 5.238 c -1.785 0 -3.236 1.452 -3.236 3.236 V 20.626 z" style="stroke: none; stroke-width: 1; stroke-dasharray: none; stroke-linecap: butt; stroke-linejoin: miter; stroke-miterlimit: 10; fill: rgb(29,29,27); fill-rule: nonzero; opacity: 1;" transform=" matrix(1 0 0 1 0 0) " stroke-linecap="round" />
	<path d="M 32.768 42.898 H 1.001 c -0.552 0 -1 -0.448 -1 -1 V 21.626 c 0 -0.552 0.448 -1 1 -1 h 31.767 c 0.552 0 1 0.448 1 1 v 20.272 C 33.768 42.45 33.32 42.898 32.768 42.898 z M 2.001 40.898 h 29.767 V 22.626 H 2.001 V 40.898 z" style="stroke: none; stroke-width: 1; stroke-dasharray: none; stroke-linecap: butt; stroke-linejoin: miter; stroke-miterlimit: 10; fill: rgb(29,29,27); fill-rule: nonzero; opacity: 1;" transform=" matrix(1 0 0 1 0 0) " stroke-linecap="round" />
	<path d="M 32.768 63.171 H 1.001 c -0.552 0 -1 -0.447 -1 -1 V 41.898 c 0 -0.552 0.448 -1 1 -1 h 31.767 c 0.552 0 1 0.448 1 1 v 20.273 C 33.768 62.724 33.32 63.171 32.768 63.171 z M 2.001 61.171 h 29.767 V 42.898 H 2.001 V 61.171 z" style="stroke: none; stroke-width: 1; stroke-dasharray: none; stroke-linecap: butt; stroke-linejoin: miter; stroke-miterlimit: 10; fill: rgb(29,29,27); fill-rule: nonzero; opacity: 1;" transform=" matrix(1 0 0 1 0 0) " stroke-linecap="round" />
	<path d="M 16.885 89.643 c -9.309 0 -16.884 -7.574 -16.884 -16.884 V 62.171 c 0 -0.553 0.448 -1 1 -1 h 31.767 c 0.552 0 1 0.447 1 1 V 72.76 C 33.768 82.069 26.194 89.643 16.885 89.643 z M 2.001 63.171 v 9.589 c 0 8.207 6.677 14.884 14.884 14.884 c 8.206 0 14.883 -6.677 14.883 -14.884 v -9.589 H 2.001 z" style="stroke: none; stroke-width: 1; stroke-dasharray: none; stroke-linecap: butt; stroke-linejoin: miter; stroke-miterlimit: 10; fill: rgb(29,29,27); fill-rule: nonzero; opacity: 1;" transform=" matrix(1 0 0 1 0 0) " stroke-linecap="round" />
	<path d="M 16.885 81.498 c -2.546 0 -4.617 -2.071 -4.617 -4.616 c 0 -2.546 2.071 -4.617 4.617 -4.617 s 4.617 2.071 4.617 4.617 C 21.502 79.427 19.431 81.498 16.885 81.498 z M 16.885 74.265 c -1.443 0 -2.617 1.174 -2.617 2.617 c 0 1.442 1.174 2.616 2.617 2.616 s 2.617 -1.174 2.617 -2.616 C 19.502 75.438 18.328 74.265 16.885 74.265 z" style="stroke: none; stroke-width: 1; stroke-dasharray: none; stroke-linecap: butt; stroke-linejoin: miter; stroke-miterlimit: 10; fill: rgb(29,29,27); fill-rule: nonzero; opacity: 1;" transform=" matrix(1 0 0 1 0 0) " stroke-linecap="round" />
</g>
</g>
</svg>