<svg xmlns="http://www.w3.org/2000/svg" xmlns:xlink="http://www.w3.org/1999/xlink" version="1.1" width="256" height="256" viewBox="0 0 256 256" xml:space="preserve">
<desc>Created with Fabric.js 1.7.22</desc>
<defs>
</defs>
<g transform="translate(128 128) scale(0.72 0.72)" style="">
	<g style="stroke: none; stroke-width: 0; stroke-dasharray: none; stroke-linecap: butt; stroke-linejoin: miter; stroke-miterlimit: 10; fill: none; fill-rule: nonzero; opacity: 1;" transform="translate(-175.05 -175.05) scale(3.89 3.89)" >
	<rect x="17.88" y="1" rx="0" ry="0" width="54.25" height="88" style="stroke: none; stroke-width: 1; stroke-dasharray: none; stroke-linecap: butt; stroke-linejoin: miter; stroke-miterlimit: 10; fill: rgb(168,224,226); fill-rule: nonzero; opacity: 1;" transform=" matrix(1 0 0 1 0 0) "/>
	<rect x="17.88" y="72.75" rx="0" ry="0" width="54.25" height="16.25" style="stroke: none; stroke-width: 1; stroke-dasharray: none; stroke-linecap: butt; stroke-linejoin: miter; stroke-miterlimit: 10; fill: rgb(202,224,224); fill-rule: nonzero; opacity: 1;" transform=" matrix(1 0 0 1 0 0) "/>
	<path d="M 72.125 90 h -54.25 c -0.552 0 -1 -0.447 -1 -1 V 1 c 0 -0.552 0.448 -1 1 -1 h 54.25 c 0.553 0 1 0.448 1 1 v 88 C 73.125 89.553 72.678 90 72.125 90 z M 18.875 88 h 52.25 V 2 h -52.25 V 88 z" style="stroke: none; stroke-width: 1; stroke-dasharray: none; stroke-linecap: butt; stroke-linejoin: miter; stroke-miterlimit: 10; fill: rgb(0,0,0); fill-rule: nonzero; opacity: 1;" transform=" matrix(1 0 0 1 0 0) " stroke-linecap="round" />
	<path d="M 25.17 83.639 c -0.552 0 -1 -0.447 -1 -1 v -4.241 c 0 -0.553 0.448 -1 1 -1 s 1 0.447 1 1 v 4.241 C 26.17 83.191 25.722 83.639 25.17 83.639 z" style="stroke: none; stroke-width: 1; stroke-dasharray: none; stroke-linecap: butt; stroke-linejoin: miter; stroke-miterlimit: 10; fill: rgb(0,0,0); fill-rule: nonzero; opacity: 1;" transform=" matrix(1 0 0 1 0 0) " stroke-linecap="round" />
	<path d="M 31.78 83.639 c -0.552 0 -1 -0.447 -1 -1 v -4.241 c 0 -0.553 0.448 -1 1 -1 s 1 0.447 1 1 v 4.241 C 32.78 83.191 32.332 83.639 31.78 83.639 z" style="stroke: none; stroke-width: 1; stroke-dasharray: none; stroke-linecap: butt; stroke-linejoin: miter; stroke-miterlimit: 10; fill: rgb(0,0,0); fill-rule: nonzero; opacity: 1;" transform=" matrix(1 0 0 1 0 0) " stroke-linecap="round" />
	<path d="M 38.39 83.639 c -0.552 0 -1 -0.447 -1 -1 v -4.241 c 0 -0.553 0.448 -1 1 -1 s 1 0.447 1 1 v 4.241 C 39.39 83.191 38.942 83.639 38.39 83.639 z" style="stroke: none; stroke-width: 1; stroke-dasharray: none; stroke-linecap: butt; stroke-linejoin: miter; stroke-miterlimit: 10; fill: rgb(0,0,0); fill-rule: nonzero; opacity: 1;" transform=" matrix(1 0 0 1 0 0) " stroke-linecap="round" />
	<path d="M 45 83.639 c -0.552 0 -1 -0.447 -1 -1 v -4.241 c 0 -0.553 0.448 -1 1 -1 s 1 0.447 1 1 v 4.241 C 46 83.191 45.552 83.639 45 83.639 z" style="stroke: none; stroke-width: 1; stroke-dasharray: none; stroke-linecap: butt; stroke-linejoin: miter; stroke-miterlimit: 10; fill: rgb(0,0,0); fill-rule: nonzero; opacity: 1;" transform=" matrix(1 0 0 1 0 0) " stroke-linecap="round" />
	<path d="M 51.61 83.639 c -0.553 0 -1 -0.447 -1 -1 v -4.241 c 0 -0.553 0.447 -1 1 -1 s 1 0.447 1 1 v 4.241 C 52.61 83.191 52.163 83.639 51.61 83.639 z" style="stroke: none; stroke-width: 1; stroke-dasharray: none; stroke-linecap: butt; stroke-linejoin: miter; stroke-miterlimit: 10; fill: rgb(0,0,0); fill-rule: nonzero; opacity: 1;" transform=" matrix(1 0 0 1 0 0) " stroke-linecap="round" />
	<path d="M 58.22 83.639 c -0.553 0 -1 -0.447 -1 -1 v -4.241 c 0 -0.553 0.447 -1 1 -1 s 1 0.447 1 1 v 4.241 C 59.22 83.191 58.772 83.639 58.22 83.639 z" style="stroke: none; stroke-width: 1; stroke-dasharray: none; stroke-linecap: butt; stroke-linejoin: miter; stroke-miterlimit: 10; fill: rgb(0,0,0); fill-rule: nonzero; opacity: 1;" transform=" matrix(1 0 0 1 0 0) " stroke-linecap="round" />
	<path d="M 64.83 83.639 c -0.553 0 -1 -0.447 -1 -1 v -4.241 c 0 -0.553 0.447 -1 1 -1 s 1 0.447 1 1 v 4.241 C 65.83 83.191 65.383 83.639 64.83 83.639 z" style="stroke: none; stroke-width: 1; stroke-dasharray: none; stroke-linecap: butt; stroke-linejoin: miter; stroke-miterlimit: 10; fill: rgb(0,0,0); fill-rule: nonzero; opacity: 1;" transform=" matrix(1 0 0 1 0 0) " stroke-linecap="round" />
	<path d="M 47.249 12.603 H 25.17 c -0.552 0 -1 -0.448 -1 -1 s 0.448 -1 1 -1 h 22.079 c 0.553 0 1 0.448 1 1 S 47.802 12.603 47.249 12.603 z" style="stroke: none; stroke-width: 1; stroke-dasharray: none; stroke-linecap: butt; stroke-linejoin: miter; stroke-miterlimit: 10; fill: rgb(0,0,0); fill-rule: nonzero; opacity: 1;" transform=" matrix(1 0 0 1 0 0) " stroke-linecap="round" />
	<path d="M 47.249 23.205 H 25.17 c -0.552 0 -1 -0.448 -1 -1 s 0.448 -1 1 -1 h 22.079 c 0.553 0 1 0.448 1 1 S 47.802 23.205 47.249 23.205 z" style="stroke: none; stroke-width: 1; stroke-dasharray: none; stroke-linecap: butt; stroke-linejoin: miter; stroke-miterlimit: 10; fill: rgb(0,0,0); fill-rule: nonzero; opacity: 1;" transform=" matrix(1 0 0 1 0 0) " stroke-linecap="round" />
	<path d="M 47.249 33.807 H 25.17 c -0.552 0 -1 -0.448 -1 -1 s 0.448 -1 1 -1 h 22.079 c 0.553 0 1 0.448 1 1 S 47.802 33.807 47.249 33.807 z" style="stroke: none; stroke-width: 1; stroke-dasharray: none; stroke-linecap: butt; stroke-linejoin: miter; stroke-miterlimit: 10; fill: rgb(0,0,0); fill-rule: nonzero; opacity: 1;" transform=" matrix(1 0 0 1 0 0) " stroke-linecap="round" />
	<path d="M 47.249 44.41 H 25.17 c -0.552 0 -1 -0.448 -1 -1 s 0.448 -1 1 -1 h 22.079 c 0.553 0 1 0.448 1 1 S 47.802 44.41 47.249 44.41 z" style="stroke: none; stroke-width: 1; stroke-dasharray: none; stroke-linecap: butt; stroke-linejoin: miter; stroke-miterlimit: 10; fill: rgb(0,0,0); fill-rule: nonzero; opacity: 1;" transform=" matrix(1 0 0 1 0 0) " stroke-linecap="round" />
	<path d="M 47.249 55.012 H 25.17 c -0.552 0 -1 -0.447 -1 -1 s 0.448 -1 1 -1 h 22.079 c 0.553 0 1 0.447 1 1 S 47.802 55.012 47.249 55.012 z" style="stroke: none; stroke-width: 1; stroke-dasharray: none; stroke-linecap: butt; stroke-linejoin: miter; stroke-miterlimit: 10; fill: rgb(0,0,0); fill-rule: nonzero; opacity: 1;" transform=" matrix(1 0 0 1 0 0) " stroke-linecap="round" />
	<path d="M 47.249 65.614 H 25.17 c -0.552 0 -1 -0.447 -1 -1 s 0.448 -1 1 -1 h 22.079 c 0.553 0 1 0.447 1 1 S 47.802 65.614 47.249 65.614 z" style="stroke: none; stroke-width: 1; stroke-dasharray: none; stroke-linecap: butt; stroke-linejoin: miter; stroke-miterlimit: 10; fill: rgb(0,0,0); fill-rule: nonzero; opacity: 1;" transform=" matrix(1 0 0 1 0 0) " stroke-linecap="round" />
	<path d="M 64.83 12.603 h -2.885 c -0.553 0 -1 -0.448 -1 -1 s 0.447 -1 1 -1 h 2.885 c 0.553 0 1 0.448 1 1 S 65.383 12.603 64.83 12.603 z" style="stroke: none; stroke-width: 1; stroke-dasharray: none; stroke-linecap: butt; stroke-linejoin: miter; stroke-miterlimit: 10; fill: rgb(0,0,0); fill-rule: nonzero; opacity: 1;" transform=" matrix(1 0 0 1 0 0) " stroke-linecap="round" />
	<path d="M 64.83 23.205 h -2.885 c -0.553 0 -1 -0.448 -1 -1 s 0.447 -1 1 -1 h 2.885 c 0.553 0 1 0.448 1 1 S 65.383 23.205 64.83 23.205 z" style="stroke: none; stroke-width: 1; stroke-dasharray: none; stroke-linecap: butt; stroke-linejoin: miter; stroke-miterlimit: 10; fill: rgb(0,0,0); fill-rule: nonzero; opacity: 1;" transform=" matrix(1 0 0 1 0 0) " stroke-linecap="round" />
	<path d="M 64.83 33.807 h -2.885 c -0.553 0 -1 -0.448 -1 -1 s 0.447 -1 1 -1 h 2.885 c 0.553 0 1 0.448 1 1 S 65.383 33.807 64.83 33.807 z" style="stroke: none; stroke-width: 1; stroke-dasharray: none; stroke-linecap: butt; stroke-linejoin: miter; stroke-miterlimit: 10; fill: rgb(0,0,0); fill-rule: nonzero; opacity: 1;" transform=" matrix(1 0 0 1 0 0) " stroke-linecap="round" />
	<path d="M 64.83 44.41 h -2.885 c -0.553 0 -1 -0.448 -1 -1 s 0.447 -1 1 -1 h 2.885 c 0.553 0 1 0.448 1 1 S 65.383 44.41 64.83 44.41 z" style="stroke: none; stroke-width: 1; stroke-dasharray: none; stroke-linecap: butt; stroke-linejoin: miter; stroke-miterlimit: 10; fill: rgb(0,0,0); fill-rule: nonzero; opacity: 1;" transform=" matrix(1 0 0 1 0 0) " stroke-linecap="round" />
	<path d="M 64.83 55.012 h -2.885 c -0.553 0 -1 -0.447 -1 -1 s 0.447 -1 1 -1 h 2.885 c 0.553 0 1 0.447 1 1 S 65.383 55.012 64.83 55.012 z" style="stroke: none; stroke-width: 1; stroke-dasharray: none; stroke-linecap: butt; stroke-linejoin: miter; stroke-miterlimit: 10; fill: rgb(0,0,0); fill-rule: nonzero; opacity: 1;" transform=" matrix(1 0 0 1 0 0) " stroke-linecap="round" />
	<path d="M 64.83 65.614 h -2.885 c -0.553 0 -1 -0.447 -1 -1 s 0.447 -1 1 -1 h 2.885 c 0.553 0 1 0.447 1 1 S 65.383 65.614 64.83 65.614 z" style="stroke: none; stroke-width: 1; stroke-dasharray: none; stroke-linecap: butt; stroke-linejoin: miter; stroke-miterlimit: 10; fill: rgb(0,0,0); fill-rule: nonzero; opacity: 1;" transform=" matrix(1 0 0 1 0 0) " stroke-linecap="round" />
	<path d="M 56.349 12.603 h -2.886 c -0.553 0 -1 -0.448 -1 -1 s 0.447 -1 1 -1 h 2.886 c 0.553 0 1 0.448 1 1 S 56.901 12.603 56.349 12.603 z" style="stroke: none; stroke-width: 1; stroke-dasharray: none; stroke-linecap: butt; stroke-linejoin: miter; stroke-miterlimit: 10; fill: rgb(0,0,0); fill-rule: nonzero; opacity: 1;" transform=" matrix(1 0 0 1 0 0) " stroke-linecap="round" />
	<path d="M 56.349 23.205 h -2.886 c -0.553 0 -1 -0.448 -1 -1 s 0.447 -1 1 -1 h 2.886 c 0.553 0 1 0.448 1 1 S 56.901 23.205 56.349 23.205 z" style="stroke: none; stroke-width: 1; stroke-dasharray: none; stroke-linecap: butt; stroke-linejoin: miter; stroke-miterlimit: 10; fill: rgb(0,0,0); fill-rule: nonzero; opacity: 1;" transform=" matrix(1 0 0 1 0 0) " stroke-linecap="round" />
	<path d="M 56.349 33.807 h -2.886 c -0.553 0 -1 -0.448 -1 -1 s 0.447 -1 1 -1 h 2.886 c 0.553 0 1 0.448 1 1 S 56.901 33.807 56.349 33.807 z" style="stroke: none; stroke-width: 1; stroke-dasharray: none; stroke-linecap: butt; stroke-linejoin: miter; stroke-miterlimit: 10; fill: rgb(0,0,0); fill-rule: nonzero; opacity: 1;" transform=" matrix(1 0 0 1 0 0) " stroke-linecap="round" />
	<path d="M 56.349 44.41 h -2.886 c -0.553 0 -1 -0.448 -1 -1 s 0.447 -1 1 -1 h 2.886 c 0.553 0 1 0.448 1 1 S 56.901 44.41 56.349 44.41 z" style="stroke: none; stroke-width: 1; stroke-dasharray: none; stroke-linecap: butt; stroke-linejoin: miter; stroke-miterlimit: 10; fill: rgb(0,0,0); fill-rule: nonzero; opacity: 1;" transform=" matrix(1 0 0 1 0 0) " stroke-linecap="round" />
	<path d="M 56.349 55.012 h -2.886 c -0.553 0 -1 -0.447 -1 -1 s 0.447 -1 1 -1 h 2.886 c 0.553 0 1 0.447 1 1 S 56.901 55.012 56.349 55.012 z" style="stroke: none; stroke-width: 1; stroke-dasharray: none; stroke-linecap: butt; stroke-linejoin: miter; stroke-miterlimit: 10; fill: rgb(0,0,0); fill-rule: nonzero; opacity: 1;" transform=" matrix(1 0 0 1 0 0) " stroke-linecap="round" />
	<path d="M 56.349 65.614 h -2.886 c -0.553 0 -1 -0.447 -1 -1 s 0.447 -1 1 -1 h 2.886 c 0.553 0 1 0.447 1 1 S 56.901 65.614 56.349 65.614 z" style="stroke: none; stroke-width: 1; stroke-dasharray: none; stroke-linecap: butt; stroke-linejoin: miter; stroke-miterlimit: 10; fill: rgb(0,0,0); fill-rule: nonzero; opacity: 1;" transform=" matrix(1 0 0 1 0 0) " stroke-linecap="round" />
	<path d="M 72.125 73.754 h -54.25 c -0.552 0 -1 -0.447 -1 -1 s 0.448 -1 1 -1 h 54.25 c 0.553 0 1 0.447 1 1 S 72.678 73.754 72.125 73.754 z" style="stroke: none; stroke-width: 1; stroke-dasharray: none; stroke-linecap: butt; stroke-linejoin: miter; stroke-miterlimit: 10; fill: rgb(0,0,0); fill-rule: nonzero; opacity: 1;" transform=" matrix(1 0 0 1 0 0) " stroke-linecap="round" />
</g>
</g>
</svg>