<svg xmlns="http://www.w3.org/2000/svg" xmlns:xlink="http://www.w3.org/1999/xlink" version="1.1" width="256" height="256" viewBox="0 0 256 256" xml:space="preserve">
<desc>Created with Fabric.js 1.7.22</desc>
<defs>
</defs>
<g transform="translate(128 128) scale(0.72 0.72)" style="">
	<g style="stroke: none; stroke-width: 0; stroke-dasharray: none; stroke-linecap: butt; stroke-linejoin: miter; stroke-miterlimit: 10; fill: none; fill-rule: nonzero; opacity: 1;" transform="translate(-175.05 -175.05) scale(3.89 3.89)" >
	<path d="M 67.235 50.107 V 38.451 h -13.33 v 4.418 v 1.315 v 37.101 v 1.049 c 0 3.681 2.984 6.665 6.665 6.665 c 3.681 0 6.665 -2.984 6.665 -6.665 v -1.861 V 50.107 z" style="stroke: none; stroke-width: 1; stroke-dasharray: none; stroke-linecap: butt; stroke-linejoin: miter; stroke-miterlimit: 10; fill: rgb(245,180,26); fill-rule: nonzero; opacity: 1;" transform=" matrix(1 0 0 1 0 0) " stroke-linecap="round" />
	<path d="M 60.569 90 c -4.227 0 -7.665 -3.438 -7.665 -7.665 V 38.451 c 0 -0.552 0.447 -1 1 -1 h 13.33 c 0.553 0 1 0.448 1 1 v 43.884 C 68.234 86.562 64.796 90 60.569 90 z M 54.904 39.451 v 42.884 c 0 3.124 2.541 5.665 5.665 5.665 s 5.665 -2.541 5.665 -5.665 V 39.451 H 54.904 z" style="stroke: none; stroke-width: 1; stroke-dasharray: none; stroke-linecap: butt; stroke-linejoin: miter; stroke-miterlimit: 10; fill: rgb(0,0,0); fill-rule: nonzero; opacity: 1;" transform=" matrix(1 0 0 1 0 0) " stroke-linecap="round" />
	<path d="M 36.258 53.972 v 23.57 h 3.629 l -0.001 0.001 c 2.727 2.331 6.26 3.743 10.107 3.743 h 5.301 h 9.632 c 2.045 0 3.718 -1.673 3.718 -3.718 v -0.361 c 0 -2.045 -1.673 -3.718 -3.718 -3.718 h 2.838 c 2.045 0 3.718 -1.673 3.718 -3.718 v -0.361 c 0 -2.045 -1.673 -3.718 -3.718 -3.718 h 2.638 c 2.045 0 3.718 -1.673 3.718 -3.718 v -0.361 c 0 -2.045 -1.673 -3.718 -3.718 -3.718 h 0.212 c 2.045 0 3.718 -1.673 3.718 -3.718 V 53.82 c 0 -2.045 -1.673 -3.718 -3.718 -3.718 L 57.424 50.12 c -3.007 -0.272 -3.52 -2.439 -3.531 -5.935 c -1.423 0.106 -2.831 0.631 -4.027 1.598 l -9.799 7.926 l 0 0 h -3.809" style="stroke: none; stroke-width: 1; stroke-dasharray: none; stroke-linecap: butt; stroke-linejoin: miter; stroke-miterlimit: 10; fill: rgb(251,206,157); fill-rule: nonzero; opacity: 1;" transform=" matrix(1 0 0 1 0 0) " stroke-linecap="round" />
	<rect x="25.84" y="49.01" rx="0" ry="0" width="10.42" height="33.28" style="stroke: none; stroke-width: 1; stroke-dasharray: none; stroke-linecap: butt; stroke-linejoin: miter; stroke-miterlimit: 10; fill: rgb(119,157,188); fill-rule: nonzero; opacity: 1;" transform=" matrix(1 0 0 1 0 0) "/>
	<rect x="10.73" y="51.1" rx="0" ry="0" width="15.11" height="29.09" style="stroke: none; stroke-width: 1; stroke-dasharray: none; stroke-linecap: butt; stroke-linejoin: miter; stroke-miterlimit: 10; fill: rgb(119,157,188); fill-rule: nonzero; opacity: 1;" transform=" matrix(1 0 0 1 0 0) "/>
	<path d="M 64.926 82.286 H 49.993 c -3.808 0 -7.511 -1.326 -10.47 -3.743 l -3.266 -0.001 c -0.552 0 -1 -0.448 -1 -1 V 53.973 c 0 -0.045 0.003 -0.089 0.009 -0.132 c -0.006 -0.043 -0.009 -0.087 -0.009 -0.132 c 0 -0.553 0.448 -1 1 -1 h 3.456 l 9.524 -7.704 c 1.316 -1.065 2.9 -1.693 4.582 -1.818 c 0.289 -0.023 0.551 0.075 0.754 0.263 s 0.319 0.453 0.32 0.731 c 0.011 3.65 0.599 4.76 2.62 4.942 l 13.099 -0.021 c 2.603 0 4.719 2.116 4.719 4.717 v 0.361 c 0 1.558 -0.758 2.94 -1.925 3.801 c 1.046 0.865 1.713 2.173 1.713 3.634 v 0.361 c 0 2.217 -1.536 4.081 -3.6 4.584 c 0.604 0.793 0.962 1.781 0.962 2.852 v 0.36 c 0 2.277 -1.621 4.183 -3.771 4.622 c 0.586 0.786 0.933 1.76 0.933 2.813 v 0.36 C 69.644 80.17 67.527 82.286 64.926 82.286 z M 37.258 76.542 h 2.629 c 0.238 0 0.469 0.085 0.65 0.24 c 2.642 2.26 6 3.504 9.456 3.504 h 14.933 c 1.499 0 2.718 -1.219 2.718 -2.718 v -0.36 c 0 -1.499 -1.219 -2.718 -2.718 -2.718 c -0.553 0 -1 -0.447 -1 -1 s 0.447 -1 1 -1 h 2.838 c 1.499 0 2.718 -1.219 2.718 -2.718 v -0.36 c 0 -1.499 -1.219 -2.718 -2.718 -2.718 c -0.553 0 -1 -0.447 -1 -1 s 0.447 -1 1 -1 h 2.639 c 1.498 0 2.717 -1.219 2.717 -2.718 v -0.361 c 0 -1.498 -1.219 -2.717 -2.717 -2.717 c -0.553 0 -1 -0.447 -1 -1 s 0.447 -1 1 -1 h 0.211 c 1.499 0 2.718 -1.219 2.718 -2.718 v -0.361 c 0 -1.498 -1.219 -2.717 -2.718 -2.717 L 57.425 51.12 c -3.66 -0.328 -4.379 -2.989 -4.506 -5.771 c -0.881 0.219 -1.705 0.629 -2.424 1.211 l -9.799 7.926 c -0.178 0.145 -0.4 0.223 -0.629 0.223 h -2.81 V 76.542 z" style="stroke: none; stroke-width: 1; stroke-dasharray: none; stroke-linecap: butt; stroke-linejoin: miter; stroke-miterlimit: 10; fill: rgb(0,0,0); fill-rule: nonzero; opacity: 1;" transform=" matrix(1 0 0 1 0 0) " stroke-linecap="round" />
	<path d="M 76.482 1 h -4.05 v 0.291 c 0 1.394 -1.019 2.638 -2.406 2.77 c -1.591 0.152 -2.93 -1.096 -2.93 -2.656 V 1 H 54.121 h -1.544 c -8.616 0 -15.601 6.985 -15.601 15.601 c 4.12 -5.581 14.921 -4.669 17.145 1.138 h 12.974 v -1.138 V 16.31 c 0 -1.394 1.019 -2.638 2.406 -2.77 c 1.591 -0.152 2.93 1.096 2.93 2.656 v 0.405 h 4.05 c 1.538 0 2.785 -1.247 2.785 -2.785 V 3.785 C 79.267 2.247 78.02 1 76.482 1 z" style="stroke: none; stroke-width: 1; stroke-dasharray: none; stroke-linecap: butt; stroke-linejoin: miter; stroke-miterlimit: 10; fill: rgb(240,240,240); fill-rule: nonzero; opacity: 1;" transform=" matrix(1 0 0 1 0 0) " stroke-linecap="round" />
	<path d="M 72.431 16.601 h 4.05 c 1.538 0 2.785 -1.247 2.785 -2.785 V 3.785 C 79.267 2.247 78.02 1 76.482 1 h -4.05 V 16.601 z" style="stroke: none; stroke-width: 1; stroke-dasharray: none; stroke-linecap: butt; stroke-linejoin: miter; stroke-miterlimit: 10; fill: rgb(240,240,240); fill-rule: nonzero; opacity: 1;" transform=" matrix(1 0 0 1 0 0) " stroke-linecap="round" />
	<rect x="53.9" y="1" rx="0" ry="0" width="13.19" height="16.74" style="stroke: none; stroke-width: 1; stroke-dasharray: none; stroke-linecap: butt; stroke-linejoin: miter; stroke-miterlimit: 10; fill: rgb(240,240,240); fill-rule: nonzero; opacity: 1;" transform=" matrix(1 0 0 1 0 0) "/>
	<polyline points="56.77,17.74 56.77,38.45 64.07,38.45 64.07,17.74 " style="stroke: none; stroke-width: 1; stroke-dasharray: none; stroke-linecap: butt; stroke-linejoin: miter; stroke-miterlimit: 10; fill: rgb(204,204,204); fill-rule: nonzero; opacity: 1;" transform="  matrix(1 0 0 1 0 0) "/>
	<path d="M 59.979 58.905 c -0.552 0 -1 -0.447 -1 -0.999 c 0 -0.553 0.447 -1.001 0.999 -1.001 l 10.424 -0.007 c 0.001 0 0.001 0 0.001 0 c 0.552 0 1 0.447 1 0.999 c 0 0.553 -0.447 1.001 -0.999 1.001 L 59.979 58.905 C 59.979 58.905 59.979 58.905 59.979 58.905 z" style="stroke: none; stroke-width: 1; stroke-dasharray: none; stroke-linecap: butt; stroke-linejoin: miter; stroke-miterlimit: 10; fill: rgb(0,0,0); fill-rule: nonzero; opacity: 1;" transform=" matrix(1 0 0 1 0 0) " stroke-linecap="round" />
	<path d="M 59.979 66.701 c -0.552 0 -1 -0.447 -1 -0.999 c 0 -0.553 0.447 -1.001 0.999 -1.001 l 7.785 -0.007 h 0.001 c 0.552 0 1 0.447 1 0.999 c 0 0.553 -0.447 1 -0.999 1.001 L 59.979 66.701 L 59.979 66.701 z" style="stroke: none; stroke-width: 1; stroke-dasharray: none; stroke-linecap: butt; stroke-linejoin: miter; stroke-miterlimit: 10; fill: rgb(0,0,0); fill-rule: nonzero; opacity: 1;" transform=" matrix(1 0 0 1 0 0) " stroke-linecap="round" />
	<path d="M 64.926 74.49 h -4.947 c -0.553 0 -1 -0.447 -1 -1 s 0.447 -1 1 -1 h 4.947 c 0.553 0 1 0.447 1 1 S 65.479 74.49 64.926 74.49 z" style="stroke: none; stroke-width: 1; stroke-dasharray: none; stroke-linecap: butt; stroke-linejoin: miter; stroke-miterlimit: 10; fill: rgb(0,0,0); fill-rule: nonzero; opacity: 1;" transform=" matrix(1 0 0 1 0 0) " stroke-linecap="round" />
	<path d="M 64.066 39.451 h -7.299 c -0.553 0 -1 -0.448 -1 -1 V 17.739 c 0 -0.552 0.447 -1 1 -1 s 1 0.448 1 1 v 19.712 h 5.299 V 17.739 c 0 -0.552 0.447 -1 1 -1 s 1 0.448 1 1 v 20.712 C 65.066 39.003 64.619 39.451 64.066 39.451 z" style="stroke: none; stroke-width: 1; stroke-dasharray: none; stroke-linecap: butt; stroke-linejoin: miter; stroke-miterlimit: 10; fill: rgb(0,0,0); fill-rule: nonzero; opacity: 1;" transform=" matrix(1 0 0 1 0 0) " stroke-linecap="round" />
	<path d="M 67.095 18.739 H 54.121 c -0.414 0 -0.786 -0.255 -0.934 -0.643 c -0.828 -2.161 -3.177 -3.703 -6.282 -4.125 c -3.725 -0.505 -7.306 0.759 -9.124 3.223 c -0.257 0.347 -0.709 0.49 -1.117 0.356 c -0.41 -0.135 -0.688 -0.518 -0.688 -0.95 C 35.977 7.447 43.423 0 52.577 0 h 14.518 c 0.553 0 1 0.448 1 1 v 0.405 c 0 0.476 0.194 0.915 0.547 1.235 c 0.352 0.32 0.808 0.471 1.289 0.425 c 0.842 -0.08 1.501 -0.86 1.501 -1.775 V 1 c 0 -0.552 0.447 -1 1 -1 h 4.05 c 2.087 0 3.785 1.698 3.785 3.786 v 10.029 c 0 2.087 -1.698 3.786 -3.785 3.786 h -4.05 c -0.553 0 -1 -0.448 -1 -1 v -0.405 c 0 -0.476 -0.194 -0.915 -0.547 -1.235 c -0.352 -0.321 -0.81 -0.473 -1.289 -0.425 c -0.842 0.08 -1.501 0.86 -1.501 1.775 v 1.429 C 68.095 18.291 67.647 18.739 67.095 18.739 z M 54.771 16.739 h 11.324 V 16.31 c 0 -1.935 1.454 -3.589 3.312 -3.766 c 1.028 -0.097 2.062 0.243 2.824 0.937 c 0.615 0.559 1.019 1.31 1.152 2.12 h 3.099 c 0.984 0 1.785 -0.801 1.785 -1.786 V 3.786 C 78.267 2.801 77.466 2 76.481 2 h -3.116 c -0.303 1.615 -1.62 2.901 -3.245 3.057 c -1.029 0.102 -2.062 -0.243 -2.824 -0.937 C 66.681 3.561 66.277 2.81 66.144 2 H 52.577 c -7.169 0 -13.148 5.194 -14.372 12.017 c 2.371 -1.704 5.638 -2.48 8.968 -2.027 C 50.721 12.472 53.504 14.227 54.771 16.739 z" style="stroke: none; stroke-width: 1; stroke-dasharray: none; stroke-linecap: butt; stroke-linejoin: miter; stroke-miterlimit: 10; fill: rgb(0,0,0); fill-rule: nonzero; opacity: 1;" transform=" matrix(1 0 0 1 0 0) " stroke-linecap="round" />
	<path d="M 76.481 17.601 h -4.05 c -0.553 0 -1 -0.448 -1 -1 V 1 c 0 -0.552 0.447 -1 1 -1 h 4.05 c 2.087 0 3.785 1.698 3.785 3.786 v 10.029 C 80.267 15.902 78.568 17.601 76.481 17.601 z M 73.432 15.601 h 3.05 c 0.984 0 1.785 -0.801 1.785 -1.786 V 3.786 C 78.267 2.801 77.466 2 76.481 2 h -3.05 V 15.601 z" style="stroke: none; stroke-width: 1; stroke-dasharray: none; stroke-linecap: butt; stroke-linejoin: miter; stroke-miterlimit: 10; fill: rgb(0,0,0); fill-rule: nonzero; opacity: 1;" transform=" matrix(1 0 0 1 0 0) " stroke-linecap="round" />
	<path d="M 67.095 18.739 h -13.19 c -0.553 0 -1 -0.448 -1 -1 V 1 c 0 -0.552 0.447 -1 1 -1 h 13.19 c 0.553 0 1 0.448 1 1 v 16.739 C 68.095 18.291 67.647 18.739 67.095 18.739 z M 54.904 16.739 h 11.19 V 2 h -11.19 V 16.739 z" style="stroke: none; stroke-width: 1; stroke-dasharray: none; stroke-linecap: butt; stroke-linejoin: miter; stroke-miterlimit: 10; fill: rgb(0,0,0); fill-rule: nonzero; opacity: 1;" transform=" matrix(1 0 0 1 0 0) " stroke-linecap="round" />
	<path d="M 36.258 83.286 H 25.84 c -0.552 0 -1 -0.447 -1 -1 V 49.008 c 0 -0.553 0.448 -1 1 -1 h 10.418 c 0.552 0 1 0.447 1 1 v 33.278 C 37.258 82.839 36.81 83.286 36.258 83.286 z M 26.84 81.286 h 8.418 V 50.008 H 26.84 V 81.286 z" style="stroke: none; stroke-width: 1; stroke-dasharray: none; stroke-linecap: butt; stroke-linejoin: miter; stroke-miterlimit: 10; fill: rgb(0,0,0); fill-rule: nonzero; opacity: 1;" transform=" matrix(1 0 0 1 0 0) " stroke-linecap="round" />
	<path d="M 25.84 81.192 H 10.733 c -0.552 0 -1 -0.447 -1 -1 v -29.09 c 0 -0.553 0.448 -1 1 -1 H 25.84 c 0.552 0 1 0.447 1 1 v 29.09 C 26.84 80.745 26.392 81.192 25.84 81.192 z M 11.733 79.192 H 24.84 v -27.09 H 11.733 V 79.192 z" style="stroke: none; stroke-width: 1; stroke-dasharray: none; stroke-linecap: butt; stroke-linejoin: miter; stroke-miterlimit: 10; fill: rgb(0,0,0); fill-rule: nonzero; opacity: 1;" transform=" matrix(1 0 0 1 0 0) " stroke-linecap="round" />
</g>
</g>
</svg>