<svg xmlns="http://www.w3.org/2000/svg" xmlns:xlink="http://www.w3.org/1999/xlink" version="1.1" width="256" height="256" viewBox="0 0 256 256" xml:space="preserve">
<desc>Created with Fabric.js 1.7.22</desc>
<defs>
</defs>
<g transform="translate(128 128) scale(0.72 0.72)" style="">
	<g style="stroke: none; stroke-width: 0; stroke-dasharray: none; stroke-linecap: butt; stroke-linejoin: miter; stroke-miterlimit: 10; fill: none; fill-rule: nonzero; opacity: 1;" transform="translate(-175.05 -175.05) scale(3.89 3.89)" >
	<path d="M 69.726 74.715 H 58.352 c -1.104 0 -2 -0.896 -2 -2 s 0.896 -2 2 -2 h 11.374 C 78.699 70.715 86 63.414 86 54.44 c 0 -7.205 -4.839 -13.631 -11.767 -15.627 c -0.855 -0.247 -1.444 -1.028 -1.446 -1.918 C 72.761 22.779 61.256 11.294 47.14 11.294 c -11.569 0 -21.744 7.813 -24.744 19.001 c -0.207 0.771 -0.853 1.346 -1.644 1.461 C 11.202 33.147 4 41.471 4 51.12 c 0 10.805 8.791 19.595 19.595 19.595 h 7.772 c 1.104 0 2 0.896 2 2 s -0.896 2 -2 2 h -7.772 C 10.585 74.715 0 64.13 0 51.12 c 0 -11.185 8.035 -20.892 18.894 -23.098 C 22.76 15.754 34.195 7.294 47.14 7.294 c 15.829 0 28.819 12.494 29.609 28.138 C 84.62 38.345 90 45.96 90 54.44 C 90 65.62 80.905 74.715 69.726 74.715 z" style="stroke: none; stroke-width: 1; stroke-dasharray: none; stroke-linecap: butt; stroke-linejoin: miter; stroke-miterlimit: 10; fill: rgb(0,128,234); fill-rule: nonzero; opacity: 1;" transform=" matrix(1 0 0 1 0 0) " stroke-linecap="round" />
	<path d="M 45 82.706 c -0.643 0 -1.23 -0.366 -1.513 -0.944 L 31.133 56.556 c -0.256 -0.522 -0.225 -1.14 0.083 -1.634 c 0.308 -0.493 0.848 -0.793 1.43 -0.793 h 6.249 V 33.341 c 0 -0.931 0.755 -1.685 1.685 -1.685 h 8.836 c 0.931 0 1.685 0.755 1.685 1.685 v 20.788 h 6.25 c 0.582 0 1.123 0.3 1.43 0.793 c 0.308 0.494 0.339 1.112 0.083 1.634 L 46.513 81.762 C 46.23 82.34 45.643 82.706 45 82.706 z" style="stroke: none; stroke-width: 1; stroke-dasharray: none; stroke-linecap: butt; stroke-linejoin: miter; stroke-miterlimit: 10; fill: rgb(0,229,98); fill-rule: nonzero; opacity: 1;" transform=" matrix(1 0 0 1 0 0) " stroke-linecap="round" />
</g>
</g>
</svg>