<svg xmlns="http://www.w3.org/2000/svg" xmlns:xlink="http://www.w3.org/1999/xlink" version="1.1" width="256" height="256" viewBox="0 0 256 256" xml:space="preserve">
<desc>Created with Fabric.js 1.7.22</desc>
<defs>
</defs>
<g transform="translate(128 128) scale(0.72 0.72)" style="">
	<g style="stroke: none; stroke-width: 0; stroke-dasharray: none; stroke-linecap: butt; stroke-linejoin: miter; stroke-miterlimit: 10; fill: none; fill-rule: nonzero; opacity: 1;" transform="translate(-175.05 -175.05) scale(3.89 3.89)" >
	<path d="M 1 69.215 v 9.381 c 0 2.125 1.723 3.848 3.848 3.848 h 68.024 c 2.125 0 3.848 -1.723 3.848 -3.848 V 36.305 c 0 -2.125 -1.723 -3.848 -3.848 -3.848 H 42.448 c -2.303 0 -4.518 -0.886 -6.186 -2.476 l -8.046 -7.669 c -1.667 -1.589 -3.882 -2.476 -6.186 -2.476 H 4.848 C 2.723 19.838 1 21.56 1 23.685 v 8.772 v 24.957" style="stroke: none; stroke-width: 1; stroke-dasharray: none; stroke-linecap: butt; stroke-linejoin: miter; stroke-miterlimit: 10; fill: rgb(255,196,49); fill-rule: nonzero; opacity: 1;" transform=" matrix(1 0 0 1 0 0) " stroke-linecap="round" />
	<path d="M 85.152 70.162 c 2.125 0 3.848 -1.723 3.848 -3.848 V 24.024 c 0 -2.125 -1.723 -3.848 -3.848 -3.848 H 54.729 c -2.303 0 -4.518 -0.886 -6.186 -2.476 l -8.046 -7.669 c -1.667 -1.589 -3.882 -2.476 -6.186 -2.476 H 17.128 c -2.125 0 -3.848 1.723 -3.848 3.848 v 58.758 H 85.152 z" style="stroke: none; stroke-width: 1; stroke-dasharray: none; stroke-linecap: butt; stroke-linejoin: miter; stroke-miterlimit: 10; fill: rgb(255,196,49); fill-rule: nonzero; opacity: 1;" transform=" matrix(1 0 0 1 0 0) " stroke-linecap="round" />
	<path d="M 72.871 83.443 H 4.848 C 2.175 83.443 0 81.269 0 78.596 v -9.381 c 0 -0.553 0.448 -1 1 -1 s 1 0.447 1 1 v 9.381 c 0 1.57 1.277 2.848 2.848 2.848 h 68.023 c 1.57 0 2.848 -1.277 2.848 -2.848 V 36.305 c 0 -1.57 -1.277 -2.848 -2.848 -2.848 H 42.448 c -2.571 0 -5.013 -0.977 -6.875 -2.751 l -8.046 -7.668 c -1.488 -1.418 -3.44 -2.2 -5.496 -2.2 H 4.848 C 3.277 20.838 2 22.115 2 23.685 v 33.729 c 0 0.553 -0.448 1 -1 1 s -1 -0.447 -1 -1 V 23.685 c 0 -2.673 2.175 -4.847 4.848 -4.847 H 22.03 c 2.572 0 5.014 0.977 6.876 2.752 l 8.046 7.668 c 1.488 1.418 3.44 2.2 5.496 2.2 h 30.423 c 2.673 0 4.848 2.175 4.848 4.848 v 42.291 C 77.719 81.269 75.544 83.443 72.871 83.443 z" style="stroke: none; stroke-width: 1; stroke-dasharray: none; stroke-linecap: butt; stroke-linejoin: miter; stroke-miterlimit: 10; fill: rgb(0,0,0); fill-rule: nonzero; opacity: 1;" transform=" matrix(1 0 0 1 0 0) " stroke-linecap="round" />
	<path d="M 85.152 71.162 c -0.553 0 -1 -0.447 -1 -1 s 0.447 -1 1 -1 c 1.57 0 2.848 -1.277 2.848 -2.848 V 24.024 c 0 -1.57 -1.277 -2.847 -2.848 -2.847 H 54.729 c -2.572 0 -5.014 -0.977 -6.876 -2.752 l -8.046 -7.668 c -1.488 -1.418 -3.44 -2.2 -5.496 -2.2 H 17.128 c -1.57 0 -2.848 1.277 -2.848 2.848 c 0 0.552 -0.448 1 -1 1 s -1 -0.448 -1 -1 c 0 -2.673 2.175 -4.848 4.848 -4.848 h 17.183 c 2.571 0 5.013 0.977 6.875 2.751 l 8.046 7.669 c 1.488 1.418 3.44 2.2 5.496 2.2 h 30.424 c 2.673 0 4.848 2.174 4.848 4.847 v 42.291 C 90 68.987 87.825 71.162 85.152 71.162 z" style="stroke: none; stroke-width: 1; stroke-dasharray: none; stroke-linecap: butt; stroke-linejoin: miter; stroke-miterlimit: 10; fill: rgb(0,0,0); fill-rule: nonzero; opacity: 1;" transform=" matrix(1 0 0 1 0 0) " stroke-linecap="round" />
</g>
</g>
</svg>