<svg xmlns="http://www.w3.org/2000/svg" xmlns:xlink="http://www.w3.org/1999/xlink" version="1.1" width="256" height="256" viewBox="0 0 256 256" xml:space="preserve">
<desc>Created with Fabric.js 1.7.22</desc>
<defs>
</defs>
<g transform="translate(128 128) scale(0.72 0.72)" style="">
	<g style="stroke: none; stroke-width: 0; stroke-dasharray: none; stroke-linecap: butt; stroke-linejoin: miter; stroke-miterlimit: 10; fill: none; fill-rule: nonzero; opacity: 1;" transform="translate(-175.05 -175.05) scale(3.89 3.89)" >
	<path d="M 89 69.78 c 0 3.826 -3.733 6.928 -8.338 6.928 H 9.338 C 4.733 76.709 1 73.607 1 69.78 V 31.507 h 8.338 h 71.324 H 89 V 69.78 z" style="stroke: none; stroke-width: 1; stroke-dasharray: none; stroke-linecap: butt; stroke-linejoin: miter; stroke-miterlimit: 10; fill: rgb(21,155,225); fill-rule: nonzero; opacity: 1;" transform=" matrix(1 0 0 1 0 0) " stroke-linecap="round" />
	<path d="M 1 69.78 l 33.867 0 h 0 c 2.367 0 4.286 -1.919 4.286 -4.286 V 63.67 c 0 -2.869 2.326 -5.194 5.194 -5.194 h 0 c 3.122 0 5.652 -2.531 5.652 -5.652 v 0 c 0 -3.122 -2.531 -5.652 -5.652 -5.652 h -9.481 c -2.367 0 -4.286 -1.919 -4.286 -4.286 v 0 c 0 -2.473 -2.005 -4.477 -4.477 -4.477 H 9.338" style="stroke: none; stroke-width: 1; stroke-dasharray: none; stroke-linecap: butt; stroke-linejoin: miter; stroke-miterlimit: 10; fill: rgb(14,171,97); fill-rule: nonzero; opacity: 1;" transform=" matrix(1 0 0 1 0 0) " stroke-linecap="round" />
	<path d="M 80.662 38.408 l -7.528 0 c -2.402 0 -4.546 1.756 -4.774 4.147 c -0.148 1.549 0.473 2.958 1.526 3.892 c 1.848 1.64 3.051 3.882 3.051 6.352 v 0.614 c 0 2.706 -2.193 4.899 -4.899 4.899 h -4.161 c -3.14 0 -5.878 2.42 -5.972 5.558 c -0.097 3.248 2.506 5.911 5.732 5.911 H 89" style="stroke: none; stroke-width: 1; stroke-dasharray: none; stroke-linecap: butt; stroke-linejoin: miter; stroke-miterlimit: 10; fill: rgb(14,171,97); fill-rule: nonzero; opacity: 1;" transform=" matrix(1 0 0 1 0 0) " stroke-linecap="round" />
	<path d="M 80.662 77.709 c -0.553 0 -1 -0.447 -1 -1 s 0.447 -1 1 -1 c 4.046 0 7.338 -2.659 7.338 -5.929 c 0 -0.553 0.447 -1 1 -1 s 1 0.447 1 1 C 90 74.152 85.812 77.709 80.662 77.709 z" style="stroke: none; stroke-width: 1; stroke-dasharray: none; stroke-linecap: butt; stroke-linejoin: miter; stroke-miterlimit: 10; fill: rgb(0,0,0); fill-rule: nonzero; opacity: 1;" transform=" matrix(1 0 0 1 0 0) " stroke-linecap="round" />
	<path d="M 34.867 70.78 H 9 c -0.552 0 -1 -0.447 -1 -1 s 0.448 -1 1 -1 h 25.867 c 1.812 0 3.286 -1.475 3.286 -3.286 V 63.67 c 0 -3.416 2.779 -6.194 6.194 -6.194 c 2.565 0 4.652 -2.087 4.652 -4.652 s -2.087 -4.652 -4.652 -4.652 h -9.48 c -2.915 0 -5.286 -2.372 -5.286 -5.286 c 0 -1.917 -1.56 -3.477 -3.478 -3.477 h -8.766 c -0.552 0 -1 -0.448 -1 -1 s 0.448 -1 1 -1 h 8.766 c 3.021 0 5.478 2.457 5.478 5.477 c 0 1.812 1.474 3.286 3.286 3.286 h 9.48 c 3.668 0 6.652 2.984 6.652 6.652 s -2.984 6.652 -6.652 6.652 c -2.313 0 -4.194 1.882 -4.194 4.194 v 1.824 C 40.153 68.409 37.782 70.78 34.867 70.78 z" style="stroke: none; stroke-width: 1; stroke-dasharray: none; stroke-linecap: butt; stroke-linejoin: miter; stroke-miterlimit: 10; fill: rgb(0,0,0); fill-rule: nonzero; opacity: 1;" transform=" matrix(1 0 0 1 0 0) " stroke-linecap="round" />
	<path d="M 81 70.78 H 63.636 c -1.837 0 -3.554 -0.727 -4.833 -2.045 s -1.953 -3.057 -1.898 -4.896 c 0.108 -3.599 3.235 -6.527 6.972 -6.527 h 4.161 c 2.15 0 3.899 -1.749 3.899 -3.899 v -0.613 c 0 -2.06 -0.964 -4.051 -2.715 -5.604 c -1.353 -1.2 -2.03 -2.926 -1.857 -4.735 c 0.271 -2.833 2.805 -5.052 5.77 -5.052 h 0.528 c 0.553 0 1 0.448 1 1 s -0.447 1 -1 1 h -0.528 c -1.945 0 -3.605 1.424 -3.779 3.242 c -0.11 1.166 0.324 2.277 1.194 3.049 c 2.185 1.939 3.388 4.461 3.388 7.101 v 0.613 c 0 3.253 -2.646 5.899 -5.899 5.899 h -4.161 c -2.666 0 -4.896 2.058 -4.972 4.588 c -0.039 1.294 0.435 2.517 1.334 3.443 s 2.105 1.438 3.397 1.438 H 81 c 0.553 0 1 0.447 1 1 S 81.553 70.78 81 70.78 z" style="stroke: none; stroke-width: 1; stroke-dasharray: none; stroke-linecap: butt; stroke-linejoin: miter; stroke-miterlimit: 10; fill: rgb(0,0,0); fill-rule: nonzero; opacity: 1;" transform=" matrix(1 0 0 1 0 0) " stroke-linecap="round" />
	<path d="M 80.662 77.709 H 9.338 C 4.189 77.709 0 74.152 0 69.78 V 31.507 c 0 -0.552 0.448 -1 1 -1 h 88 c 0.553 0 1 0.448 1 1 V 69.78 C 90 74.152 85.812 77.709 80.662 77.709 z M 2 32.507 V 69.78 c 0 3.27 3.292 5.929 7.338 5.929 h 71.324 c 4.046 0 7.338 -2.659 7.338 -5.929 V 32.507 H 2 z" style="stroke: none; stroke-width: 1; stroke-dasharray: none; stroke-linecap: butt; stroke-linejoin: miter; stroke-miterlimit: 10; fill: rgb(0,0,0); fill-rule: nonzero; opacity: 1;" transform=" matrix(1 0 0 1 0 0) " stroke-linecap="round" />
	<path d="M 1 69.78 c 0 -3.826 3.733 -6.928 8.338 -6.928 V 33.148 V 19.291 C 4.733 19.291 1 22.393 1 26.22 v 0 V 69.78" style="stroke: none; stroke-width: 1; stroke-dasharray: none; stroke-linecap: butt; stroke-linejoin: miter; stroke-miterlimit: 10; fill: rgb(188,220,254); fill-rule: nonzero; opacity: 1;" transform=" matrix(1 0 0 1 0 0) " stroke-linecap="round" />
	<path d="M 89 69.78 c 0 -3.826 -3.733 -6.928 -8.338 -6.928 V 33.148 V 19.291 c 4.605 0 8.338 3.102 8.338 6.928 v 0 V 69.78" style="stroke: none; stroke-width: 1; stroke-dasharray: none; stroke-linecap: butt; stroke-linejoin: miter; stroke-miterlimit: 10; fill: rgb(188,220,254); fill-rule: nonzero; opacity: 1;" transform=" matrix(1 0 0 1 0 0) " stroke-linecap="round" />
	<path d="M 1 70.78 c -0.552 0 -1 -0.447 -1 -1 V 26.22 c 0 -4.372 4.189 -7.929 9.338 -7.929 c 0.552 0 1 0.448 1 1 v 43.561 c 0 0.553 -0.448 1 -1 1 C 5.292 63.852 2 66.511 2 69.78 C 2 70.333 1.552 70.78 1 70.78 z M 8.338 20.346 C 4.763 20.741 2 23.225 2 26.22 v 38.662 c 1.517 -1.635 3.774 -2.752 6.338 -2.985 V 20.346 z" style="stroke: none; stroke-width: 1; stroke-dasharray: none; stroke-linecap: butt; stroke-linejoin: miter; stroke-miterlimit: 10; fill: rgb(0,0,0); fill-rule: nonzero; opacity: 1;" transform=" matrix(1 0 0 1 0 0) " stroke-linecap="round" />
	<path d="M 89 70.78 c -0.553 0 -1 -0.447 -1 -1 c 0 -3.27 -3.292 -5.929 -7.338 -5.929 c -0.553 0 -1 -0.447 -1 -1 V 19.291 c 0 -0.552 0.447 -1 1 -1 c 5.149 0 9.338 3.557 9.338 7.929 V 69.78 C 90 70.333 89.553 70.78 89 70.78 z M 81.662 61.896 c 2.563 0.233 4.821 1.351 6.338 2.985 V 26.22 c 0 -2.995 -2.763 -5.479 -6.338 -5.874 V 61.896 z" style="stroke: none; stroke-width: 1; stroke-dasharray: none; stroke-linecap: butt; stroke-linejoin: miter; stroke-miterlimit: 10; fill: rgb(0,0,0); fill-rule: nonzero; opacity: 1;" transform=" matrix(1 0 0 1 0 0) " stroke-linecap="round" />
	<path d="M 45 51.362 c 6.449 -7.888 12.897 -18.051 12.897 -25.174 S 52.123 13.291 45 13.291 s -12.897 5.774 -12.897 12.897 S 38.551 43.474 45 51.362 z" style="stroke: none; stroke-width: 1; stroke-dasharray: none; stroke-linecap: butt; stroke-linejoin: miter; stroke-miterlimit: 10; fill: rgb(238,54,22); fill-rule: nonzero; opacity: 1;" transform=" matrix(1 0 0 1 0 0) " stroke-linecap="round" />
	<circle cx="45.002" cy="26.631999999999998" r="4.862" style="stroke: none; stroke-width: 1; stroke-dasharray: none; stroke-linecap: butt; stroke-linejoin: miter; stroke-miterlimit: 10; fill: rgb(255,255,255); fill-rule: nonzero; opacity: 1;" transform="  matrix(1 0 0 1 0 0) "/>
	<path d="M 45 52.362 c -0.3 0 -0.584 -0.135 -0.774 -0.367 c -3.946 -4.826 -13.123 -17.003 -13.123 -25.807 c 0 -7.663 6.234 -13.897 13.897 -13.897 s 13.897 6.234 13.897 13.897 c 0 8.803 -9.178 20.979 -13.123 25.807 C 45.584 52.228 45.3 52.362 45 52.362 z M 45 14.291 c -6.56 0 -11.897 5.337 -11.897 11.897 c 0 7.647 7.784 18.422 11.897 23.582 c 4.114 -5.16 11.897 -15.936 11.897 -23.582 C 56.897 19.628 51.561 14.291 45 14.291 z" style="stroke: none; stroke-width: 1; stroke-dasharray: none; stroke-linecap: butt; stroke-linejoin: miter; stroke-miterlimit: 10; fill: rgb(0,0,0); fill-rule: nonzero; opacity: 1;" transform=" matrix(1 0 0 1 0 0) " stroke-linecap="round" />
	<path d="M 45 32.49 c -3.232 0 -5.862 -2.629 -5.862 -5.862 s 2.63 -5.862 5.862 -5.862 s 5.862 2.63 5.862 5.862 S 48.232 32.49 45 32.49 z M 45 22.766 c -2.13 0 -3.862 1.732 -3.862 3.862 c 0 2.129 1.732 3.862 3.862 3.862 s 3.862 -1.732 3.862 -3.862 C 48.862 24.499 47.13 22.766 45 22.766 z" style="stroke: none; stroke-width: 1; stroke-dasharray: none; stroke-linecap: butt; stroke-linejoin: miter; stroke-miterlimit: 10; fill: rgb(0,0,0); fill-rule: nonzero; opacity: 1;" transform=" matrix(1 0 0 1 0 0) " stroke-linecap="round" />
</g>
</g>
</svg>