<svg xmlns="http://www.w3.org/2000/svg" xmlns:xlink="http://www.w3.org/1999/xlink" version="1.1" width="256" height="256" viewBox="0 0 256 256" xml:space="preserve">
<desc>Created with Fabric.js 1.7.22</desc>
<defs>
</defs>
<g transform="translate(128 128) scale(0.72 0.72)" style="">
	<g style="stroke: none; stroke-width: 0; stroke-dasharray: none; stroke-linecap: butt; stroke-linejoin: miter; stroke-miterlimit: 10; fill: none; fill-rule: nonzero; opacity: 1;" transform="translate(-175.05 -175.05) scale(3.89 3.89)" >
	<path d="M 87.677 35.564 H 85.41 c -1.93 0 -3.693 -1.189 -4.323 -3.013 c -0.506 -1.466 -1.1 -2.891 -1.774 -4.269 c -0.843 -1.725 -0.446 -3.803 0.912 -5.161 l 1.625 -1.625 c 0.712 -0.712 0.712 -1.866 0 -2.578 L 71.083 8.15 c -0.712 -0.712 -1.866 -0.712 -2.578 0 L 66.88 9.776 c -1.358 1.358 -3.435 1.755 -5.161 0.912 c -1.378 -0.674 -2.803 -1.267 -4.269 -1.774 c -1.824 -0.63 -3.013 -2.393 -3.013 -4.323 V 2.323 c 0 -1.007 -0.816 -1.823 -1.823 -1.823 H 37.387 c -1.007 0 -1.823 0.816 -1.823 1.823 V 4.59 c 0 1.93 -1.189 3.693 -3.014 4.323 c -1.466 0.506 -2.891 1.1 -4.269 1.774 c -1.725 0.843 -3.803 0.446 -5.161 -0.912 L 21.495 8.15 c -0.712 -0.712 -1.866 -0.712 -2.578 0 L 8.15 18.917 c -0.712 0.712 -0.712 1.866 0 2.578 l 1.625 1.625 c 1.358 1.358 1.755 3.435 0.912 5.161 c -0.674 1.379 -1.267 2.803 -1.774 4.269 c -0.63 1.824 -2.393 3.013 -4.323 3.013 H 2.323 c -1.007 0 -1.823 0.816 -1.823 1.823 v 15.227 c 0 1.007 0.816 1.823 1.823 1.823 H 4.59 c 1.93 0 3.693 1.189 4.324 3.014 c 0.506 1.466 1.1 2.89 1.774 4.269 c 0.843 1.725 0.446 3.803 -0.912 5.161 L 8.15 68.505 c -0.712 0.712 -0.712 1.866 0 2.578 L 18.917 81.85 c 0.712 0.712 1.866 0.712 2.578 0 l 1.625 -1.625 c 1.358 -1.358 3.436 -1.755 5.161 -0.912 c 1.378 0.674 2.803 1.267 4.269 1.774 c 1.824 0.63 3.014 2.394 3.014 4.324 v 2.267 c 0 1.007 0.816 1.823 1.823 1.823 h 15.227 c 1.007 0 1.823 -0.816 1.823 -1.823 V 85.41 c 0 -1.93 1.189 -3.693 3.014 -4.323 c 1.466 -0.506 2.891 -1.1 4.269 -1.774 c 1.725 -0.843 3.803 -0.446 5.161 0.912 l 1.625 1.625 c 0.712 0.712 1.866 0.712 2.578 0 L 81.85 71.083 c 0.712 -0.712 0.712 -1.866 0 -2.578 l -1.625 -1.625 c -1.358 -1.358 -1.755 -3.436 -0.912 -5.161 c 0.674 -1.378 1.267 -2.803 1.774 -4.269 c 0.63 -1.824 2.393 -3.013 4.323 -3.013 h 2.267 c 1.007 0 1.823 -0.816 1.823 -1.823 V 37.387 C 89.5 36.38 88.684 35.564 87.677 35.564 z M 57.914 46.051 c -0.495 6.28 -5.583 11.367 -11.862 11.863 c -7.983 0.63 -14.594 -5.982 -13.965 -13.965 c 0.495 -6.28 5.583 -11.367 11.862 -11.862 C 51.931 31.457 58.543 38.069 57.914 46.051 z" style="stroke: none; stroke-width: 1; stroke-dasharray: none; stroke-linecap: butt; stroke-linejoin: miter; stroke-miterlimit: 10; fill: rgb(62,108,144); fill-rule: nonzero; opacity: 1;" transform=" matrix(1 0 0 1 0 0) " stroke-linecap="round" />
	<path d="M 43.094 21.588 C 31.71 22.486 22.486 31.709 21.588 43.094 c -1.141 14.472 10.846 26.459 25.318 25.318 c 11.385 -0.898 20.608 -10.122 21.506 -21.506 C 69.553 32.434 57.566 20.447 43.094 21.588 z M 57.914 46.051 c -0.495 6.28 -5.583 11.367 -11.862 11.863 c -7.983 0.63 -14.594 -5.982 -13.965 -13.965 c 0.495 -6.28 5.583 -11.367 11.862 -11.862 C 51.931 31.457 58.543 38.069 57.914 46.051 z" style="stroke: none; stroke-width: 1; stroke-dasharray: none; stroke-linecap: butt; stroke-linejoin: miter; stroke-miterlimit: 10; fill: rgb(255,209,92); fill-rule: nonzero; opacity: 1;" transform=" matrix(1 0 0 1 0 0) " stroke-linecap="round" />
	<path d="M 44.993 75.704 c 15.873 0 23.668 -6.415 31.937 -16.24 c 0.43 -0.51 0.583 -1.203 0.413 -1.848 l -3.098 -11.75 c -0.164 -0.62 -0.675 -1.088 -1.308 -1.195 l -23.93 -4.039 c -2.657 -0.448 -5.371 -0.448 -8.028 0 l -23.93 4.039 c -0.633 0.107 -1.144 0.574 -1.308 1.195 l -3.098 11.75 c -0.17 0.645 -0.016 1.337 0.413 1.848 C 21.325 69.289 29.12 75.704 44.993 75.704 z" style="stroke: none; stroke-width: 1; stroke-dasharray: none; stroke-linecap: butt; stroke-linejoin: miter; stroke-miterlimit: 10; fill: rgb(221,218,236); fill-rule: nonzero; opacity: 1;" transform=" matrix(1 0 0 1 0 0) " stroke-linecap="round" />
	<path d="M 44.993 67.412 c -9.335 0 -14.23 -1.816 -19.53 -4.953 c -0.237 -0.141 -0.316 -0.447 -0.175 -0.686 c 0.141 -0.236 0.448 -0.314 0.685 -0.176 c 5.274 3.122 9.867 4.814 19.02 4.814 c 9.152 0 13.746 -1.692 19.02 -4.814 c 0.236 -0.14 0.544 -0.062 0.686 0.176 c 0.141 0.238 0.062 0.545 -0.176 0.686 C 59.223 65.596 54.328 67.412 44.993 67.412 z" style="stroke: none; stroke-width: 1; stroke-dasharray: none; stroke-linecap: butt; stroke-linejoin: miter; stroke-miterlimit: 10; fill: rgb(18,34,46); fill-rule: nonzero; opacity: 1;" transform=" matrix(1 0 0 1 0 0) " stroke-linecap="round" />
	<path d="M 44.993 59.356 c -7.253 0 -11.056 -0.934 -15.174 -2.547 c -0.257 -0.101 -0.384 -0.391 -0.283 -0.648 s 0.391 -0.385 0.648 -0.283 c 4.103 1.607 7.678 2.479 14.809 2.479 c 7.132 0 10.706 -0.871 14.809 -2.479 c 0.259 -0.102 0.548 0.025 0.648 0.283 s -0.026 0.548 -0.283 0.648 C 56.05 58.423 52.246 59.356 44.993 59.356 z" style="stroke: none; stroke-width: 1; stroke-dasharray: none; stroke-linecap: butt; stroke-linejoin: miter; stroke-miterlimit: 10; fill: rgb(18,34,46); fill-rule: nonzero; opacity: 1;" transform=" matrix(1 0 0 1 0 0) " stroke-linecap="round" />
	<path d="M 55.701 50.69 c -0.042 0 -0.084 -0.005 -0.127 -0.017 c -2.931 -0.769 -5.484 -1.186 -10.581 -1.186 s -7.651 0.417 -10.582 1.186 c -0.268 0.072 -0.541 -0.089 -0.61 -0.356 c -0.07 -0.268 0.089 -0.54 0.356 -0.61 c 2.941 -0.771 5.657 -1.219 10.835 -1.219 s 7.894 0.447 10.835 1.219 c 0.267 0.07 0.427 0.343 0.356 0.61 C 56.126 50.542 55.923 50.69 55.701 50.69 z" style="stroke: none; stroke-width: 1; stroke-dasharray: none; stroke-linecap: butt; stroke-linejoin: miter; stroke-miterlimit: 10; fill: rgb(18,34,46); fill-rule: nonzero; opacity: 1;" transform=" matrix(1 0 0 1 0 0) " stroke-linecap="round" />
	<path d="M 87.677 35.064 H 85.41 c -1.75 0 -3.298 -1.076 -3.852 -2.677 c -0.506 -1.466 -1.11 -2.921 -1.797 -4.325 c -0.74 -1.516 -0.412 -3.36 0.816 -4.588 l 1.625 -1.625 c 0.906 -0.906 0.906 -2.379 0 -3.285 L 71.437 7.797 c -0.906 -0.906 -2.379 -0.906 -3.285 0 l -1.625 1.625 c -1.229 1.229 -3.072 1.558 -4.588 0.816 c -1.401 -0.685 -2.857 -1.29 -4.326 -1.797 c -1.601 -0.553 -2.676 -2.101 -2.676 -3.851 V 2.323 C 54.937 1.042 53.895 0 52.613 0 H 37.387 c -1.281 0 -2.323 1.042 -2.323 2.323 V 4.59 c 0 1.75 -1.076 3.298 -2.677 3.851 c -1.471 0.508 -2.926 1.113 -4.326 1.797 c -1.516 0.742 -3.358 0.413 -4.587 -0.816 l -1.625 -1.625 c -0.905 -0.906 -2.38 -0.906 -3.285 0 L 7.797 18.563 c -0.906 0.906 -0.906 2.379 0 3.285 l 1.625 1.625 c 1.229 1.229 1.557 3.073 0.816 4.588 c -0.685 1.399 -1.289 2.855 -1.797 4.326 c -0.553 1.601 -2.101 2.677 -3.851 2.677 H 2.323 C 1.042 35.064 0 36.106 0 37.387 v 15.227 c 0 1.281 1.042 2.323 2.323 2.323 h 2.13 l 3.805 2.259 c 0.066 0.136 0.133 0.271 0.183 0.416 c 0.507 1.469 1.112 2.925 1.797 4.326 c 0.741 1.515 0.413 3.358 -0.815 4.588 l -1.625 1.625 c -0.906 0.905 -0.906 2.38 0 3.285 l 10.767 10.767 c 0.906 0.906 2.38 0.906 3.285 0 l 1.625 -1.625 c 1.228 -1.229 3.071 -1.557 4.587 -0.816 c 1.401 0.685 2.856 1.289 4.326 1.798 c 1.601 0.553 2.677 2.101 2.677 3.851 v 2.267 c 0 1.281 1.042 2.323 2.323 2.323 h 15.227 c 1.281 0 2.323 -1.042 2.323 -2.323 V 85.41 c 0 -1.75 1.076 -3.298 2.677 -3.852 c 1.466 -0.506 2.921 -1.11 4.325 -1.797 c 1.515 -0.739 3.358 -0.413 4.588 0.816 l 1.625 1.625 c 0.906 0.906 2.379 0.906 3.285 0 l 10.767 -10.767 c 0.906 -0.905 0.906 -2.38 0 -3.285 l -1.625 -1.625 c -1.229 -1.229 -1.557 -3.072 -0.816 -4.588 c 0.686 -1.402 1.29 -2.858 1.798 -4.326 c 0.051 -0.147 0.118 -0.284 0.185 -0.422 l 3.801 -2.254 h 2.13 c 1.281 0 2.323 -1.042 2.323 -2.323 V 37.387 C 90 36.106 88.958 35.064 87.677 35.064 z M 9.386 32.713 c 0.495 -1.432 1.083 -2.85 1.75 -4.212 c 0.928 -1.899 0.523 -4.204 -1.007 -5.734 l -1.625 -1.625 c -0.516 -0.516 -0.516 -1.355 0 -1.871 L 19.271 8.504 c 0.516 -0.516 1.355 -0.516 1.871 0 l 1.625 1.625 c 1.531 1.531 3.835 1.935 5.734 1.007 c 1.363 -0.667 2.78 -1.255 4.212 -1.75 c 2.004 -0.692 3.351 -2.62 3.351 -4.796 V 2.323 C 36.064 1.593 36.657 1 37.387 1 h 15.227 c 0.729 0 1.323 0.593 1.323 1.323 V 4.59 c 0 2.176 1.346 4.103 3.35 4.796 c 1.431 0.494 2.848 1.083 4.213 1.75 c 1.899 0.927 4.203 0.524 5.734 -1.007 l 1.625 -1.625 c 0.516 -0.516 1.355 -0.516 1.871 0 l 10.767 10.767 c 0.516 0.516 0.516 1.355 0 1.871 l -1.625 1.625 c -1.53 1.53 -1.936 3.835 -1.008 5.734 c 0.669 1.367 1.257 2.785 1.75 4.213 c 0.552 1.594 1.889 2.758 3.506 3.174 l -11.306 8.256 l -3.88 -0.655 c -0.395 -6.381 -3.243 -12.219 -8.061 -16.473 c -4.913 -4.34 -11.247 -6.446 -17.817 -5.925 c -11.607 0.915 -21.05 10.358 -21.965 21.964 c -0.012 0.144 -0.018 0.288 -0.027 0.432 l -3.89 0.656 L 5.881 35.888 C 7.498 35.473 8.835 34.308 9.386 32.713 z M 76.547 59.142 c -8.768 10.417 -16.393 16.063 -31.554 16.063 c -15.162 0 -22.787 -5.646 -31.554 -16.063 c -0.325 -0.386 -0.441 -0.908 -0.313 -1.397 l 3.098 -11.75 c 0.113 -0.43 0.47 -0.755 0.908 -0.829 l 23.931 -4.039 c 1.304 -0.22 2.617 -0.331 3.93 -0.331 c 1.314 0 2.626 0.11 3.931 0.331 l 23.931 4.039 c 0.438 0.074 0.794 0.399 0.907 0.829 l 3.098 11.75 C 76.988 58.233 76.872 58.756 76.547 59.142 z M 58.022 41.647 c -1.628 -6.364 -7.499 -10.585 -14.113 -10.059 c -5.657 0.446 -10.511 4.563 -11.933 10.057 l -9.901 1.671 c 0.004 -0.061 0.006 -0.121 0.011 -0.182 c 0.876 -11.122 9.925 -20.17 21.047 -21.046 c 6.301 -0.496 12.369 1.52 17.077 5.678 c 4.558 4.026 7.275 9.53 7.709 15.553 L 58.022 41.647 z M 56.935 41.464 L 49.09 40.14 c -2.718 -0.459 -5.476 -0.46 -8.194 0 l -7.833 1.322 c 1.453 -4.868 5.839 -8.475 10.925 -8.877 C 49.958 32.106 55.278 35.816 56.935 41.464 z M 1 52.613 V 37.387 c 0 -0.729 0.593 -1.323 1.323 -1.323 h 2.104 l 11.646 8.513 c -0.387 0.284 -0.689 0.68 -0.816 1.161 l -3.098 11.75 c -0.072 0.273 -0.081 0.55 -0.062 0.825 l -3.08 -1.829 c -0.877 -1.55 -2.557 -2.548 -4.427 -2.548 H 2.323 C 1.593 53.937 1 53.343 1 52.613 z M 78.863 61.499 c -0.928 1.899 -0.522 4.204 1.008 5.734 l 1.625 1.625 c 0.516 0.516 0.516 1.355 0 1.871 L 70.729 81.496 c -0.516 0.516 -1.355 0.516 -1.871 0 l -1.625 -1.625 c -1.529 -1.529 -3.835 -1.935 -5.734 -1.008 c -1.367 0.668 -2.784 1.257 -4.212 1.75 c -2.004 0.693 -3.351 2.621 -3.351 4.797 v 2.267 c 0 0.729 -0.594 1.323 -1.323 1.323 H 37.387 c -0.729 0 -1.323 -0.594 -1.323 -1.323 V 85.41 c 0 -2.177 -1.347 -4.104 -3.35 -4.796 c -1.432 -0.495 -2.849 -1.084 -4.213 -1.751 c -0.68 -0.332 -1.412 -0.493 -2.142 -0.493 c -1.308 0 -2.61 0.519 -3.592 1.501 l -1.625 1.625 c -0.516 0.516 -1.355 0.516 -1.871 0 L 8.504 70.729 c -0.516 -0.516 -0.516 -1.355 0 -1.871 l 1.625 -1.625 c 1.531 -1.531 1.935 -3.836 1.007 -5.734 c -0.55 -1.125 -1.031 -2.29 -1.465 -3.464 l 3.059 1.817 c 8.73 10.357 16.823 16.352 32.263 16.352 c 15.441 0 23.533 -5.996 32.264 -16.353 l 3.075 -1.823 C 79.897 59.204 79.415 60.371 78.863 61.499 z M 89 52.613 c 0 0.729 -0.594 1.323 -1.323 1.323 H 85.41 c -1.867 0 -3.545 0.995 -4.423 2.541 l -3.099 1.837 c 0.019 -0.275 0.01 -0.553 -0.062 -0.827 l -3.098 -11.749 c -0.126 -0.482 -0.427 -0.878 -0.815 -1.162 l 11.659 -8.514 h 2.103 c 0.729 0 1.323 0.593 1.323 1.323 V 52.613 z" style="stroke: none; stroke-width: 1; stroke-dasharray: none; stroke-linecap: butt; stroke-linejoin: miter; stroke-miterlimit: 10; fill: rgb(18,34,46); fill-rule: nonzero; opacity: 1;" transform=" matrix(1 0 0 1 0 0) " stroke-linecap="round" />
</g>
</g>
</svg>