<svg xmlns="http://www.w3.org/2000/svg" xmlns:xlink="http://www.w3.org/1999/xlink" version="1.1" width="256" height="256" viewBox="0 0 256 256" xml:space="preserve">
<desc>Created with Fabric.js 1.7.22</desc>
<defs>
</defs>
<g transform="translate(128 128) scale(0.72 0.72)" style="">
	<g style="stroke: none; stroke-width: 0; stroke-dasharray: none; stroke-linecap: butt; stroke-linejoin: miter; stroke-miterlimit: 10; fill: none; fill-rule: nonzero; opacity: 1;" transform="translate(-175.05 -175.05) scale(3.89 3.89)" >
	<path d="M 85.309 49.723 l -0.003 -0.001 c -2.927 -1.212 -3.154 -3.921 -3.154 -4.722 c -0.001 -0.802 0.227 -3.51 3.154 -4.723 c 1.475 -0.611 2.623 -1.76 3.234 -3.234 c 0.611 -1.474 0.611 -3.099 0 -4.574 l -3.893 -9.397 c -1.262 -3.042 -4.761 -4.496 -7.809 -3.232 c -2.929 1.214 -5.004 -0.542 -5.569 -1.108 c -0.567 -0.567 -2.321 -2.643 -1.108 -5.571 c 0.61 -1.474 0.61 -3.099 -0.001 -4.573 c -0.611 -1.475 -1.76 -2.624 -3.234 -3.234 L 57.53 1.461 c -3.042 -1.259 -6.545 0.192 -7.809 3.235 C 48.509 7.621 45.801 7.849 45 7.849 s -3.51 -0.227 -4.723 -3.154 c -0.61 -1.475 -1.759 -2.624 -3.235 -3.235 c -1.475 -0.611 -3.099 -0.611 -4.575 0 l -9.394 3.892 c -1.475 0.611 -2.624 1.759 -3.235 3.234 c -0.611 1.475 -0.611 3.099 0 4.574 c 1.213 2.927 -0.542 5.004 -1.108 5.57 c -0.566 0.567 -2.64 2.323 -5.569 1.109 c -1.475 -0.61 -3.1 -0.61 -4.575 0 c -1.475 0.611 -2.624 1.76 -3.235 3.234 l -3.892 9.395 c -0.611 1.475 -0.611 3.099 0 4.575 c 0.611 1.475 1.76 2.624 3.235 3.234 C 7.62 41.49 7.848 44.199 7.848 45 c 0 0.801 -0.228 3.509 -3.157 4.723 c -3.044 1.262 -4.494 4.766 -3.233 7.807 l 3.892 9.396 c 0.611 1.475 1.76 2.623 3.235 3.234 c 1.473 0.61 3.098 0.611 4.574 0 c 2.926 -1.21 5.003 0.542 5.57 1.109 c 0.566 0.566 2.32 2.643 1.108 5.57 c -1.261 3.043 0.189 6.546 3.234 7.809 l 9.396 3.892 c 0.738 0.305 1.513 0.458 2.288 0.458 c 0.775 0 1.55 -0.153 2.287 -0.459 c 1.475 -0.611 2.624 -1.76 3.235 -3.233 c 1.213 -2.928 3.922 -3.155 4.723 -3.155 s 3.509 0.227 4.723 3.157 c 1.262 3.042 4.766 4.489 7.808 3.232 l 9.399 -3.892 c 3.042 -1.262 4.492 -4.765 3.232 -7.808 c -1.212 -2.927 0.542 -5.004 1.109 -5.57 c 0.567 -0.567 2.639 -2.323 5.571 -1.108 c 3.045 1.256 6.545 -0.192 7.809 -3.235 l 3.893 -9.396 C 89.801 54.487 88.351 50.985 85.309 49.723 z M 45 65.999 c -11.579 0 -21 -9.42 -21 -20.999 c 0 -11.579 9.42 -20.999 21 -20.999 s 21 9.42 21 20.999 C 65.999 56.579 56.579 65.999 45 65.999 z" style="stroke: none; stroke-width: 1; stroke-dasharray: none; stroke-linecap: butt; stroke-linejoin: miter; stroke-miterlimit: 10; fill: rgb(255,226,122); fill-rule: nonzero; opacity: 1;" transform=" matrix(1 0 0 1 0 0) " stroke-linecap="round" />
	<path d="M 14.702 23.636 c -0.236 0 -0.467 -0.046 -0.687 -0.138 c -0.443 -0.183 -0.787 -0.528 -0.97 -0.97 c -0.244 -0.589 -0.764 -0.652 -0.977 -0.652 c -0.212 0 -0.732 0.064 -0.977 0.653 c -0.378 0.912 -1.429 1.348 -2.343 0.97 l -2.416 -1.001 c -0.913 -0.379 -1.348 -1.43 -0.97 -2.343 c 0.251 -0.606 -0.112 -1.035 -0.229 -1.152 c -0.15 -0.15 -0.563 -0.473 -1.152 -0.229 c -0.914 0.377 -1.964 -0.058 -2.343 -0.971 l -1.001 -2.416 c -0.378 -0.913 0.057 -1.964 0.97 -2.343 l 0.018 -0.007 c 0.572 -0.237 0.635 -0.758 0.635 -0.97 c 0 -0.166 -0.046 -0.726 -0.652 -0.977 c -0.442 -0.183 -0.787 -0.528 -0.971 -0.971 c -0.183 -0.442 -0.183 -0.93 0 -1.373 l 1.001 -2.416 c 0.379 -0.913 1.431 -1.349 2.343 -0.97 c 0.589 0.244 1.001 -0.079 1.151 -0.229 c 0.15 -0.15 0.473 -0.563 0.229 -1.152 c -0.183 -0.443 -0.183 -0.93 0 -1.372 c 0.183 -0.443 0.528 -0.788 0.971 -0.971 l 2.416 -1.001 c 0.913 -0.378 1.964 0.057 2.343 0.971 c 0.244 0.588 0.764 0.652 0.976 0.652 c 0.212 0 0.733 -0.064 0.977 -0.652 c 0.183 -0.442 0.527 -0.787 0.971 -0.971 c 0.442 -0.183 0.93 -0.184 1.373 0 l 2.415 1 c 0.443 0.183 0.788 0.528 0.971 0.971 c 0.184 0.443 0.184 0.93 0 1.373 c -0.244 0.588 0.079 1.002 0.229 1.152 c 0.15 0.15 0.563 0.474 1.152 0.229 c 0.443 -0.183 0.931 -0.183 1.373 0 c 0.443 0.183 0.788 0.528 0.971 0.971 l 1 2.415 c 0.184 0.443 0.184 0.93 0 1.373 c -0.184 0.443 -0.528 0.787 -0.971 0.971 c -0.589 0.244 -0.652 0.764 -0.652 0.977 c 0 0.212 0.064 0.732 0.653 0.977 c 0.913 0.379 1.348 1.43 0.97 2.343 l -1 2.416 c -0.183 0.442 -0.528 0.787 -0.971 0.971 c -0.442 0.183 -0.93 0.183 -1.373 0 c -0.588 -0.244 -1.002 0.079 -1.152 0.229 c -0.15 0.15 -0.472 0.563 -0.229 1.152 c 0.183 0.442 0.183 0.929 -0.001 1.372 c -0.184 0.443 -0.528 0.788 -0.97 0.971 l -2.416 1.001 C 15.168 23.59 14.937 23.636 14.702 23.636 z M 12.068 21.361 c 0.246 0 1.079 0.07 1.452 0.97 c 0.131 0.316 0.376 0.561 0.692 0.692 c 0.315 0.131 0.665 0.13 0.98 0 l 2.416 -1.001 c 0.315 -0.131 0.561 -0.377 0.692 -0.693 c 0.131 -0.316 0.131 -0.663 0.001 -0.979 c -0.373 -0.899 0.166 -1.538 0.34 -1.712 c 0.175 -0.174 0.815 -0.712 1.712 -0.341 c 0.317 0.131 0.664 0.131 0.979 0 c 0.316 -0.131 0.562 -0.377 0.692 -0.692 l 1 -2.416 c 0.27 -0.651 -0.04 -1.401 -0.692 -1.671 c -0.9 -0.373 -0.971 -1.205 -0.971 -1.452 c 0 -0.246 0.07 -1.079 0.97 -1.452 c 0.316 -0.131 0.562 -0.377 0.692 -0.692 c 0.131 -0.316 0.131 -0.663 0 -0.979 l -1 -2.415 c -0.131 -0.316 -0.377 -0.562 -0.692 -0.692 c -0.316 -0.131 -0.663 -0.131 -0.979 0 c -0.9 0.373 -1.538 -0.167 -1.712 -0.341 c -0.174 -0.174 -0.713 -0.813 -0.34 -1.712 c 0.131 -0.316 0.131 -0.663 0 -0.979 c -0.131 -0.316 -0.377 -0.562 -0.693 -0.692 l -2.415 -1 c -0.316 -0.131 -0.663 -0.131 -0.979 0 c -0.316 0.131 -0.562 0.377 -0.692 0.692 c -0.373 0.9 -1.205 0.97 -1.452 0.97 c -0.246 0 -1.078 -0.07 -1.451 -0.969 c -0.27 -0.652 -1.021 -0.963 -1.671 -0.693 L 6.53 2.114 C 6.214 2.244 5.968 2.49 5.837 2.806 c -0.131 0.316 -0.131 0.663 0 0.979 c 0.373 0.9 -0.166 1.538 -0.341 1.712 C 5.323 5.671 4.686 6.211 3.785 5.838 c -0.651 -0.27 -1.401 0.04 -1.672 0.692 L 1.112 8.945 c -0.131 0.316 -0.131 0.663 0 0.979 c 0.131 0.316 0.377 0.562 0.692 0.693 c 0.901 0.373 0.97 1.205 0.97 1.452 c 0 0.246 -0.07 1.078 -0.97 1.451 l -0.099 -0.237 l 0.099 0.237 c -0.651 0.27 -0.961 1.02 -0.692 1.671 l 1.001 2.416 c 0.27 0.651 1.02 0.961 1.672 0.692 c 0.899 -0.373 1.538 0.166 1.712 0.341 c 0.174 0.174 0.714 0.812 0.341 1.712 c -0.27 0.651 0.041 1.401 0.692 1.671 l 2.416 1.001 c 0.651 0.269 1.401 -0.041 1.671 -0.692 C 10.99 21.432 11.822 21.361 12.068 21.361 z" style="stroke: none; stroke-width: 1; stroke-dasharray: none; stroke-linecap: butt; stroke-linejoin: miter; stroke-miterlimit: 10; fill: rgb(0,0,0); fill-rule: nonzero; opacity: 1;" transform=" matrix(3.89 0 0 3.89 -1.9444444444444287 -1.9444444444444287) " stroke-linecap="round" />
	<path d="M 24.598 40.067 c -0.093 0 -0.187 -0.013 -0.28 -0.041 c -0.53 -0.155 -0.835 -0.71 -0.68 -1.24 c 2.758 -9.457 11.553 -16.063 21.387 -16.063 c 9.834 0 18.629 6.605 21.387 16.062 c 0.154 0.53 -0.149 1.085 -0.68 1.24 c -0.537 0.157 -1.086 -0.151 -1.24 -0.68 c -2.512 -8.61 -10.516 -14.623 -19.467 -14.623 s -16.956 6.013 -19.467 14.622 C 25.43 39.784 25.031 40.067 24.598 40.067 z" style="stroke: none; stroke-width: 1; stroke-dasharray: none; stroke-linecap: butt; stroke-linejoin: miter; stroke-miterlimit: 10; fill: rgb(0,0,0); fill-rule: nonzero; opacity: 1;" transform=" matrix(1 0 0 1 0 0) " stroke-linecap="round" />
	<path d="M 65.452 40.067 c -0.148 0 -0.296 -0.033 -0.433 -0.098 l -5.073 -2.432 c -0.498 -0.239 -0.708 -0.836 -0.469 -1.334 c 0.238 -0.498 0.835 -0.71 1.334 -0.47 l 4.171 2 l 2 -4.17 c 0.238 -0.498 0.835 -0.71 1.334 -0.47 c 0.498 0.239 0.708 0.836 0.469 1.334 l -2.432 5.072 c -0.114 0.239 -0.319 0.423 -0.569 0.511 C 65.676 40.048 65.564 40.067 65.452 40.067 z" style="stroke: none; stroke-width: 1; stroke-dasharray: none; stroke-linecap: butt; stroke-linejoin: miter; stroke-miterlimit: 10; fill: rgb(0,0,0); fill-rule: nonzero; opacity: 1;" transform=" matrix(1 0 0 1 0 0) " stroke-linecap="round" />
	<path d="M 44.809 67.187 c -9.834 0 -18.629 -6.605 -21.387 -16.062 c -0.155 -0.53 0.15 -1.086 0.68 -1.24 c 0.53 -0.153 1.085 0.149 1.24 0.68 c 2.511 8.61 10.516 14.623 19.467 14.623 s 16.956 -6.013 19.466 -14.623 c 0.153 -0.528 0.702 -0.837 1.24 -0.68 c 0.53 0.154 0.834 0.71 0.68 1.24 C 63.437 60.582 54.642 67.187 44.809 67.187 z" style="stroke: none; stroke-width: 1; stroke-dasharray: none; stroke-linecap: butt; stroke-linejoin: miter; stroke-miterlimit: 10; fill: rgb(0,0,0); fill-rule: nonzero; opacity: 1;" transform=" matrix(1 0 0 1 0 0) " stroke-linecap="round" />
	<path d="M 21.901 57.015 c -0.145 0 -0.292 -0.031 -0.432 -0.099 c -0.498 -0.238 -0.708 -0.836 -0.469 -1.334 l 2.479 -5.171 c 0.239 -0.498 0.837 -0.709 1.334 -0.469 l 5.171 2.479 c 0.498 0.238 0.708 0.836 0.47 1.334 c -0.239 0.498 -0.837 0.709 -1.334 0.469 l -4.27 -2.047 l -2.047 4.269 C 22.632 56.806 22.274 57.015 21.901 57.015 z" style="stroke: none; stroke-width: 1; stroke-dasharray: none; stroke-linecap: butt; stroke-linejoin: miter; stroke-miterlimit: 10; fill: rgb(0,0,0); fill-rule: nonzero; opacity: 1;" transform=" matrix(1 0 0 1 0 0) " stroke-linecap="round" />
</g>
</g>
</svg>