<svg xmlns="http://www.w3.org/2000/svg" xmlns:xlink="http://www.w3.org/1999/xlink" version="1.1" width="256" height="256" viewBox="0 0 256 256" xml:space="preserve">
<desc>Created with Fabric.js 1.7.22</desc>
<defs>
</defs>
<g transform="translate(128 128) scale(0.72 0.72)" style="">
	<g style="stroke: none; stroke-width: 0; stroke-dasharray: none; stroke-linecap: butt; stroke-linejoin: miter; stroke-miterlimit: 10; fill: none; fill-rule: nonzero; opacity: 1;" transform="translate(-175.05 -175.05) scale(3.89 3.89)" >
	<path d="M 51.651 8.591 h 33.444 c 2.157 0 3.905 1.749 3.905 3.905 v 47.872 H 1 V 12.497 c 0 -2.157 1.749 -3.905 3.905 -3.905 h 4.898 H 51.651 z" style="stroke: none; stroke-width: 1; stroke-dasharray: none; stroke-linecap: butt; stroke-linejoin: miter; stroke-miterlimit: 10; fill: rgb(238,240,245); fill-rule: nonzero; opacity: 1;" transform=" matrix(1 0 0 1 0 0) " stroke-linecap="round" />
	<path d="M 85.095 77.773 H 4.905 C 2.749 77.773 1 76.024 1 73.867 V 60.369 h 88 v 13.498 C 89 76.024 87.251 77.773 85.095 77.773 z" style="stroke: none; stroke-width: 1; stroke-dasharray: none; stroke-linecap: butt; stroke-linejoin: miter; stroke-miterlimit: 10; fill: rgb(240,114,129); fill-rule: nonzero; opacity: 1;" transform=" matrix(1 0 0 1 0 0) " stroke-linecap="round" />
	<polyline points="27.12,69.07 18.74,73.26 18.74,64.88 27.12,69.07 " style="stroke: none; stroke-width: 1; stroke-dasharray: none; stroke-linecap: butt; stroke-linejoin: miter; stroke-miterlimit: 10; fill: rgb(255,255,255); fill-rule: nonzero; opacity: 1;" transform="  matrix(1 0 0 1 0 0) "/>
	<path d="M 89 61.369 H 1 c -0.552 0 -1 -0.447 -1 -1 V 12.497 c 0 -2.705 2.201 -4.905 4.905 -4.905 h 80.189 C 87.8 7.591 90 9.792 90 12.497 v 47.873 C 90 60.922 89.553 61.369 89 61.369 z M 2 59.369 h 86 V 12.497 c 0 -1.602 -1.304 -2.905 -2.905 -2.905 H 4.905 C 3.303 9.591 2 10.895 2 12.497 V 59.369 z" style="stroke: none; stroke-width: 1; stroke-dasharray: none; stroke-linecap: butt; stroke-linejoin: miter; stroke-miterlimit: 10; fill: rgb(0,0,0); fill-rule: nonzero; opacity: 1;" transform=" matrix(1 0 0 1 0 0) " stroke-linecap="round" />
	<path d="M 85.095 78.772 H 4.905 c -2.705 0 -4.905 -2.2 -4.905 -4.905 V 60.369 c 0 -0.553 0.448 -1 1 -1 h 88 c 0.553 0 1 0.447 1 1 v 13.498 C 90 76.572 87.8 78.772 85.095 78.772 z M 2 61.369 v 12.498 c 0 1.602 1.303 2.905 2.905 2.905 h 80.189 c 1.602 0 2.905 -1.304 2.905 -2.905 V 61.369 H 2 z" style="stroke: none; stroke-width: 1; stroke-dasharray: none; stroke-linecap: butt; stroke-linejoin: miter; stroke-miterlimit: 10; fill: rgb(0,0,0); fill-rule: nonzero; opacity: 1;" transform=" matrix(1 0 0 1 0 0) " stroke-linecap="round" />
	<path d="M 82.659 70.07 H 33.122 c -0.552 0 -1 -0.447 -1 -1 s 0.448 -1 1 -1 h 49.538 c 0.553 0 1 0.447 1 1 S 83.212 70.07 82.659 70.07 z" style="stroke: none; stroke-width: 1; stroke-dasharray: none; stroke-linecap: butt; stroke-linejoin: miter; stroke-miterlimit: 10; fill: rgb(0,0,0); fill-rule: nonzero; opacity: 1;" transform=" matrix(1 0 0 1 0 0) " stroke-linecap="round" />
	<path d="M 13.736 70.07 H 7.341 c -0.552 0 -1 -0.447 -1 -1 s 0.448 -1 1 -1 h 6.396 c 0.552 0 1 0.447 1 1 S 14.289 70.07 13.736 70.07 z" style="stroke: none; stroke-width: 1; stroke-dasharray: none; stroke-linecap: butt; stroke-linejoin: miter; stroke-miterlimit: 10; fill: rgb(0,0,0); fill-rule: nonzero; opacity: 1;" transform=" matrix(1 0 0 1 0 0) " stroke-linecap="round" />
	<path d="M 18.736 74.264 c -0.183 0 -0.365 -0.05 -0.526 -0.149 c -0.294 -0.182 -0.474 -0.504 -0.474 -0.851 v -8.386 c 0 -0.347 0.18 -0.668 0.474 -0.851 c 0.295 -0.183 0.663 -0.198 0.973 -0.044 l 8.385 4.192 c 0.339 0.17 0.553 0.516 0.553 0.895 s -0.214 0.725 -0.553 0.895 l -8.385 4.193 C 19.042 74.229 18.889 74.264 18.736 74.264 z M 19.736 66.496 v 5.149 l 5.149 -2.575 L 19.736 66.496 z" style="stroke: none; stroke-width: 1; stroke-dasharray: none; stroke-linecap: butt; stroke-linejoin: miter; stroke-miterlimit: 10; fill: rgb(0,0,0); fill-rule: nonzero; opacity: 1;" transform=" matrix(1 0 0 1 0 0) " stroke-linecap="round" />
	<ellipse cx="61.263000000000005" cy="43.515" rx="12.553" ry="4.945" style="stroke: none; stroke-width: 1; stroke-dasharray: none; stroke-linecap: butt; stroke-linejoin: miter; stroke-miterlimit: 10; fill: rgb(249,208,112); fill-rule: nonzero; opacity: 1;" transform=" matrix(0.7071 -0.7071 0.7071 0.7071 -12.8235 56.065) "/>
	<ellipse cx="61.265" cy="43.513000000000005" rx="4.945" ry="12.553" style="stroke: none; stroke-width: 1; stroke-dasharray: none; stroke-linecap: butt; stroke-linejoin: miter; stroke-miterlimit: 10; fill: rgb(249,208,112); fill-rule: nonzero; opacity: 1;" transform=" matrix(0.7071 -0.7071 0.7071 0.7071 -12.8235 56.065) "/>
	<path d="M 39.918 28.509 l 3.204 -6.119 l 3.232 -1.241 c 0.603 -0.231 0.651 -1.065 0.079 -1.365 l -1.528 -0.8 l -5.781 -3.027 l -1.528 -0.8 c -0.572 -0.299 -1.23 0.215 -1.077 0.842 l 0.821 3.363 l -3.205 6.121 c -0.372 0.711 -1.149 1.115 -1.944 1.004 c -5.648 -0.793 -11.439 2.088 -14.034 7.601 c -2.896 6.154 -0.649 13.645 5.163 17.179 c 6.697 4.072 15.33 1.598 18.908 -5.236 c 2.712 -5.179 1.711 -11.317 -2.05 -15.372 C 39.64 30.079 39.551 29.211 39.918 28.509 z" style="stroke: none; stroke-width: 1; stroke-dasharray: none; stroke-linecap: butt; stroke-linejoin: miter; stroke-miterlimit: 10; fill: rgb(179,218,254); fill-rule: nonzero; opacity: 1;" transform=" matrix(1 0 0 1 0 0) " stroke-linecap="round" />
	<path d="M 30.294 54.245 c -2.611 0 -5.182 -0.718 -7.493 -2.123 c -6.207 -3.773 -8.644 -11.881 -5.548 -18.458 c 2.714 -5.769 8.774 -9.053 15.078 -8.166 c 0.376 0.056 0.742 -0.14 0.918 -0.477 l 3.031 -5.788 l -0.731 -2.997 c -0.165 -0.677 0.073 -1.364 0.622 -1.793 c 0.549 -0.429 1.274 -0.495 1.891 -0.172 l 8.835 4.627 c 0.617 0.323 0.977 0.956 0.936 1.651 c -0.04 0.696 -0.47 1.283 -1.12 1.533 l -2.879 1.106 l -3.029 5.785 c -0.178 0.34 -0.134 0.744 0.108 1.006 c 4.148 4.473 5.033 11.11 2.203 16.516 c -1.843 3.521 -5.097 6.149 -8.927 7.214 C 32.899 54.067 31.592 54.245 30.294 54.245 z M 30.295 27.355 c -4.772 0 -9.147 2.728 -11.233 7.16 c -2.666 5.666 -0.567 12.649 4.778 15.898 c 2.982 1.813 6.466 2.3 9.812 1.369 c 3.348 -0.931 6.08 -3.138 7.691 -6.215 c 2.438 -4.657 1.676 -10.375 -1.898 -14.228 c -0.817 -0.882 -0.983 -2.206 -0.413 -3.294 l 3.379 -6.454 l 3.068 -1.178 L 37.623 16.3 l 0.779 3.192 l -3.381 6.456 c -0.567 1.085 -1.762 1.7 -2.968 1.53 C 31.464 27.396 30.876 27.355 30.295 27.355 z" style="stroke: none; stroke-width: 1; stroke-dasharray: none; stroke-linecap: butt; stroke-linejoin: miter; stroke-miterlimit: 10; fill: rgb(0,0,0); fill-rule: nonzero; opacity: 1;" transform=" matrix(1 0 0 1 0 0) " stroke-linecap="round" />
	<path d="M 38.09 37.445 c -0.388 0 -0.757 -0.227 -0.919 -0.606 c -1.667 -3.883 -6.18 -5.687 -10.063 -4.021 c -0.841 0.361 -1.602 0.861 -2.26 1.487 c -0.4 0.38 -1.033 0.365 -1.414 -0.036 c -0.38 -0.4 -0.364 -1.034 0.036 -1.414 c 0.831 -0.79 1.79 -1.42 2.85 -1.875 c 4.895 -2.101 10.587 0.174 12.689 5.069 c 0.218 0.508 -0.017 1.096 -0.524 1.313 C 38.355 37.418 38.221 37.445 38.09 37.445 z" style="stroke: none; stroke-width: 1; stroke-dasharray: none; stroke-linecap: butt; stroke-linejoin: miter; stroke-miterlimit: 10; fill: rgb(0,0,0); fill-rule: nonzero; opacity: 1;" transform=" matrix(1 0 0 1 0 0) " stroke-linecap="round" />
	<path d="M 56.633 29.639 c -0.323 0 -0.631 -0.157 -0.82 -0.427 l -3.439 -4.925 c -0.315 -0.453 -0.205 -1.076 0.248 -1.393 c 0.452 -0.315 1.076 -0.206 1.393 0.247 l 2.271 3.251 l 2.99 -9.621 c 0.13 -0.418 0.518 -0.703 0.955 -0.703 h 8.569 c 0.553 0 1 0.448 1 1 s -0.447 1 -1 1 h -7.833 l -3.378 10.867 c -0.113 0.364 -0.425 0.633 -0.802 0.691 C 56.735 29.635 56.684 29.639 56.633 29.639 z" style="stroke: none; stroke-width: 1; stroke-dasharray: none; stroke-linecap: butt; stroke-linejoin: miter; stroke-miterlimit: 10; fill: rgb(0,0,0); fill-rule: nonzero; opacity: 1;" transform=" matrix(1 0 0 1 0 0) " stroke-linecap="round" />
	<path d="M 66.934 29.483 c -0.269 0 -0.536 -0.107 -0.733 -0.32 l -5.217 -5.628 c -0.375 -0.405 -0.352 -1.038 0.054 -1.413 c 0.404 -0.376 1.037 -0.353 1.413 0.054 l 5.217 5.628 c 0.375 0.405 0.352 1.038 -0.054 1.413 C 67.421 29.395 67.177 29.483 66.934 29.483 z" style="stroke: none; stroke-width: 1; stroke-dasharray: none; stroke-linecap: butt; stroke-linejoin: miter; stroke-miterlimit: 10; fill: rgb(0,0,0); fill-rule: nonzero; opacity: 1;" transform=" matrix(1 0 0 1 0 0) " stroke-linecap="round" />
	<path d="M 61.717 29.483 c -0.243 0 -0.487 -0.088 -0.68 -0.267 c -0.405 -0.375 -0.429 -1.008 -0.054 -1.413 l 5.217 -5.628 c 0.376 -0.406 1.008 -0.43 1.413 -0.054 c 0.405 0.375 0.429 1.008 0.054 1.413 l -5.217 5.628 C 62.253 29.375 61.985 29.483 61.717 29.483 z" style="stroke: none; stroke-width: 1; stroke-dasharray: none; stroke-linecap: butt; stroke-linejoin: miter; stroke-miterlimit: 10; fill: rgb(0,0,0); fill-rule: nonzero; opacity: 1;" transform=" matrix(1 0 0 1 0 0) " stroke-linecap="round" />
	<path d="M 54.265 54.061 c -1.028 0 -1.915 -0.297 -2.583 -0.965 c -2.73 -2.73 0.734 -9.141 5.38 -13.787 s 11.055 -8.113 13.787 -5.38 c 2.73 2.73 -0.734 9.141 -5.381 13.787 C 61.958 51.225 57.441 54.061 54.265 54.061 z M 68.243 34.968 c -1.995 0 -5.779 1.767 -9.768 5.755 c -5.062 5.062 -6.545 9.794 -5.38 10.959 c 1.167 1.167 5.896 -0.32 10.958 -5.381 l 0 0 c 5.062 -5.061 6.545 -9.793 5.381 -10.958 C 69.188 35.095 68.78 34.968 68.243 34.968 z" style="stroke: none; stroke-width: 1; stroke-dasharray: none; stroke-linecap: butt; stroke-linejoin: miter; stroke-miterlimit: 10; fill: rgb(0,0,0); fill-rule: nonzero; opacity: 1;" transform=" matrix(1 0 0 1 0 0) " stroke-linecap="round" />
	<path d="M 68.265 54.061 c -3.177 0 -7.693 -2.836 -11.203 -6.346 c -2.458 -2.458 -4.397 -5.16 -5.463 -7.608 c -1.191 -2.74 -1.162 -4.934 0.083 -6.178 c 1.245 -1.246 3.438 -1.273 6.178 -0.083 c 2.448 1.065 5.15 3.005 7.608 5.463 c 4.646 4.646 8.11 11.057 5.381 13.787 C 70.181 53.763 69.293 54.061 68.265 54.061 z M 54.28 34.971 c -0.527 0 -0.936 0.123 -1.185 0.371 c -0.597 0.597 -0.468 2.116 0.337 3.966 c 0.968 2.225 2.759 4.708 5.043 6.992 c 5.06 5.06 9.791 6.543 10.959 5.381 c 1.164 -1.165 -0.319 -5.897 -5.381 -10.959 c -2.284 -2.285 -4.768 -4.075 -6.992 -5.043 C 55.982 35.211 55.017 34.971 54.28 34.971 z" style="stroke: none; stroke-width: 1; stroke-dasharray: none; stroke-linecap: butt; stroke-linejoin: miter; stroke-miterlimit: 10; fill: rgb(0,0,0); fill-rule: nonzero; opacity: 1;" transform=" matrix(1 0 0 1 0 0) " stroke-linecap="round" />
	<path d="M 61.265 45.011 c -0.384 0 -0.769 -0.146 -1.061 -0.438 c -0.585 -0.585 -0.585 -1.536 0 -2.121 c 0.584 -0.585 1.537 -0.585 2.121 0 c 0.585 0.585 0.585 1.536 0 2.121 C 62.033 44.865 61.648 45.011 61.265 45.011 z M 61.265 43.012 c -0.128 0 -0.256 0.049 -0.354 0.146 c -0.195 0.195 -0.195 0.512 0 0.707 c 0.195 0.195 0.512 0.195 0.707 0 c 0.195 -0.195 0.195 -0.512 0 -0.707 C 61.521 43.061 61.393 43.012 61.265 43.012 z" style="stroke: none; stroke-width: 1; stroke-dasharray: none; stroke-linecap: butt; stroke-linejoin: miter; stroke-miterlimit: 10; fill: rgb(0,0,0); fill-rule: nonzero; opacity: 1;" transform=" matrix(1 0 0 1 0 0) " stroke-linecap="round" />
</g>
</g>
</svg>