<svg xmlns="http://www.w3.org/2000/svg" xmlns:xlink="http://www.w3.org/1999/xlink" version="1.1" width="256" height="256" viewBox="0 0 256 256" xml:space="preserve">
<desc>Created with Fabric.js 1.7.22</desc>
<defs>
</defs>
<g transform="translate(128 128) scale(0.72 0.72)" style="">
	<g style="stroke: none; stroke-width: 0; stroke-dasharray: none; stroke-linecap: butt; stroke-linejoin: miter; stroke-miterlimit: 10; fill: none; fill-rule: nonzero; opacity: 1;" transform="translate(-175.05 -175.05) scale(3.89 3.89)" >
	<path d="M 12.39 79.61 c -0.512 0 -1.024 -0.195 -1.414 -0.586 c -0.781 -0.781 -0.781 -2.047 0 -2.828 l 65.221 -65.221 c 0.781 -0.781 2.047 -0.781 2.828 0 c 0.781 0.781 0.781 2.047 0 2.828 L 13.804 79.024 C 13.414 79.415 12.901 79.61 12.39 79.61 z" style="stroke: none; stroke-width: 1; stroke-dasharray: none; stroke-linecap: butt; stroke-linejoin: miter; stroke-miterlimit: 10; fill: rgb(0,0,0); fill-rule: nonzero; opacity: 1;" transform=" matrix(1 0 0 1 0 0) " stroke-linecap="round" />
	<path d="M 44.954 72.856 c -4.485 0 -8.968 -0.801 -13.445 -2.406 c -1.04 -0.373 -1.581 -1.519 -1.208 -2.558 c 0.374 -1.041 1.521 -1.582 2.558 -1.208 C 50.152 72.888 67.815 65.589 85.386 45 c -4.967 -5.821 -9.979 -10.632 -14.915 -14.314 c -0.885 -0.661 -1.067 -1.914 -0.407 -2.799 c 0.661 -0.886 1.914 -1.069 2.8 -0.407 c 5.545 4.137 11.155 9.601 16.675 16.242 c 0.616 0.741 0.616 1.816 0 2.557 C 74.839 63.962 59.894 72.856 44.954 72.856 z" style="stroke: none; stroke-width: 1; stroke-dasharray: none; stroke-linecap: butt; stroke-linejoin: miter; stroke-miterlimit: 10; fill: rgb(0,0,0); fill-rule: nonzero; opacity: 1;" transform=" matrix(1 0 0 1 0 0) " stroke-linecap="round" />
	<path d="M 61.212 39.539 c 0.577 1.715 0.89 3.551 0.89 5.461 c 0 9.445 -7.657 17.102 -17.102 17.102 c -1.909 0 -3.745 -0.313 -5.459 -0.89" style="stroke: none; stroke-width: 1; stroke-dasharray: none; stroke-linecap: butt; stroke-linejoin: miter; stroke-miterlimit: 10; fill: rgb(0,0,0); fill-rule: nonzero; opacity: 1;" transform=" matrix(1 0 0 1 0 0) " stroke-linecap="round" />
	<path d="M 24.828 67.173 c -0.336 0 -0.675 -0.085 -0.982 -0.258 C 16.058 62.52 8.19 55.576 0.462 46.278 c -0.616 -0.741 -0.616 -1.816 0 -2.557 C 22.128 17.656 44.23 10.712 66.155 23.085 c 0.544 0.307 0.913 0.852 0.998 1.471 c 0.085 0.62 -0.125 1.243 -0.567 1.685 L 26.242 66.587 C 25.857 66.972 25.345 67.173 24.828 67.173 z M 4.614 45 c 6.626 7.766 13.306 13.699 19.89 17.668 l 37.341 -37.343 C 42.734 15.827 23.977 22.281 4.614 45 z" style="stroke: none; stroke-width: 1; stroke-dasharray: none; stroke-linecap: butt; stroke-linejoin: miter; stroke-miterlimit: 10; fill: rgb(0,0,0); fill-rule: nonzero; opacity: 1;" transform=" matrix(1 0 0 1 0 0) " stroke-linecap="round" />
	<path d="M 56.988 32.803 C 53.902 29.769 49.67 27.898 45 27.898 c -9.445 0 -17.102 7.657 -17.102 17.102 c 0 4.723 1.914 8.998 5.009 12.093 L 56.988 32.803 z" style="stroke: none; stroke-width: 1; stroke-dasharray: none; stroke-linecap: butt; stroke-linejoin: miter; stroke-miterlimit: 10; fill: rgb(0,0,0); fill-rule: nonzero; opacity: 1;" transform=" matrix(1 0 0 1 0 0) " stroke-linecap="round" />
</g>
</g>
</svg>