<svg xmlns="http://www.w3.org/2000/svg" xmlns:xlink="http://www.w3.org/1999/xlink" version="1.1" width="256" height="256" viewBox="0 0 256 256" xml:space="preserve">
<desc>Created with Fabric.js 1.7.22</desc>
<defs>
</defs>
<g transform="translate(128 128) scale(0.72 0.72)" style="">
	<g style="stroke: none; stroke-width: 0; stroke-dasharray: none; stroke-linecap: butt; stroke-linejoin: miter; stroke-miterlimit: 10; fill: none; fill-rule: nonzero; opacity: 1;" transform="translate(-175.05 -175.05) scale(3.89 3.89)" >
	<polygon points="50.36,82.5 50.36,64.1 74.72,31.97 15.28,31.97 39.64,64.1 39.64,89 " style="stroke: none; stroke-width: 1; stroke-dasharray: none; stroke-linecap: butt; stroke-linejoin: miter; stroke-miterlimit: 10; fill: rgb(217,243,252); fill-rule: nonzero; opacity: 1;" transform="  matrix(1 0 0 1 0 0) "/>
	<path d="M 39.642 90 c -0.169 0 -0.338 -0.043 -0.491 -0.129 c -0.314 -0.177 -0.509 -0.51 -0.509 -0.871 V 64.436 l -24.16 -31.861 c -0.229 -0.302 -0.268 -0.709 -0.099 -1.049 c 0.169 -0.34 0.516 -0.555 0.896 -0.555 h 59.441 c 0.38 0 0.727 0.215 0.896 0.555 c 0.169 0.34 0.131 0.747 -0.099 1.049 L 51.358 64.436 v 18.068 c 0 0.35 -0.183 0.674 -0.481 0.855 l -10.716 6.496 C 40.001 89.951 39.822 90 39.642 90 z M 17.292 32.971 l 23.146 30.524 c 0.132 0.174 0.203 0.387 0.203 0.604 v 23.125 l 8.716 -5.284 V 64.1 c 0 -0.218 0.071 -0.431 0.203 -0.604 l 23.146 -30.524 H 17.292 z M 50.358 82.504 h 0.01 H 50.358 z" style="stroke: none; stroke-width: 1; stroke-dasharray: none; stroke-linecap: butt; stroke-linejoin: miter; stroke-miterlimit: 10; fill: rgb(0,0,0); fill-rule: nonzero; opacity: 1;" transform=" matrix(1 0 0 1 0 0) " stroke-linecap="round" />
	<path d="M 65.691 31.658 c 0.119 -0.581 0.181 -1.182 0.181 -1.798 c 0 -4.927 -3.994 -8.92 -8.92 -8.92 s -8.92 3.994 -8.92 8.92 c 0 0.728 0.087 1.436 0.252 2.113 L 65.691 31.658 z" style="stroke: none; stroke-width: 1; stroke-dasharray: none; stroke-linecap: butt; stroke-linejoin: miter; stroke-miterlimit: 10; fill: rgb(88,179,84); fill-rule: nonzero; opacity: 1;" transform=" matrix(1 0 0 1 0 0) " stroke-linecap="round" />
	<path d="M 48.283 32.973 c -0.46 0 -0.862 -0.314 -0.972 -0.763 c -0.186 -0.764 -0.28 -1.554 -0.28 -2.35 c 0 -5.47 4.45 -9.92 9.92 -9.92 c 5.471 0 9.921 4.45 9.921 9.92 c 0 0.673 -0.068 1.346 -0.202 1.999 c -0.094 0.458 -0.493 0.79 -0.961 0.799 l -17.407 0.315 C 48.295 32.973 48.289 32.973 48.283 32.973 z M 65.69 31.658 h 0.01 H 65.69 z M 56.951 21.939 c -4.367 0 -7.92 3.553 -7.92 7.92 c 0 0.369 0.025 0.736 0.075 1.098 l 15.725 -0.285 c 0.027 -0.27 0.041 -0.542 0.041 -0.813 C 64.872 25.493 61.318 21.939 56.951 21.939 z" style="stroke: none; stroke-width: 1; stroke-dasharray: none; stroke-linecap: butt; stroke-linejoin: miter; stroke-miterlimit: 10; fill: rgb(0,0,0); fill-rule: nonzero; opacity: 1;" transform=" matrix(1 0 0 1 0 0) " stroke-linecap="round" />
	<circle cx="34.06" cy="17.59" r="8.92" style="stroke: none; stroke-width: 1; stroke-dasharray: none; stroke-linecap: butt; stroke-linejoin: miter; stroke-miterlimit: 10; fill: rgb(255,217,46); fill-rule: nonzero; opacity: 1;" transform="  matrix(1 0 0 1 0 0) "/>
	<circle cx="56.173" cy="7.753" r="6.753" style="stroke: none; stroke-width: 1; stroke-dasharray: none; stroke-linecap: butt; stroke-linejoin: miter; stroke-miterlimit: 10; fill: rgb(204,0,0); fill-rule: nonzero; opacity: 1;" transform="  matrix(1 0 0 1 0 0) "/>
	<path d="M 34.06 27.51 c -5.47 0 -9.92 -4.45 -9.92 -9.92 s 4.45 -9.92 9.92 -9.92 s 9.92 4.45 9.92 9.92 S 39.53 27.51 34.06 27.51 z M 34.06 9.669 c -4.367 0 -7.92 3.553 -7.92 7.92 s 3.553 7.92 7.92 7.92 s 7.92 -3.553 7.92 -7.92 S 38.427 9.669 34.06 9.669 z" style="stroke: none; stroke-width: 1; stroke-dasharray: none; stroke-linecap: butt; stroke-linejoin: miter; stroke-miterlimit: 10; fill: rgb(0,0,0); fill-rule: nonzero; opacity: 1;" transform=" matrix(1 0 0 1 0 0) " stroke-linecap="round" />
	<path d="M 56.175 15.506 c -4.275 0 -7.754 -3.478 -7.754 -7.753 C 48.421 3.478 51.899 0 56.175 0 s 7.753 3.478 7.753 7.753 C 63.928 12.028 60.45 15.506 56.175 15.506 z M 56.175 2 c -3.173 0 -5.754 2.581 -5.754 5.753 s 2.581 5.753 5.754 5.753 c 3.172 0 5.753 -2.581 5.753 -5.753 S 59.347 2 56.175 2 z" style="stroke: none; stroke-width: 1; stroke-dasharray: none; stroke-linecap: butt; stroke-linejoin: miter; stroke-miterlimit: 10; fill: rgb(0,0,0); fill-rule: nonzero; opacity: 1;" transform=" matrix(1 0 0 1 0 0) " stroke-linecap="round" />
	<path d="M 43.167 7.422 c -0.552 0 -1 -0.448 -1 -1 V 1 c 0 -0.552 0.448 -1 1 -1 s 1 0.448 1 1 v 5.422 C 44.167 6.975 43.72 7.422 43.167 7.422 z" style="stroke: none; stroke-width: 1; stroke-dasharray: none; stroke-linecap: butt; stroke-linejoin: miter; stroke-miterlimit: 10; fill: rgb(0,0,0); fill-rule: nonzero; opacity: 1;" transform=" matrix(1 0 0 1 0 0) " stroke-linecap="round" />
	<path d="M 70.817 5.687 c -0.553 0 -1 -0.448 -1 -1 V 1.221 c 0 -0.552 0.447 -1 1 -1 s 1 0.448 1 1 v 3.466 C 71.817 5.239 71.37 5.687 70.817 5.687 z" style="stroke: none; stroke-width: 1; stroke-dasharray: none; stroke-linecap: butt; stroke-linejoin: miter; stroke-miterlimit: 10; fill: rgb(0,0,0); fill-rule: nonzero; opacity: 1;" transform=" matrix(1 0 0 1 0 0) " stroke-linecap="round" />
	<path d="M 70.817 21.157 c -0.553 0 -1 -0.448 -1 -1 v -9.468 c 0 -0.552 0.447 -1 1 -1 s 1 0.448 1 1 v 9.468 C 71.817 20.709 71.37 21.157 70.817 21.157 z" style="stroke: none; stroke-width: 1; stroke-dasharray: none; stroke-linecap: butt; stroke-linejoin: miter; stroke-miterlimit: 10; fill: rgb(0,0,0); fill-rule: nonzero; opacity: 1;" transform=" matrix(1 0 0 1 0 0) " stroke-linecap="round" />
	<path d="M 19.183 24.24 c -0.552 0 -1 -0.448 -1 -1 v -3.467 c 0 -0.552 0.448 -1 1 -1 s 1 0.448 1 1 v 3.467 C 20.183 23.792 19.735 24.24 19.183 24.24 z" style="stroke: none; stroke-width: 1; stroke-dasharray: none; stroke-linecap: butt; stroke-linejoin: miter; stroke-miterlimit: 10; fill: rgb(0,0,0); fill-rule: nonzero; opacity: 1;" transform=" matrix(1 0 0 1 0 0) " stroke-linecap="round" />
	<path d="M 19.183 14.771 c -0.552 0 -1 -0.448 -1 -1 V 1.221 c 0 -0.552 0.448 -1 1 -1 s 1 0.448 1 1 v 12.551 C 20.183 14.324 19.735 14.771 19.183 14.771 z" style="stroke: none; stroke-width: 1; stroke-dasharray: none; stroke-linecap: butt; stroke-linejoin: miter; stroke-miterlimit: 10; fill: rgb(0,0,0); fill-rule: nonzero; opacity: 1;" transform=" matrix(1 0 0 1 0 0) " stroke-linecap="round" />
	<path d="M 67.499 42.495 h -8.513 c -0.553 0 -1 -0.448 -1 -1 s 0.447 -1 1 -1 h 8.513 c 0.553 0 1 0.448 1 1 S 68.052 42.495 67.499 42.495 z" style="stroke: none; stroke-width: 1; stroke-dasharray: none; stroke-linecap: butt; stroke-linejoin: miter; stroke-miterlimit: 10; fill: rgb(0,0,0); fill-rule: nonzero; opacity: 1;" transform=" matrix(1 0 0 1 0 0) " stroke-linecap="round" />
	<path d="M 51.787 42.495 H 22.501 c -0.552 0 -1 -0.448 -1 -1 s 0.448 -1 1 -1 h 29.286 c 0.553 0 1 0.448 1 1 S 52.34 42.495 51.787 42.495 z" style="stroke: none; stroke-width: 1; stroke-dasharray: none; stroke-linecap: butt; stroke-linejoin: miter; stroke-miterlimit: 10; fill: rgb(0,0,0); fill-rule: nonzero; opacity: 1;" transform=" matrix(1 0 0 1 0 0) " stroke-linecap="round" />
	<path d="M 45 65.1 h -5.358 c -0.552 0 -1 -0.447 -1 -1 s 0.448 -1 1 -1 H 45 c 0.552 0 1 0.447 1 1 S 45.552 65.1 45 65.1 z" style="stroke: none; stroke-width: 1; stroke-dasharray: none; stroke-linecap: butt; stroke-linejoin: miter; stroke-miterlimit: 10; fill: rgb(0,0,0); fill-rule: nonzero; opacity: 1;" transform=" matrix(1 0 0 1 0 0) " stroke-linecap="round" />
</g>
</g>
</svg>