<svg xmlns="http://www.w3.org/2000/svg" xmlns:xlink="http://www.w3.org/1999/xlink" version="1.1" width="256" height="256" viewBox="0 0 256 256" xml:space="preserve">
<desc>Created with Fabric.js 1.7.22</desc>
<defs>
</defs>
<g transform="translate(128 128) scale(0.72 0.72)" style="">
	<g style="stroke: none; stroke-width: 0; stroke-dasharray: none; stroke-linecap: butt; stroke-linejoin: miter; stroke-miterlimit: 10; fill: none; fill-rule: nonzero; opacity: 1;" transform="translate(-175.05 -175.05) scale(3.89 3.89)" >
	<rect x="34.85" y="69.29" rx="0" ry="0" width="20.3" height="11.43" style="stroke: none; stroke-width: 1; stroke-dasharray: none; stroke-linecap: butt; stroke-linejoin: miter; stroke-miterlimit: 10; fill: rgb(255,226,122); fill-rule: nonzero; opacity: 1;" transform=" matrix(1 0 0 1 0 0) "/>
	<rect x="68.7" y="69.29" rx="0" ry="0" width="20.3" height="11.43" style="stroke: none; stroke-width: 1; stroke-dasharray: none; stroke-linecap: butt; stroke-linejoin: miter; stroke-miterlimit: 10; fill: rgb(255,226,122); fill-rule: nonzero; opacity: 1;" transform=" matrix(1 0 0 1 0 0) "/>
	<rect x="1" y="69.29" rx="0" ry="0" width="20.3" height="11.43" style="stroke: none; stroke-width: 1; stroke-dasharray: none; stroke-linecap: butt; stroke-linejoin: miter; stroke-miterlimit: 10; fill: rgb(255,226,122); fill-rule: nonzero; opacity: 1;" transform=" matrix(1 0 0 1 0 0) "/>
	<path d="M 11.152 70.294 c -0.552 0 -1 -0.447 -1 -1 v -34.75 c 0 -3.526 2.869 -6.394 6.395 -6.394 h 5.43 c 0.552 0 1 0.448 1 1 s -0.448 1 -1 1 h -5.43 c -2.423 0 -4.395 1.971 -4.395 4.394 v 34.75 C 12.152 69.847 11.704 70.294 11.152 70.294 z" style="stroke: none; stroke-width: 1; stroke-dasharray: none; stroke-linecap: butt; stroke-linejoin: miter; stroke-miterlimit: 10; fill: rgb(0,0,0); fill-rule: nonzero; opacity: 1;" transform=" matrix(1 0 0 1 0 0) " stroke-linecap="round" />
	<path d="M 78.848 70.294 c -0.553 0 -1 -0.447 -1 -1 v -34.75 c 0 -2.423 -1.971 -4.394 -4.394 -4.394 h -5.431 c -0.553 0 -1 -0.448 -1 -1 s 0.447 -1 1 -1 h 5.431 c 3.525 0 6.394 2.868 6.394 6.394 v 34.75 C 79.848 69.847 79.4 70.294 78.848 70.294 z" style="stroke: none; stroke-width: 1; stroke-dasharray: none; stroke-linecap: butt; stroke-linejoin: miter; stroke-miterlimit: 10; fill: rgb(0,0,0); fill-rule: nonzero; opacity: 1;" transform=" matrix(1 0 0 1 0 0) " stroke-linecap="round" />
	<path d="M 45 70.294 c -0.552 0 -1 -0.447 -1 -1 V 56.354 c 0 -0.553 0.448 -1 1 -1 s 1 0.447 1 1 v 12.939 C 46 69.847 45.552 70.294 45 70.294 z" style="stroke: none; stroke-width: 1; stroke-dasharray: none; stroke-linecap: butt; stroke-linejoin: miter; stroke-miterlimit: 10; fill: rgb(0,0,0); fill-rule: nonzero; opacity: 1;" transform=" matrix(1 0 0 1 0 0) " stroke-linecap="round" />
	<path d="M 55.152 81.723 H 34.848 c -0.552 0 -1 -0.447 -1 -1 V 69.294 c 0 -0.553 0.448 -1 1 -1 h 20.304 c 0.553 0 1 0.447 1 1 v 11.429 C 56.152 81.275 55.705 81.723 55.152 81.723 z M 35.848 79.723 h 18.304 v -9.429 H 35.848 V 79.723 z" style="stroke: none; stroke-width: 1; stroke-dasharray: none; stroke-linecap: butt; stroke-linejoin: miter; stroke-miterlimit: 10; fill: rgb(0,0,0); fill-rule: nonzero; opacity: 1;" transform=" matrix(1 0 0 1 0 0) " stroke-linecap="round" />
	<path d="M 89 81.723 H 68.696 c -0.553 0 -1 -0.447 -1 -1 V 69.294 c 0 -0.553 0.447 -1 1 -1 H 89 c 0.553 0 1 0.447 1 1 v 11.429 C 90 81.275 89.553 81.723 89 81.723 z M 69.696 79.723 H 88 v -9.429 H 69.696 V 79.723 z" style="stroke: none; stroke-width: 1; stroke-dasharray: none; stroke-linecap: butt; stroke-linejoin: miter; stroke-miterlimit: 10; fill: rgb(0,0,0); fill-rule: nonzero; opacity: 1;" transform=" matrix(1 0 0 1 0 0) " stroke-linecap="round" />
	<path d="M 21.304 81.723 H 1 c -0.552 0 -1 -0.447 -1 -1 V 69.294 c 0 -0.553 0.448 -1 1 -1 h 20.304 c 0.552 0 1 0.447 1 1 v 11.429 C 22.304 81.275 21.856 81.723 21.304 81.723 z M 2 79.723 h 18.304 v -9.429 H 2 V 79.723 z" style="stroke: none; stroke-width: 1; stroke-dasharray: none; stroke-linecap: butt; stroke-linejoin: miter; stroke-miterlimit: 10; fill: rgb(0,0,0); fill-rule: nonzero; opacity: 1;" transform=" matrix(1 0 0 1 0 0) " stroke-linecap="round" />
	<path d="M 60.218 15.634 v 31.631 c 0 0.971 -0.787 1.757 -1.757 1.757 H 31.539 c -0.971 0 -1.757 -0.787 -1.757 -1.757 v -2.922 V 13.6 v -2.565 c 0 -0.971 0.787 -1.757 1.757 -1.757 h 22.321 L 60.218 15.634 z" style="stroke: none; stroke-width: 1; stroke-dasharray: none; stroke-linecap: butt; stroke-linejoin: miter; stroke-miterlimit: 10; fill: rgb(249,246,246); fill-rule: nonzero; opacity: 1;" transform=" matrix(1 0 0 1 0 0) " stroke-linecap="round" />
	<line x1="-2.9804999999999993" y1="0" x2="2.9804999999999993" y2="0" style="stroke: none; stroke-width: 1; stroke-dasharray: none; stroke-linecap: butt; stroke-linejoin: miter; stroke-miterlimit: 10; fill: rgb(249,246,246); fill-rule: nonzero; opacity: 1;" transform=" matrix(1 0 0 1 0 0) "/>
	<line x1="-4.885499999999997" y1="0" x2="4.885499999999997" y2="0" style="stroke: none; stroke-width: 1; stroke-dasharray: none; stroke-linecap: butt; stroke-linejoin: miter; stroke-miterlimit: 10; fill: rgb(249,246,246); fill-rule: nonzero; opacity: 1;" transform=" matrix(1 0 0 1 0 0) "/>
	<line x1="-4.885499999999997" y1="0" x2="4.885499999999997" y2="0" style="stroke: none; stroke-width: 1; stroke-dasharray: none; stroke-linecap: butt; stroke-linejoin: miter; stroke-miterlimit: 10; fill: rgb(249,246,246); fill-rule: nonzero; opacity: 1;" transform=" matrix(1 0 0 1 0 0) "/>
	<line x1="-7.6785" y1="0" x2="7.6785" y2="0" style="stroke: none; stroke-width: 1; stroke-dasharray: none; stroke-linecap: butt; stroke-linejoin: miter; stroke-miterlimit: 10; fill: rgb(249,246,246); fill-rule: nonzero; opacity: 1;" transform=" matrix(1 0 0 1 0 0) "/>
	<polygon points="60.22,15.63 53.86,15.63 53.86,9.28 " style="stroke: none; stroke-width: 1; stroke-dasharray: none; stroke-linecap: butt; stroke-linejoin: miter; stroke-miterlimit: 10; fill: rgb(239,231,239); fill-rule: nonzero; opacity: 1;" transform="  matrix(1 0 0 1 0 0) "/>
	<path d="M 43.184 17.824 h -5.96 c -0.552 0 -1 -0.448 -1 -1 s 0.448 -1 1 -1 h 5.96 c 0.552 0 1 0.448 1 1 S 43.736 17.824 43.184 17.824 z" style="stroke: none; stroke-width: 1; stroke-dasharray: none; stroke-linecap: butt; stroke-linejoin: miter; stroke-miterlimit: 10; fill: rgb(0,0,0); fill-rule: nonzero; opacity: 1;" transform=" matrix(1 0 0 1 0 0) " stroke-linecap="round" />
	<path d="M 52.776 26.041 H 37.223 c -0.552 0 -1 -0.448 -1 -1 s 0.448 -1 1 -1 h 15.553 c 0.553 0 1 0.448 1 1 S 53.329 26.041 52.776 26.041 z" style="stroke: none; stroke-width: 1; stroke-dasharray: none; stroke-linecap: butt; stroke-linejoin: miter; stroke-miterlimit: 10; fill: rgb(0,0,0); fill-rule: nonzero; opacity: 1;" transform=" matrix(1 0 0 1 0 0) " stroke-linecap="round" />
	<path d="M 52.776 34.258 H 37.223 c -0.552 0 -1 -0.448 -1 -1 s 0.448 -1 1 -1 h 15.553 c 0.553 0 1 0.448 1 1 S 53.329 34.258 52.776 34.258 z" style="stroke: none; stroke-width: 1; stroke-dasharray: none; stroke-linecap: butt; stroke-linejoin: miter; stroke-miterlimit: 10; fill: rgb(0,0,0); fill-rule: nonzero; opacity: 1;" transform=" matrix(1 0 0 1 0 0) " stroke-linecap="round" />
	<path d="M 52.776 42.475 H 37.42 c -0.552 0 -1 -0.448 -1 -1 s 0.448 -1 1 -1 h 15.356 c 0.553 0 1 0.448 1 1 S 53.329 42.475 52.776 42.475 z" style="stroke: none; stroke-width: 1; stroke-dasharray: none; stroke-linecap: butt; stroke-linejoin: miter; stroke-miterlimit: 10; fill: rgb(0,0,0); fill-rule: nonzero; opacity: 1;" transform=" matrix(1 0 0 1 0 0) " stroke-linecap="round" />
	<path d="M 58.461 50.022 H 31.54 c -1.521 0 -2.757 -1.237 -2.757 -2.758 v -36.23 c 0 -1.521 1.237 -2.757 2.757 -2.757 h 22.322 c 0.553 0 1 0.448 1 1 s -0.447 1 -1 1 H 31.54 c -0.417 0 -0.757 0.34 -0.757 0.757 v 36.23 c 0 0.418 0.34 0.758 0.757 0.758 h 26.921 c 0.417 0 0.757 -0.34 0.757 -0.758 v -31.63 c 0 -0.552 0.447 -1 1 -1 s 1 0.448 1 1 v 31.63 C 61.218 48.785 59.981 50.022 58.461 50.022 z" style="stroke: none; stroke-width: 1; stroke-dasharray: none; stroke-linecap: butt; stroke-linejoin: miter; stroke-miterlimit: 10; fill: rgb(0,0,0); fill-rule: nonzero; opacity: 1;" transform=" matrix(1 0 0 1 0 0) " stroke-linecap="round" />
	<path d="M 60.218 16.634 h -6.356 c -0.553 0 -1 -0.448 -1 -1 V 9.277 c 0 -0.404 0.244 -0.769 0.617 -0.924 c 0.375 -0.154 0.804 -0.069 1.09 0.217 l 6.356 6.357 c 0.286 0.286 0.372 0.716 0.217 1.09 C 60.987 16.391 60.622 16.634 60.218 16.634 z M 54.861 14.634 h 2.942 l -2.942 -2.942 V 14.634 z" style="stroke: none; stroke-width: 1; stroke-dasharray: none; stroke-linecap: butt; stroke-linejoin: miter; stroke-miterlimit: 10; fill: rgb(0,0,0); fill-rule: nonzero; opacity: 1;" transform=" matrix(1 0 0 1 0 0) " stroke-linecap="round" />
</g>
</g>
</svg>