<svg xmlns="http://www.w3.org/2000/svg" xmlns:xlink="http://www.w3.org/1999/xlink" version="1.1" width="256" height="256" viewBox="0 0 256 256" xml:space="preserve">
<desc>Created with Fabric.js 1.7.22</desc>
<defs>
</defs>
<g transform="translate(128 128) scale(0.72 0.72)" style="">
	<g style="stroke: none; stroke-width: 0; stroke-dasharray: none; stroke-linecap: butt; stroke-linejoin: miter; stroke-miterlimit: 10; fill: none; fill-rule: nonzero; opacity: 1;" transform="translate(-175.05 -175.05) scale(3.89 3.89)" >
	<path d="M 25.729 53.101 H 1.854 C 1.382 53.101 1 53.483 1 53.955 v 0 c 0 3.15 2.554 5.704 5.704 5.704 h 28.614 c 3.15 0 5.704 -2.554 5.704 -5.704 v 0 c 0 -0.471 -0.382 -0.854 -0.854 -0.854 H 25.729 z" style="stroke: none; stroke-width: 1; stroke-dasharray: none; stroke-linecap: butt; stroke-linejoin: miter; stroke-miterlimit: 10; fill: rgb(232,232,232); fill-rule: nonzero; opacity: 1;" transform=" matrix(1 0 0 1 0 0) " stroke-linecap="round" />
	<path d="M 39.045 36.611 V 32.43 c 0 -1.154 -0.935 -2.089 -2.089 -2.089 H 5.066 c -1.154 0 -2.089 0.935 -2.089 2.089 v 20.671 h 36.069 v -4.753 V 36.611 z" style="stroke: none; stroke-width: 1; stroke-dasharray: none; stroke-linecap: butt; stroke-linejoin: miter; stroke-miterlimit: 10; fill: rgb(67,211,232); fill-rule: nonzero; opacity: 1;" transform=" matrix(1 0 0 1 0 0) " stroke-linecap="round" />
	<path d="M 73.706 53.101 H 49.831 c -0.471 0 -0.854 0.382 -0.854 0.854 v 0 c 0 3.15 2.554 5.704 5.704 5.704 h 28.614 c 3.15 0 5.704 -2.554 5.704 -5.704 v 0 c 0 -0.471 -0.382 -0.854 -0.854 -0.854 H 73.706 z" style="stroke: none; stroke-width: 1; stroke-dasharray: none; stroke-linecap: butt; stroke-linejoin: miter; stroke-miterlimit: 10; fill: rgb(232,232,232); fill-rule: nonzero; opacity: 1;" transform=" matrix(1 0 0 1 0 0) " stroke-linecap="round" />
	<path d="M 87.023 36.611 V 32.43 c 0 -1.154 -0.935 -2.089 -2.089 -2.089 h -31.89 c -1.154 0 -2.089 0.935 -2.089 2.089 v 20.671 h 36.069 v -4.753 V 36.611 z" style="stroke: none; stroke-width: 1; stroke-dasharray: none; stroke-linecap: butt; stroke-linejoin: miter; stroke-miterlimit: 10; fill: rgb(249,98,50); fill-rule: nonzero; opacity: 1;" transform=" matrix(1 0 0 1 0 0) " stroke-linecap="round" />
	<path d="M 35.318 60.659 H 6.705 C 3.008 60.659 0 57.651 0 53.955 c 0 -1.022 0.832 -1.854 1.854 -1.854 h 38.315 c 1.022 0 1.854 0.831 1.854 1.854 C 42.022 57.651 39.015 60.659 35.318 60.659 z M 2.002 54.102 c 0.078 2.526 2.157 4.558 4.702 4.558 h 28.613 c 2.545 0 4.625 -2.031 4.702 -4.558 H 2.002 z M 40.169 54.102 h 0.01 H 40.169 z" style="stroke: none; stroke-width: 1; stroke-dasharray: none; stroke-linecap: butt; stroke-linejoin: miter; stroke-miterlimit: 10; fill: rgb(0,0,0); fill-rule: nonzero; opacity: 1;" transform=" matrix(1 0 0 1 0 0) " stroke-linecap="round" />
	<path d="M 21.488 35.555 h -0.953 c -0.552 0 -1 -0.448 -1 -1 s 0.448 -1 1 -1 h 0.953 c 0.552 0 1 0.448 1 1 S 22.04 35.555 21.488 35.555 z" style="stroke: none; stroke-width: 1; stroke-dasharray: none; stroke-linecap: butt; stroke-linejoin: miter; stroke-miterlimit: 10; fill: rgb(0,0,0); fill-rule: nonzero; opacity: 1;" transform=" matrix(1 0 0 1 0 0) " stroke-linecap="round" />
	<path d="M 83.296 60.659 H 54.682 c -3.696 0 -6.704 -3.008 -6.704 -6.704 c 0 -1.022 0.831 -1.854 1.854 -1.854 h 38.315 c 1.022 0 1.854 0.831 1.854 1.854 C 90 57.651 86.992 60.659 83.296 60.659 z M 49.979 54.102 c 0.078 2.526 2.157 4.558 4.702 4.558 h 28.614 c 2.545 0 4.624 -2.031 4.702 -4.558 H 49.979 z M 88.146 54.102 h 0.01 H 88.146 z" style="stroke: none; stroke-width: 1; stroke-dasharray: none; stroke-linecap: butt; stroke-linejoin: miter; stroke-miterlimit: 10; fill: rgb(0,0,0); fill-rule: nonzero; opacity: 1;" transform=" matrix(1 0 0 1 0 0) " stroke-linecap="round" />
	<path d="M 69.465 35.555 h -0.952 c -0.553 0 -1 -0.448 -1 -1 s 0.447 -1 1 -1 h 0.952 c 0.553 0 1 0.448 1 1 S 70.018 35.555 69.465 35.555 z" style="stroke: none; stroke-width: 1; stroke-dasharray: none; stroke-linecap: butt; stroke-linejoin: miter; stroke-miterlimit: 10; fill: rgb(0,0,0); fill-rule: nonzero; opacity: 1;" transform=" matrix(1 0 0 1 0 0) " stroke-linecap="round" />
	<path d="M 39.045 54.102 H 2.977 c -0.552 0 -1 -0.447 -1 -1 V 32.43 c 0 -1.703 1.386 -3.089 3.089 -3.089 h 31.891 c 1.703 0 3.089 1.386 3.089 3.089 v 4.181 c 0 0.552 -0.448 1 -1 1 s -1 -0.448 -1 -1 V 32.43 c 0 -0.601 -0.488 -1.089 -1.089 -1.089 H 5.066 c -0.601 0 -1.089 0.488 -1.089 1.089 v 19.672 h 34.068 v -3.753 c 0 -0.553 0.448 -1 1 -1 s 1 0.447 1 1 v 4.753 C 40.045 53.654 39.598 54.102 39.045 54.102 z" style="stroke: none; stroke-width: 1; stroke-dasharray: none; stroke-linecap: butt; stroke-linejoin: miter; stroke-miterlimit: 10; fill: rgb(0,0,0); fill-rule: nonzero; opacity: 1;" transform=" matrix(1 0 0 1 0 0) " stroke-linecap="round" />
	<path d="M 54.335 43.48 h -1 c -0.553 0 -1 -0.448 -1 -1 s 0.447 -1 1 -1 h 1 c 0.553 0 1 0.448 1 1 S 54.888 43.48 54.335 43.48 z M 49.835 43.48 h -1 c -0.553 0 -1 -0.448 -1 -1 s 0.447 -1 1 -1 h 1 c 0.553 0 1 0.448 1 1 S 50.388 43.48 49.835 43.48 z M 45.335 43.48 h -1 c -0.552 0 -1 -0.448 -1 -1 s 0.448 -1 1 -1 h 1 c 0.552 0 1 0.448 1 1 S 45.887 43.48 45.335 43.48 z M 40.835 43.48 h -1 c -0.552 0 -1 -0.448 -1 -1 s 0.448 -1 1 -1 h 1 c 0.552 0 1 0.448 1 1 S 41.387 43.48 40.835 43.48 z M 36.335 43.48 h -1 c -0.552 0 -1 -0.448 -1 -1 s 0.448 -1 1 -1 h 1 c 0.552 0 1 0.448 1 1 S 36.887 43.48 36.335 43.48 z" style="stroke: none; stroke-width: 1; stroke-dasharray: none; stroke-linecap: butt; stroke-linejoin: miter; stroke-miterlimit: 10; fill: rgb(0,0,0); fill-rule: nonzero; opacity: 1;" transform=" matrix(1 0 0 1 0 0) " stroke-linecap="round" />
	<path d="M 87.023 54.102 H 50.954 c -0.553 0 -1 -0.447 -1 -1 v -4.753 c 0 -0.553 0.447 -1 1 -1 s 1 0.447 1 1 v 3.753 h 34.069 V 32.43 c 0 -0.601 -0.489 -1.089 -1.09 -1.089 h -31.89 c -0.601 0 -1.09 0.488 -1.09 1.089 v 4.181 c 0 0.552 -0.447 1 -1 1 s -1 -0.448 -1 -1 V 32.43 c 0 -1.703 1.386 -3.089 3.09 -3.089 h 31.89 c 1.704 0 3.09 1.386 3.09 3.089 v 20.672 C 88.023 53.654 87.576 54.102 87.023 54.102 z" style="stroke: none; stroke-width: 1; stroke-dasharray: none; stroke-linecap: butt; stroke-linejoin: miter; stroke-miterlimit: 10; fill: rgb(0,0,0); fill-rule: nonzero; opacity: 1;" transform=" matrix(1 0 0 1 0 0) " stroke-linecap="round" />
</g>
</g>
</svg>