<svg xmlns="http://www.w3.org/2000/svg" xmlns:xlink="http://www.w3.org/1999/xlink" version="1.1" width="256" height="256" viewBox="0 0 256 256" xml:space="preserve">
<desc>Created with Fabric.js 1.7.22</desc>
<defs>
</defs>
<g transform="translate(128 128) scale(0.72 0.72)" style="">
	<g style="stroke: none; stroke-width: 0; stroke-dasharray: none; stroke-linecap: butt; stroke-linejoin: miter; stroke-miterlimit: 10; fill: none; fill-rule: nonzero; opacity: 1;" transform="translate(-175.05 -175.05) scale(3.89 3.89)" >
	<path d="M 64.595 56.649 l 23.766 23.766 c 2.185 2.185 2.185 5.761 0 7.946 s -5.761 2.185 -7.946 0 L 56.649 64.595 C 56.93 60.372 59.611 57.744 64.595 56.649 z" style="stroke: none; stroke-width: 1; stroke-dasharray: none; stroke-linecap: butt; stroke-linejoin: miter; stroke-miterlimit: 10; fill: rgb(229,86,58); fill-rule: nonzero; opacity: 1;" transform=" matrix(1 0 0 1 0 0) " stroke-linecap="round" />
	<path d="M 64.595 56.649 l -3.757 -3.757 c 9.303 -13.084 8.096 -31.346 -3.635 -43.077 C 44.117 -3.272 22.9 -3.271 9.814 9.814 s -13.086 34.302 0 47.388 c 11.731 11.731 29.993 12.937 43.077 3.635 l 3.757 3.757 L 64.595 56.649 z" style="stroke: none; stroke-width: 1; stroke-dasharray: none; stroke-linecap: butt; stroke-linejoin: miter; stroke-miterlimit: 10; fill: rgb(58,80,102); fill-rule: nonzero; opacity: 1;" transform=" matrix(1 0 0 1 0 0) " stroke-linecap="round" />
	<circle cx="33.513999999999996" cy="33.513999999999996" r="24.604" style="stroke: none; stroke-width: 1; stroke-dasharray: none; stroke-linecap: butt; stroke-linejoin: miter; stroke-miterlimit: 10; fill: rgb(206,226,242); fill-rule: nonzero; opacity: 1;" transform="  matrix(1 0 0 1 0 0) "/>
	<path d="M 21.97 46.927 c -0.512 0 -1.024 -0.195 -1.414 -0.586 c -7.065 -7.065 -7.065 -18.562 0 -25.626 c 0.78 -0.781 2.048 -0.781 2.828 0 c 0.781 0.781 0.781 2.047 0 2.828 c -5.505 5.506 -5.505 14.464 0 19.97 c 0.781 0.781 0.781 2.047 0 2.829 C 22.994 46.731 22.481 46.927 21.97 46.927 z" style="stroke: none; stroke-width: 1; stroke-dasharray: none; stroke-linecap: butt; stroke-linejoin: miter; stroke-miterlimit: 10; fill: rgb(255,255,255); fill-rule: nonzero; opacity: 1;" transform=" matrix(1 0 0 1 0 0) " stroke-linecap="round" />
	<path d="M 48.26 41.711 c -0.255 0 -0.515 -0.049 -0.766 -0.153 c -1.02 -0.423 -1.504 -1.593 -1.081 -2.613 c 1.333 -3.214 1.436 -6.795 0.287 -10.083 c -0.364 -1.043 0.186 -2.184 1.229 -2.548 c 1.04 -0.365 2.184 0.186 2.547 1.229 c 1.474 4.218 1.343 8.812 -0.367 12.935 C 49.789 41.247 49.044 41.711 48.26 41.711 z" style="stroke: none; stroke-width: 1; stroke-dasharray: none; stroke-linecap: butt; stroke-linejoin: miter; stroke-miterlimit: 10; fill: rgb(255,255,255); fill-rule: nonzero; opacity: 1;" transform=" matrix(1 0 0 1 0 0) " stroke-linecap="round" />
</g>
</g>
</svg>