<svg xmlns="http://www.w3.org/2000/svg" xmlns:xlink="http://www.w3.org/1999/xlink" version="1.1" width="256" height="256" viewBox="0 0 256 256" xml:space="preserve">
<desc>Created with Fabric.js 1.7.22</desc>
<defs>
</defs>
<g transform="translate(128 128) scale(0.72 0.72)" style="">
	<g style="stroke: none; stroke-width: 0; stroke-dasharray: none; stroke-linecap: butt; stroke-linejoin: miter; stroke-miterlimit: 10; fill: none; fill-rule: nonzero; opacity: 1;" transform="translate(-175.05 -175.05) scale(3.89 3.89)" >
	<path d="M 84.527 32.551 H 5.473 C 3.003 32.551 1 30.549 1 28.078 V 12.126 c 0 -2.47 2.003 -4.473 4.473 -4.473 h 79.054 c 2.47 0 4.473 2.003 4.473 4.473 v 15.952 C 89 30.549 86.997 32.551 84.527 32.551 z" style="stroke: none; stroke-width: 1; stroke-dasharray: none; stroke-linecap: butt; stroke-linejoin: miter; stroke-miterlimit: 10; fill: rgb(122,140,152); fill-rule: nonzero; opacity: 1;" transform=" matrix(1 0 0 1 0 0) " stroke-linecap="round" />
	<circle cx="74.197" cy="20.107" r="5.447" style="stroke: none; stroke-width: 1; stroke-dasharray: none; stroke-linecap: butt; stroke-linejoin: miter; stroke-miterlimit: 10; fill: rgb(96,183,255); fill-rule: nonzero; opacity: 1;" transform="  matrix(1 0 0 1 0 0) "/>
	<path d="M 84.527 57.449 H 5.473 C 3.003 57.449 1 55.446 1 52.976 V 37.024 c 0 -2.47 2.003 -4.473 4.473 -4.473 h 79.054 c 2.47 0 4.473 2.003 4.473 4.473 v 15.952 C 89 55.446 86.997 57.449 84.527 57.449 z" style="stroke: none; stroke-width: 1; stroke-dasharray: none; stroke-linecap: butt; stroke-linejoin: miter; stroke-miterlimit: 10; fill: rgb(122,140,152); fill-rule: nonzero; opacity: 1;" transform=" matrix(1 0 0 1 0 0) " stroke-linecap="round" />
	<circle cx="74.197" cy="44.997" r="5.447" style="stroke: none; stroke-width: 1; stroke-dasharray: none; stroke-linecap: butt; stroke-linejoin: miter; stroke-miterlimit: 10; fill: rgb(96,183,255); fill-rule: nonzero; opacity: 1;" transform="  matrix(1 0 0 1 0 0) "/>
	<path d="M 84.527 82.346 H 5.473 C 3.003 82.346 1 80.344 1 77.874 V 61.922 c 0 -2.47 2.003 -4.473 4.473 -4.473 h 79.054 c 2.47 0 4.473 2.003 4.473 4.473 v 15.952 C 89 80.344 86.997 82.346 84.527 82.346 z" style="stroke: none; stroke-width: 1; stroke-dasharray: none; stroke-linecap: butt; stroke-linejoin: miter; stroke-miterlimit: 10; fill: rgb(122,140,152); fill-rule: nonzero; opacity: 1;" transform=" matrix(1 0 0 1 0 0) " stroke-linecap="round" />
	<circle cx="74.197" cy="69.897" r="5.447" style="stroke: none; stroke-width: 1; stroke-dasharray: none; stroke-linecap: butt; stroke-linejoin: miter; stroke-miterlimit: 10; fill: rgb(96,183,255); fill-rule: nonzero; opacity: 1;" transform="  matrix(1 0 0 1 0 0) "/>
	<path d="M 84.527 33.551 H 5.473 C 2.455 33.551 0 31.096 0 28.079 V 12.126 c 0 -3.018 2.455 -5.473 5.473 -5.473 h 79.055 c 3.018 0 5.473 2.455 5.473 5.473 v 15.952 C 90 31.096 87.545 33.551 84.527 33.551 z M 5.473 8.654 C 3.558 8.654 2 10.211 2 12.126 v 15.952 c 0 1.915 1.558 3.473 3.473 3.473 h 79.055 c 1.915 0 3.473 -1.558 3.473 -3.473 V 12.126 c 0 -1.915 -1.558 -3.473 -3.473 -3.473 H 5.473 z" style="stroke: none; stroke-width: 1; stroke-dasharray: none; stroke-linecap: butt; stroke-linejoin: miter; stroke-miterlimit: 10; fill: rgb(0,0,0); fill-rule: nonzero; opacity: 1;" transform=" matrix(1 0 0 1 0 0) " stroke-linecap="round" />
	<path d="M 46.043 16.947 H 10.354 c -0.552 0 -1 -0.448 -1 -1 s 0.448 -1 1 -1 h 35.689 c 0.553 0 1 0.448 1 1 S 46.596 16.947 46.043 16.947 z" style="stroke: none; stroke-width: 1; stroke-dasharray: none; stroke-linecap: butt; stroke-linejoin: miter; stroke-miterlimit: 10; fill: rgb(0,0,0); fill-rule: nonzero; opacity: 1;" transform=" matrix(1 0 0 1 0 0) " stroke-linecap="round" />
	<path d="M 74.199 26.549 c -3.555 0 -6.446 -2.892 -6.446 -6.446 s 2.892 -6.447 6.446 -6.447 s 6.447 2.892 6.447 6.447 S 77.754 26.549 74.199 26.549 z M 74.199 15.656 c -2.452 0 -4.446 1.995 -4.446 4.447 c 0 2.452 1.994 4.446 4.446 4.446 s 4.447 -1.995 4.447 -4.446 C 78.646 17.65 76.651 15.656 74.199 15.656 z" style="stroke: none; stroke-width: 1; stroke-dasharray: none; stroke-linecap: butt; stroke-linejoin: miter; stroke-miterlimit: 10; fill: rgb(0,0,0); fill-rule: nonzero; opacity: 1;" transform=" matrix(1 0 0 1 0 0) " stroke-linecap="round" />
	<path d="M 46.043 25.258 H 10.354 c -0.552 0 -1 -0.448 -1 -1 s 0.448 -1 1 -1 h 35.689 c 0.553 0 1 0.448 1 1 S 46.596 25.258 46.043 25.258 z" style="stroke: none; stroke-width: 1; stroke-dasharray: none; stroke-linecap: butt; stroke-linejoin: miter; stroke-miterlimit: 10; fill: rgb(0,0,0); fill-rule: nonzero; opacity: 1;" transform=" matrix(1 0 0 1 0 0) " stroke-linecap="round" />
	<path d="M 84.527 58.449 H 5.473 C 2.455 58.449 0 55.994 0 52.976 V 37.024 c 0 -3.018 2.455 -5.473 5.473 -5.473 h 79.055 c 3.018 0 5.473 2.455 5.473 5.473 v 15.952 C 90 55.994 87.545 58.449 84.527 58.449 z M 5.473 33.551 C 3.558 33.551 2 35.109 2 37.024 v 15.952 c 0 1.915 1.558 3.474 3.473 3.474 h 79.055 c 1.915 0 3.473 -1.559 3.473 -3.474 V 37.024 c 0 -1.915 -1.558 -3.473 -3.473 -3.473 H 5.473 z" style="stroke: none; stroke-width: 1; stroke-dasharray: none; stroke-linecap: butt; stroke-linejoin: miter; stroke-miterlimit: 10; fill: rgb(0,0,0); fill-rule: nonzero; opacity: 1;" transform=" matrix(1 0 0 1 0 0) " stroke-linecap="round" />
	<path d="M 46.043 41.845 H 10.354 c -0.552 0 -1 -0.448 -1 -1 s 0.448 -1 1 -1 h 35.689 c 0.553 0 1 0.448 1 1 S 46.596 41.845 46.043 41.845 z" style="stroke: none; stroke-width: 1; stroke-dasharray: none; stroke-linecap: butt; stroke-linejoin: miter; stroke-miterlimit: 10; fill: rgb(0,0,0); fill-rule: nonzero; opacity: 1;" transform=" matrix(1 0 0 1 0 0) " stroke-linecap="round" />
	<path d="M 74.199 51.446 c -3.555 0 -6.446 -2.892 -6.446 -6.446 s 2.892 -6.447 6.446 -6.447 s 6.447 2.892 6.447 6.447 S 77.754 51.446 74.199 51.446 z M 74.199 40.553 c -2.452 0 -4.446 1.995 -4.446 4.447 s 1.994 4.446 4.446 4.446 s 4.447 -1.994 4.447 -4.446 S 76.651 40.553 74.199 40.553 z" style="stroke: none; stroke-width: 1; stroke-dasharray: none; stroke-linecap: butt; stroke-linejoin: miter; stroke-miterlimit: 10; fill: rgb(0,0,0); fill-rule: nonzero; opacity: 1;" transform=" matrix(1 0 0 1 0 0) " stroke-linecap="round" />
	<path d="M 46.043 50.155 H 10.354 c -0.552 0 -1 -0.447 -1 -1 s 0.448 -1 1 -1 h 35.689 c 0.553 0 1 0.447 1 1 S 46.596 50.155 46.043 50.155 z" style="stroke: none; stroke-width: 1; stroke-dasharray: none; stroke-linecap: butt; stroke-linejoin: miter; stroke-miterlimit: 10; fill: rgb(0,0,0); fill-rule: nonzero; opacity: 1;" transform=" matrix(1 0 0 1 0 0) " stroke-linecap="round" />
	<path d="M 84.527 83.347 H 5.473 C 2.455 83.347 0 80.892 0 77.873 V 61.922 c 0 -3.018 2.455 -5.473 5.473 -5.473 h 79.055 c 3.018 0 5.473 2.455 5.473 5.473 v 15.951 C 90 80.892 87.545 83.347 84.527 83.347 z M 5.473 58.449 C 3.558 58.449 2 60.007 2 61.922 v 15.951 c 0 1.915 1.558 3.474 3.473 3.474 h 79.055 c 1.915 0 3.473 -1.559 3.473 -3.474 V 61.922 c 0 -1.915 -1.558 -3.473 -3.473 -3.473 H 5.473 z" style="stroke: none; stroke-width: 1; stroke-dasharray: none; stroke-linecap: butt; stroke-linejoin: miter; stroke-miterlimit: 10; fill: rgb(0,0,0); fill-rule: nonzero; opacity: 1;" transform=" matrix(1 0 0 1 0 0) " stroke-linecap="round" />
	<path d="M 46.043 66.742 H 10.354 c -0.552 0 -1 -0.447 -1 -1 s 0.448 -1 1 -1 h 35.689 c 0.553 0 1 0.447 1 1 S 46.596 66.742 46.043 66.742 z" style="stroke: none; stroke-width: 1; stroke-dasharray: none; stroke-linecap: butt; stroke-linejoin: miter; stroke-miterlimit: 10; fill: rgb(0,0,0); fill-rule: nonzero; opacity: 1;" transform=" matrix(1 0 0 1 0 0) " stroke-linecap="round" />
	<path d="M 74.199 76.344 c -3.555 0 -6.446 -2.892 -6.446 -6.446 s 2.892 -6.446 6.446 -6.446 s 6.447 2.892 6.447 6.446 S 77.754 76.344 74.199 76.344 z M 74.199 65.451 c -2.452 0 -4.446 1.994 -4.446 4.446 s 1.994 4.446 4.446 4.446 s 4.447 -1.994 4.447 -4.446 S 76.651 65.451 74.199 65.451 z" style="stroke: none; stroke-width: 1; stroke-dasharray: none; stroke-linecap: butt; stroke-linejoin: miter; stroke-miterlimit: 10; fill: rgb(0,0,0); fill-rule: nonzero; opacity: 1;" transform=" matrix(1 0 0 1 0 0) " stroke-linecap="round" />
	<path d="M 46.043 75.053 H 10.354 c -0.552 0 -1 -0.447 -1 -1 s 0.448 -1 1 -1 h 35.689 c 0.553 0 1 0.447 1 1 S 46.596 75.053 46.043 75.053 z" style="stroke: none; stroke-width: 1; stroke-dasharray: none; stroke-linecap: butt; stroke-linejoin: miter; stroke-miterlimit: 10; fill: rgb(0,0,0); fill-rule: nonzero; opacity: 1;" transform=" matrix(1 0 0 1 0 0) " stroke-linecap="round" />
</g>
</g>
</svg>