<svg xmlns="http://www.w3.org/2000/svg" xmlns:xlink="http://www.w3.org/1999/xlink" version="1.1" width="256" height="256" viewBox="0 0 256 256" xml:space="preserve">
<desc>Created with Fabric.js 1.7.22</desc>
<defs>
</defs>
<g transform="translate(128 128) scale(0.72 0.72)" style="">
	<g style="stroke: none; stroke-width: 0; stroke-dasharray: none; stroke-linecap: butt; stroke-linejoin: miter; stroke-miterlimit: 10; fill: none; fill-rule: nonzero; opacity: 1;" transform="translate(-175.05 -175.05) scale(3.89 3.89)" >
	<rect x="10.68" y="0.5" rx="0" ry="0" width="68.64" height="48.72" style="stroke: none; stroke-width: 1; stroke-dasharray: none; stroke-linecap: butt; stroke-linejoin: miter; stroke-miterlimit: 10; fill: rgb(221,218,236); fill-rule: nonzero; opacity: 1;" transform=" matrix(1 0 0 1 0 0) "/>
	<polygon points="40.01,54.49 24.75,89.5 19.48,89.5 34.74,54.49 " style="stroke: none; stroke-width: 1; stroke-dasharray: none; stroke-linecap: butt; stroke-linejoin: miter; stroke-miterlimit: 10; fill: rgb(62,108,144); fill-rule: nonzero; opacity: 1;" transform="  matrix(1 0 0 1 0 0) "/>
	<polygon points="49.99,54.49 65.25,89.5 70.52,89.5 55.26,54.49 " style="stroke: none; stroke-width: 1; stroke-dasharray: none; stroke-linecap: butt; stroke-linejoin: miter; stroke-miterlimit: 10; fill: rgb(62,108,144); fill-rule: nonzero; opacity: 1;" transform="  matrix(1 0 0 1 0 0) "/>
	<rect x="27.5" y="69.36" rx="0" ry="0" width="35.01" height="5.27" style="stroke: none; stroke-width: 1; stroke-dasharray: none; stroke-linecap: butt; stroke-linejoin: miter; stroke-miterlimit: 10; fill: rgb(62,108,144); fill-rule: nonzero; opacity: 1;" transform=" matrix(6.123234e-17 -1 1 6.123234e-17 -26.9961 116.9961) "/>
	<rect x="10.68" y="44.13" rx="0" ry="0" width="68.64" height="5.1" style="stroke: none; stroke-width: 1; stroke-dasharray: none; stroke-linecap: butt; stroke-linejoin: miter; stroke-miterlimit: 10; fill: rgb(62,108,144); fill-rule: nonzero; opacity: 1;" transform=" matrix(1 0 0 1 0 0) "/>
	<rect x="10.68" y="0.5" rx="0" ry="0" width="68.64" height="5.1" style="stroke: none; stroke-width: 1; stroke-dasharray: none; stroke-linecap: butt; stroke-linejoin: miter; stroke-miterlimit: 10; fill: rgb(62,108,144); fill-rule: nonzero; opacity: 1;" transform=" matrix(1 0 0 1 0 0) "/>
	<rect x="29.68" y="49.22" rx="0" ry="0" width="30.65" height="5.27" style="stroke: none; stroke-width: 1; stroke-dasharray: none; stroke-linecap: butt; stroke-linejoin: miter; stroke-miterlimit: 10; fill: rgb(221,218,236); fill-rule: nonzero; opacity: 1;" transform=" matrix(1 0 0 1 0 0) "/>
	<path d="M 10.182 0 v 6.097 v 37.531 v 6.097 h 18.994 v 5.268 h 4.799 L 18.718 90 h 6.358 l 15.257 -35.008 h 1.533 V 90 h 6.268 V 54.992 h 1.533 L 64.924 90 h 6.358 L 56.025 54.992 h 4.799 v -5.268 h 18.993 v -6.097 V 6.097 V 0 H 10.182 z M 11.182 1 h 67.635 v 4.097 H 11.182 V 1 z M 24.421 89 h -4.177 l 14.821 -34.008 h 4.177 L 24.421 89 z M 47.134 89 h -4.268 V 54.992 h 4.268 V 89 z M 69.755 89 h -4.177 l -14.82 -34.008 h 4.177 L 69.755 89 z M 59.824 53.992 h -4.235 H 49.23 h -1.097 h -6.268 h -1.097 H 34.41 h -4.234 v -4.268 h 29.648 V 53.992 z M 78.817 48.725 H 60.824 H 29.176 H 11.182 v -4.097 h 67.635 V 48.725 z M 78.817 43.628 H 11.182 V 6.097 h 67.635 V 43.628 z" style="stroke: none; stroke-width: 1; stroke-dasharray: none; stroke-linecap: butt; stroke-linejoin: miter; stroke-miterlimit: 10; fill: rgb(18,34,46); fill-rule: nonzero; opacity: 1;" transform=" matrix(1 0 0 1 0 0) " stroke-linecap="round" />
	<rect x="21.39" y="30.11" rx="0" ry="0" width="10.18" height="10.18" style="stroke: none; stroke-width: 1; stroke-dasharray: none; stroke-linecap: butt; stroke-linejoin: miter; stroke-miterlimit: 10; fill: rgb(221,99,110); fill-rule: nonzero; opacity: 1;" transform=" matrix(1 0 0 1 0 0) "/>
	<rect x="39.91" y="26.84" rx="0" ry="0" width="10.18" height="13.45" style="stroke: none; stroke-width: 1; stroke-dasharray: none; stroke-linecap: butt; stroke-linejoin: miter; stroke-miterlimit: 10; fill: rgb(255,224,125); fill-rule: nonzero; opacity: 1;" transform=" matrix(1 0 0 1 0 0) "/>
	<rect x="58.44" y="17.03" rx="0" ry="0" width="10.18" height="23.25" style="stroke: none; stroke-width: 1; stroke-dasharray: none; stroke-linecap: butt; stroke-linejoin: miter; stroke-miterlimit: 10; fill: rgb(179,229,159); fill-rule: nonzero; opacity: 1;" transform=" matrix(1 0 0 1 0 0) "/>
	<path d="M 31.563 40.786 H 21.386 c -0.276 0 -0.5 -0.224 -0.5 -0.5 V 30.108 c 0 -0.276 0.224 -0.5 0.5 -0.5 h 10.177 c 0.276 0 0.5 0.224 0.5 0.5 v 10.177 C 32.063 40.562 31.839 40.786 31.563 40.786 z M 21.886 39.786 h 9.177 v -9.177 h -9.177 V 39.786 z" style="stroke: none; stroke-width: 1; stroke-dasharray: none; stroke-linecap: butt; stroke-linejoin: miter; stroke-miterlimit: 10; fill: rgb(18,34,46); fill-rule: nonzero; opacity: 1;" transform=" matrix(1 0 0 1 0 0) " stroke-linecap="round" />
	<path d="M 50.089 40.786 H 39.912 c -0.276 0 -0.5 -0.224 -0.5 -0.5 V 26.839 c 0 -0.276 0.224 -0.5 0.5 -0.5 h 10.177 c 0.276 0 0.5 0.224 0.5 0.5 v 13.447 C 50.589 40.562 50.365 40.786 50.089 40.786 z M 40.412 39.786 h 9.177 V 27.339 h -9.177 V 39.786 z" style="stroke: none; stroke-width: 1; stroke-dasharray: none; stroke-linecap: butt; stroke-linejoin: miter; stroke-miterlimit: 10; fill: rgb(18,34,46); fill-rule: nonzero; opacity: 1;" transform=" matrix(1 0 0 1 0 0) " stroke-linecap="round" />
	<path d="M 68.614 40.786 H 58.438 c -0.276 0 -0.5 -0.224 -0.5 -0.5 V 17.031 c 0 -0.276 0.224 -0.5 0.5 -0.5 h 10.177 c 0.276 0 0.5 0.224 0.5 0.5 v 23.254 C 69.114 40.562 68.891 40.786 68.614 40.786 z M 58.938 39.786 h 9.177 V 17.531 h -9.177 V 39.786 z" style="stroke: none; stroke-width: 1; stroke-dasharray: none; stroke-linecap: butt; stroke-linejoin: miter; stroke-miterlimit: 10; fill: rgb(18,34,46); fill-rule: nonzero; opacity: 1;" transform=" matrix(1 0 0 1 0 0) " stroke-linecap="round" />
	<path d="M 27.776 24.614 c -2.116 0 -4.272 -0.176 -6.469 -0.527 c -0.272 -0.043 -0.458 -0.3 -0.415 -0.573 c 0.043 -0.272 0.301 -0.462 0.573 -0.415 c 12.806 2.052 24.248 -2.057 34.006 -12.207 c 0.191 -0.199 0.51 -0.204 0.707 -0.014 c 0.199 0.191 0.205 0.508 0.014 0.707 C 47.862 20.249 38.327 24.614 27.776 24.614 z" style="stroke: none; stroke-width: 1; stroke-dasharray: none; stroke-linecap: butt; stroke-linejoin: miter; stroke-miterlimit: 10; fill: rgb(18,34,46); fill-rule: nonzero; opacity: 1;" transform=" matrix(1 0 0 1 0 0) " stroke-linecap="round" />
	<path d="M 55.831 16.234 c -0.276 0 -0.5 -0.224 -0.5 -0.5 v -3.995 h -3.994 c -0.276 0 -0.5 -0.224 -0.5 -0.5 s 0.224 -0.5 0.5 -0.5 h 4.494 c 0.276 0 0.5 0.224 0.5 0.5 v 4.495 C 56.331 16.01 56.107 16.234 55.831 16.234 z" style="stroke: none; stroke-width: 1; stroke-dasharray: none; stroke-linecap: butt; stroke-linejoin: miter; stroke-miterlimit: 10; fill: rgb(18,34,46); fill-rule: nonzero; opacity: 1;" transform=" matrix(1 0 0 1 0 0) " stroke-linecap="round" />
	<path d="M 30.19 10.008 h -4.433 c -0.276 0 -0.5 -0.224 -0.5 -0.5 s 0.224 -0.5 0.5 -0.5 h 4.433 c 0.276 0 0.5 0.224 0.5 0.5 S 30.467 10.008 30.19 10.008 z" style="stroke: none; stroke-width: 1; stroke-dasharray: none; stroke-linecap: butt; stroke-linejoin: miter; stroke-miterlimit: 10; fill: rgb(18,34,46); fill-rule: nonzero; opacity: 1;" transform=" matrix(1 0 0 1 0 0) " stroke-linecap="round" />
	<path d="M 14.822 20.462 c -0.276 0 -0.5 -0.224 -0.5 -0.5 V 9.508 c 0 -0.276 0.224 -0.5 0.5 -0.5 h 7.184 c 0.276 0 0.5 0.224 0.5 0.5 s -0.224 0.5 -0.5 0.5 h -6.684 v 9.954 C 15.322 20.238 15.099 20.462 14.822 20.462 z" style="stroke: none; stroke-width: 1; stroke-dasharray: none; stroke-linecap: butt; stroke-linejoin: miter; stroke-miterlimit: 10; fill: rgb(18,34,46); fill-rule: nonzero; opacity: 1;" transform=" matrix(1 0 0 1 0 0) " stroke-linecap="round" />
</g>
</g>
</svg>