<svg xmlns="http://www.w3.org/2000/svg" xmlns:xlink="http://www.w3.org/1999/xlink" version="1.1" width="256" height="256" viewBox="0 0 256 256" xml:space="preserve">
<desc>Created with Fabric.js 1.7.22</desc>
<defs>
</defs>
<g transform="translate(128 128) scale(0.72 0.72)" style="">
	<g style="stroke: none; stroke-width: 0; stroke-dasharray: none; stroke-linecap: butt; stroke-linejoin: miter; stroke-miterlimit: 10; fill: none; fill-rule: nonzero; opacity: 1;" transform="translate(-175.05 -175.05) scale(3.89 3.89)" >
	<path d="M 87.616 62.234 l -0.001 0 c -1.098 -0.455 -1.183 -1.47 -1.183 -1.771 c 0 -0.301 0.085 -1.316 1.183 -1.771 c 0.553 -0.229 0.984 -0.66 1.213 -1.213 s 0.229 -1.162 0 -1.715 l -1.46 -3.524 c -0.473 -1.141 -1.785 -1.686 -2.929 -1.212 c -1.099 0.455 -1.877 -0.203 -2.089 -0.415 c -0.213 -0.213 -0.87 -0.991 -0.415 -2.089 c 0.229 -0.553 0.229 -1.162 0 -1.715 c -0.229 -0.553 -0.66 -0.984 -1.213 -1.213 l -3.524 -1.46 c -1.141 -0.472 -2.454 0.072 -2.928 1.213 c -0.455 1.097 -1.47 1.182 -1.771 1.182 s -1.316 -0.085 -1.771 -1.183 c -0.229 -0.553 -0.66 -0.984 -1.213 -1.213 c -0.553 -0.229 -1.162 -0.229 -1.716 0 l -3.523 1.459 c -0.553 0.229 -0.984 0.66 -1.213 1.213 c -0.229 0.553 -0.229 1.162 0 1.715 c 0.455 1.098 -0.203 1.877 -0.415 2.089 c -0.212 0.213 -0.99 0.871 -2.089 0.416 c -0.553 -0.229 -1.162 -0.229 -1.716 0 c -0.553 0.229 -0.984 0.66 -1.213 1.213 l -1.459 3.523 c -0.229 0.553 -0.229 1.162 0 1.716 c 0.229 0.553 0.66 0.984 1.213 1.213 c 1.097 0.455 1.183 1.471 1.183 1.771 s -0.085 1.316 -1.184 1.771 c -1.141 0.473 -1.685 1.787 -1.212 2.928 l 1.459 3.524 c 0.229 0.553 0.66 0.984 1.213 1.213 c 0.553 0.229 1.162 0.229 1.715 0 c 1.097 -0.454 1.876 0.203 2.089 0.416 c 0.212 0.212 0.87 0.991 0.415 2.089 c -0.473 1.141 0.071 2.455 1.213 2.929 l 3.524 1.46 c 0.277 0.114 0.567 0.172 0.858 0.172 c 0.291 0 0.581 -0.057 0.858 -0.172 c 0.553 -0.229 0.984 -0.66 1.213 -1.213 c 0.455 -1.098 1.471 -1.183 1.771 -1.183 l 0 0 c 0.3 0 1.316 0.085 1.771 1.184 c 0.473 1.141 1.787 1.683 2.928 1.212 l 3.525 -1.46 c 1.141 -0.473 1.684 -1.787 1.212 -2.928 c -0.455 -1.098 0.203 -1.877 0.416 -2.089 c 0.213 -0.213 0.99 -0.871 2.089 -0.415 c 1.142 0.471 2.454 -0.072 2.928 -1.213 l 1.46 -3.524 C 89.3 64.02 88.756 62.707 87.616 62.234 z M 72.499 66.65 c -3.412 0 -6.187 -2.776 -6.187 -6.187 s 2.776 -6.187 6.187 -6.187 s 6.187 2.776 6.187 6.187 S 75.911 66.65 72.499 66.65 z" style="stroke: none; stroke-width: 1; stroke-dasharray: none; stroke-linecap: butt; stroke-linejoin: miter; stroke-miterlimit: 10; fill: rgb(255,226,122); fill-rule: nonzero; opacity: 1;" transform=" matrix(1 0 0 1 0 0) " stroke-linecap="round" />
	<path d="M 53.66 48.124 c -0.138 -0.208 -0.266 -0.423 -0.375 -0.649 c -0.001 -0.002 -0.002 -0.004 -0.003 -0.005 c -0.109 -0.226 -0.198 -0.462 -0.276 -0.702 c -0.023 -0.071 -0.042 -0.144 -0.063 -0.216 C 52.892 46.37 52.85 46.187 52.816 46 c -0.013 -0.075 -0.028 -0.149 -0.039 -0.225 c -0.035 -0.255 -0.059 -0.513 -0.059 -0.775 c 0 -2.322 1.417 -4.463 3.613 -5.217 c 5.661 -1.945 9.731 -7.308 9.731 -13.63 V 8.944 H 23.937 v 17.209 c 0 6.322 4.07 11.684 9.731 13.63 c 2.196 0.755 3.613 2.895 3.613 5.217 c 0 0.261 -0.024 0.519 -0.059 0.775 c -0.01 0.076 -0.025 0.15 -0.039 0.225 c -0.033 0.187 -0.076 0.371 -0.127 0.552 c -0.021 0.072 -0.039 0.145 -0.063 0.216 c -0.157 0.482 -0.378 0.938 -0.654 1.356 c -0.041 0.062 -0.085 0.121 -0.129 0.181 c -0.109 0.151 -0.225 0.295 -0.348 0.434 c -0.049 0.055 -0.097 0.111 -0.148 0.164 c -0.561 0.581 -1.251 1.041 -2.047 1.315 c -5.661 1.945 -9.731 7.308 -9.731 13.629 v 17.209 h 42.125 V 63.847 c 0 -6.322 -4.07 -11.684 -9.731 -13.629 c -0.796 -0.274 -1.486 -0.734 -2.047 -1.315 c -0.051 -0.053 -0.099 -0.109 -0.148 -0.164 c -0.123 -0.139 -0.239 -0.283 -0.348 -0.434 C 53.745 48.244 53.701 48.185 53.66 48.124 z" style="stroke: none; stroke-width: 1; stroke-dasharray: none; stroke-linecap: butt; stroke-linejoin: miter; stroke-miterlimit: 10; fill: rgb(249,246,246); fill-rule: nonzero; opacity: 1;" transform=" matrix(1 0 0 1 0 0) " stroke-linecap="round" />
	<path d="M 76.494 77.763 c -0.422 0 -0.835 -0.083 -1.229 -0.246 c -0.794 -0.329 -1.412 -0.947 -1.739 -1.74 c -0.189 -0.455 -0.554 -0.551 -0.826 -0.551 c -0.272 0 -0.637 0.096 -0.826 0.553 c -0.211 0.511 -0.799 0.752 -1.307 0.541 c -0.511 -0.212 -0.753 -0.797 -0.541 -1.307 c 0.546 -1.317 1.739 -1.787 2.674 -1.787 s 2.127 0.469 2.674 1.786 c 0.124 0.3 0.357 0.533 0.657 0.657 c 0.302 0.125 0.629 0.125 0.929 0 l 3.481 -1.442 c 0.299 -0.124 0.532 -0.357 0.657 -0.658 c 0.124 -0.3 0.124 -0.629 0 -0.927 c -0.547 -1.321 -0.033 -2.496 0.63 -3.156 c 0.654 -0.658 1.828 -1.173 3.15 -0.626 c 0.302 0.124 0.631 0.122 0.931 0 c 0.299 -0.124 0.532 -0.357 0.656 -0.657 l 1.441 -3.481 c 0.124 -0.299 0.124 -0.628 0 -0.929 c -0.125 -0.3 -0.357 -0.533 -0.656 -0.657 c -1.317 -0.546 -1.787 -1.738 -1.787 -2.673 c 0 -0.935 0.469 -2.128 1.786 -2.674 c 0.3 -0.124 0.533 -0.357 0.657 -0.657 c 0.124 -0.3 0.124 -0.63 0 -0.93 l -1.441 -3.48 c -0.124 -0.3 -0.357 -0.533 -0.658 -0.657 c -0.299 -0.125 -0.629 -0.125 -0.928 0 c -1.32 0.544 -2.494 0.033 -3.154 -0.628 c -0.661 -0.657 -1.174 -1.833 -0.627 -3.153 c 0.124 -0.3 0.124 -0.629 0 -0.929 c -0.124 -0.3 -0.357 -0.533 -0.657 -0.657 l -3.481 -1.442 c -0.299 -0.124 -0.631 -0.124 -0.928 0 c -0.301 0.125 -0.534 0.357 -0.657 0.656 c -0.547 1.319 -1.74 1.788 -2.675 1.788 s -2.127 -0.469 -2.673 -1.786 c -0.256 -0.618 -0.97 -0.913 -1.587 -0.658 l -3.481 1.442 c -0.3 0.124 -0.532 0.356 -0.655 0.655 c -0.125 0.302 -0.125 0.632 -0.001 0.933 c 0.21 0.51 -0.033 1.095 -0.544 1.306 c -0.507 0.21 -1.095 -0.032 -1.306 -0.544 c -0.327 -0.793 -0.326 -1.667 0.002 -2.459 c 0.327 -0.792 0.945 -1.411 1.739 -1.739 l 3.48 -1.442 c 1.639 -0.681 3.521 0.104 4.2 1.739 c 0.199 0.48 0.603 0.552 0.825 0.552 c 0.224 0 0.627 -0.072 0.826 -0.552 c 0.327 -0.792 0.944 -1.411 1.739 -1.74 c 0.793 -0.329 1.665 -0.329 2.46 0 l 3.48 1.442 c 0.793 0.328 1.411 0.946 1.74 1.739 c 0.329 0.794 0.329 1.668 0 2.461 c -0.199 0.48 0.034 0.814 0.191 0.971 c 0.195 0.194 0.518 0.385 0.976 0.196 c 0.792 -0.328 1.665 -0.328 2.461 0 c 0.793 0.329 1.41 0.946 1.739 1.738 l 1.441 3.481 c 0.329 0.794 0.329 1.667 0 2.461 c -0.329 0.794 -0.947 1.412 -1.74 1.739 c -0.479 0.199 -0.551 0.603 -0.551 0.826 c 0 0.223 0.072 0.626 0.553 0.825 c 0.792 0.329 1.409 0.946 1.738 1.74 c 0.328 0.794 0.328 1.668 0 2.46 l -1.441 3.48 c -0.328 0.792 -0.945 1.41 -1.738 1.739 c -0.798 0.329 -1.669 0.328 -2.461 0 c -0.481 -0.199 -0.816 0.034 -0.972 0.192 c -0.161 0.16 -0.396 0.495 -0.196 0.976 c 0.328 0.791 0.328 1.665 0 2.459 c -0.329 0.794 -0.946 1.412 -1.739 1.74 l -3.481 1.442 C 77.33 77.68 76.916 77.763 76.494 77.763 z M 72.699 67.575 c -1.082 0 -2.123 -0.238 -3.094 -0.708 c -0.497 -0.241 -0.705 -0.839 -0.465 -1.336 c 0.241 -0.496 0.837 -0.703 1.336 -0.465 c 0.697 0.338 1.444 0.509 2.223 0.509 c 2.819 0 5.113 -2.293 5.113 -5.112 c 0 -2.819 -2.294 -5.113 -5.113 -5.113 c -1.196 0 -2.36 0.424 -3.279 1.194 c -0.423 0.355 -1.054 0.298 -1.409 -0.124 c -0.354 -0.424 -0.299 -1.054 0.124 -1.409 c 1.278 -1.071 2.899 -1.661 4.564 -1.661 c 3.922 0 7.113 3.191 7.113 7.113 S 76.621 67.575 72.699 67.575 z" style="stroke: none; stroke-width: 1; stroke-dasharray: none; stroke-linecap: butt; stroke-linejoin: miter; stroke-miterlimit: 10; fill: rgb(0,0,0); fill-rule: nonzero; opacity: 1;" transform=" matrix(1 0 0 1 0 0) " stroke-linecap="round" />
	<path d="M 66.063 82.056 H 23.937 c -0.552 0 -1 -0.447 -1 -1 c 0 -0.553 0.448 -1 1 -1 h 41.126 v -16.21 c 0 -5.725 -3.64 -10.822 -9.057 -12.683 c -2.564 -0.882 -4.288 -3.358 -4.288 -6.163 s 1.724 -5.282 4.288 -6.163 c 5.417 -1.861 9.057 -6.958 9.057 -12.684 V 9.944 H 24.937 v 16.209 c 0 5.726 3.639 10.823 9.056 12.684 c 2.565 0.881 4.288 3.358 4.288 6.163 c 0 2.036 -0.938 3.979 -2.509 5.2 c -0.435 0.339 -1.065 0.26 -1.403 -0.177 c -0.339 -0.437 -0.26 -1.064 0.176 -1.403 c 1.086 -0.844 1.735 -2.197 1.735 -3.62 c 0 -1.951 -1.181 -3.668 -2.937 -4.271 c -6.225 -2.139 -10.406 -7.996 -10.406 -14.575 V 8.944 c 0 -0.552 0.448 -1 1 -1 h 42.126 c 0.553 0 1 0.448 1 1 v 17.209 c 0 6.579 -4.182 12.436 -10.406 14.575 c -1.758 0.604 -2.938 2.32 -2.938 4.271 s 1.181 3.668 2.938 4.272 c 6.225 2.139 10.406 7.995 10.406 14.574 v 17.21 C 67.063 81.609 66.616 82.056 66.063 82.056 z" style="stroke: none; stroke-width: 1; stroke-dasharray: none; stroke-linecap: butt; stroke-linejoin: miter; stroke-miterlimit: 10; fill: rgb(0,0,0); fill-rule: nonzero; opacity: 1;" transform=" matrix(1 0 0 1 0 0) " stroke-linecap="round" />
	<rect x="22.01" y="81.06" rx="0" ry="0" width="45.99" height="7.94" style="stroke: none; stroke-width: 1; stroke-dasharray: none; stroke-linecap: butt; stroke-linejoin: miter; stroke-miterlimit: 10; fill: rgb(232,131,77); fill-rule: nonzero; opacity: 1;" transform=" matrix(1 0 0 1 0 0) "/>
	<rect x="22.01" y="1" rx="0" ry="0" width="45.99" height="7.94" style="stroke: none; stroke-width: 1; stroke-dasharray: none; stroke-linecap: butt; stroke-linejoin: miter; stroke-miterlimit: 10; fill: rgb(232,131,77); fill-rule: nonzero; opacity: 1;" transform=" matrix(1 0 0 1 0 0) "/>
	<path d="M 67.994 89.999 H 22.006 c -0.552 0 -1 -0.447 -1 -1 v -7.943 c 0 -0.553 0.448 -1 1 -1 h 45.988 c 0.553 0 1 0.447 1 1 v 7.943 C 68.994 89.552 68.547 89.999 67.994 89.999 z M 23.006 87.999 h 43.988 v -5.943 H 23.006 V 87.999 z" style="stroke: none; stroke-width: 1; stroke-dasharray: none; stroke-linecap: butt; stroke-linejoin: miter; stroke-miterlimit: 10; fill: rgb(0,0,0); fill-rule: nonzero; opacity: 1;" transform=" matrix(1 0 0 1 0 0) " stroke-linecap="round" />
	<path d="M 67.994 9.944 H 22.006 c -0.552 0 -1 -0.448 -1 -1 V 1.001 c 0 -0.552 0.448 -1 1 -1 h 45.988 c 0.553 0 1 0.448 1 1 v 7.944 C 68.994 9.497 68.547 9.944 67.994 9.944 z M 23.006 7.944 h 43.988 V 2.001 H 23.006 V 7.944 z" style="stroke: none; stroke-width: 1; stroke-dasharray: none; stroke-linecap: butt; stroke-linejoin: miter; stroke-miterlimit: 10; fill: rgb(0,0,0); fill-rule: nonzero; opacity: 1;" transform=" matrix(1 0 0 1 0 0) " stroke-linecap="round" />
	<path d="M 45 66.451 L 45 66.451 c -5.695 0 -10.311 7.154 -10.311 12.849 v 1.756 h 20.623 V 79.3 C 55.311 73.605 50.695 66.451 45 66.451 z" style="stroke: none; stroke-width: 1; stroke-dasharray: none; stroke-linecap: butt; stroke-linejoin: miter; stroke-miterlimit: 10; fill: rgb(255,226,122); fill-rule: nonzero; opacity: 1;" transform=" matrix(1 0 0 1 0 0) " stroke-linecap="round" />
	<path d="M 29.303 17.992 C 31.442 25.864 37.658 36.383 45 36.383 s 13.558 -10.518 15.697 -18.391 H 29.303 z" style="stroke: none; stroke-width: 1; stroke-dasharray: none; stroke-linecap: butt; stroke-linejoin: miter; stroke-miterlimit: 10; fill: rgb(255,226,122); fill-rule: nonzero; opacity: 1;" transform=" matrix(1 0 0 1 0 0) " stroke-linecap="round" />
	<path d="M 55.311 82.056 H 34.689 c -0.552 0 -1 -0.447 -1 -1 v -1.757 c 0 -6.272 5.046 -13.848 11.311 -13.848 s 11.311 7.576 11.311 13.848 v 1.757 C 56.311 81.609 55.864 82.056 55.311 82.056 z M 35.689 80.056 h 18.623 v -0.757 c 0 -5.334 -4.297 -11.848 -9.311 -11.848 s -9.311 6.515 -9.311 11.848 V 80.056 z" style="stroke: none; stroke-width: 1; stroke-dasharray: none; stroke-linecap: butt; stroke-linejoin: miter; stroke-miterlimit: 10; fill: rgb(0,0,0); fill-rule: nonzero; opacity: 1;" transform=" matrix(1 0 0 1 0 0) " stroke-linecap="round" />
	<path d="M 45 37.383 c -8.352 0 -14.653 -11.733 -16.661 -19.129 c -0.082 -0.301 -0.019 -0.622 0.17 -0.87 c 0.189 -0.248 0.483 -0.393 0.794 -0.393 h 31.394 c 0.312 0 0.605 0.145 0.795 0.393 c 0.188 0.248 0.252 0.569 0.17 0.87 C 59.652 25.65 53.351 37.383 45 37.383 z M 30.641 18.992 C 32.924 26.188 38.532 35.383 45 35.383 c 6.467 0 12.075 -9.195 14.359 -16.391 H 30.641 z" style="stroke: none; stroke-width: 1; stroke-dasharray: none; stroke-linecap: butt; stroke-linejoin: miter; stroke-miterlimit: 10; fill: rgb(0,0,0); fill-rule: nonzero; opacity: 1;" transform=" matrix(1 0 0 1 0 0) " stroke-linecap="round" />
	<path d="M 32.418 62.234 l -0.001 0 c -1.098 -0.455 -1.183 -1.47 -1.183 -1.771 c 0 -0.301 0.085 -1.316 1.183 -1.771 c 0.553 -0.229 0.984 -0.66 1.213 -1.213 s 0.229 -1.162 0 -1.715 l -1.46 -3.524 c -0.473 -1.141 -1.785 -1.686 -2.929 -1.212 c -1.099 0.455 -1.877 -0.203 -2.089 -0.415 c -0.213 -0.213 -0.87 -0.991 -0.415 -2.089 c 0.229 -0.553 0.229 -1.162 0 -1.715 c -0.229 -0.553 -0.66 -0.984 -1.213 -1.213 L 22 44.135 c -1.141 -0.472 -2.454 0.072 -2.928 1.213 c -0.455 1.097 -1.47 1.182 -1.771 1.182 s -1.316 -0.085 -1.771 -1.183 c -0.229 -0.553 -0.66 -0.984 -1.213 -1.213 c -0.553 -0.229 -1.162 -0.229 -1.716 0 l -3.523 1.459 c -0.553 0.229 -0.984 0.66 -1.213 1.213 c -0.229 0.553 -0.229 1.162 0 1.715 c 0.455 1.098 -0.203 1.877 -0.415 2.089 c -0.212 0.213 -0.99 0.871 -2.089 0.416 c -0.553 -0.229 -1.162 -0.229 -1.716 0 c -0.553 0.229 -0.984 0.66 -1.213 1.213 l -1.459 3.523 c -0.229 0.553 -0.229 1.162 0 1.716 c 0.229 0.553 0.66 0.984 1.213 1.213 c 1.097 0.455 1.183 1.471 1.183 1.771 s -0.085 1.316 -1.184 1.771 C 1.044 62.707 0.5 64.02 0.973 65.161 l 1.459 3.524 c 0.229 0.553 0.66 0.984 1.213 1.213 c 0.553 0.229 1.162 0.229 1.715 0 c 1.097 -0.454 1.876 0.203 2.089 0.416 c 0.212 0.212 0.87 0.991 0.415 2.089 c -0.473 1.141 0.071 2.455 1.213 2.929 l 3.524 1.46 c 0.277 0.114 0.567 0.172 0.858 0.172 s 0.581 -0.057 0.858 -0.172 c 0.553 -0.229 0.984 -0.66 1.213 -1.213 c 0.455 -1.098 1.471 -1.183 1.771 -1.183 l 0 0 c 0.3 0 1.316 0.085 1.771 1.184 c 0.473 1.141 1.787 1.683 2.928 1.212 l 3.525 -1.46 c 1.141 -0.473 1.684 -1.787 1.212 -2.928 c -0.455 -1.098 0.203 -1.877 0.416 -2.089 c 0.213 -0.213 0.99 -0.871 2.089 -0.415 c 1.142 0.471 2.454 -0.072 2.928 -1.213 l 1.46 -3.524 C 34.102 64.02 33.558 62.707 32.418 62.234 z M 17.301 66.65 c -3.412 0 -6.187 -2.776 -6.187 -6.187 s 2.776 -6.187 6.187 -6.187 s 6.187 2.776 6.187 6.187 S 20.713 66.65 17.301 66.65 z" style="stroke: none; stroke-width: 1; stroke-dasharray: none; stroke-linecap: butt; stroke-linejoin: miter; stroke-miterlimit: 10; fill: rgb(255,226,122); fill-rule: nonzero; opacity: 1;" transform=" matrix(1 0 0 1 0 0) " stroke-linecap="round" />
	<path d="M 21.097 77.763 c -0.423 0 -0.837 -0.083 -1.23 -0.246 c -0.793 -0.329 -1.411 -0.946 -1.739 -1.739 c -0.189 -0.456 -0.553 -0.552 -0.826 -0.552 s -0.637 0.096 -0.826 0.553 c -0.679 1.636 -2.564 2.417 -4.198 1.738 l -3.483 -1.442 c -1.637 -0.68 -2.416 -2.562 -1.738 -4.199 c 0.199 -0.481 -0.035 -0.815 -0.192 -0.971 c -0.196 -0.197 -0.52 -0.389 -0.977 -0.197 c -1.638 0.675 -3.52 -0.104 -4.199 -1.738 l -1.442 -3.482 c -0.328 -0.792 -0.328 -1.665 0.001 -2.459 c 0.329 -0.794 0.946 -1.411 1.738 -1.739 c 0.457 -0.189 0.552 -0.554 0.552 -0.826 c 0 -0.225 -0.071 -0.627 -0.551 -0.826 c -0.792 -0.327 -1.411 -0.945 -1.74 -1.74 c -0.328 -0.791 -0.329 -1.665 0 -2.459 l 1.442 -3.481 c 0.68 -1.638 2.563 -2.416 4.201 -1.738 c 0.481 0.201 0.814 -0.034 0.971 -0.192 c 0.16 -0.16 0.395 -0.495 0.196 -0.976 c -0.329 -0.795 -0.328 -1.668 0 -2.461 c 0.328 -0.792 0.946 -1.411 1.74 -1.739 l 3.48 -1.442 c 1.638 -0.676 3.52 0.103 4.2 1.739 c 0.199 0.48 0.603 0.552 0.826 0.552 c 0.223 0 0.627 -0.072 0.826 -0.552 c 0.328 -0.792 0.945 -1.411 1.739 -1.74 c 0.793 -0.329 1.666 -0.329 2.46 0 l 3.48 1.442 c 0.793 0.328 1.412 0.946 1.74 1.74 c 0.329 0.793 0.328 1.667 0 2.46 c -0.199 0.479 0.035 0.814 0.192 0.971 c 0.194 0.196 0.521 0.386 0.975 0.196 c 0.792 -0.328 1.666 -0.329 2.461 0 c 0.793 0.329 1.411 0.946 1.739 1.739 l 1.442 3.48 c 0.328 0.794 0.328 1.667 0 2.46 c -0.33 0.795 -0.948 1.413 -1.741 1.741 c -0.479 0.198 -0.55 0.602 -0.55 0.825 c 0 0.223 0.072 0.626 0.552 0.825 c 1.638 0.68 2.417 2.563 1.739 4.199 l -1.441 3.481 c -0.328 0.792 -0.946 1.41 -1.739 1.739 c -0.795 0.328 -1.669 0.328 -2.461 0 c -0.479 -0.199 -0.816 0.035 -0.973 0.193 c -0.159 0.159 -0.394 0.494 -0.194 0.975 c 0.328 0.792 0.328 1.665 0 2.459 c -0.329 0.794 -0.946 1.412 -1.739 1.74 l -3.481 1.442 C 21.933 77.68 21.519 77.763 21.097 77.763 z M 17.302 73.226 c 0.935 0 2.127 0.469 2.673 1.786 c 0.124 0.3 0.357 0.533 0.657 0.657 c 0.3 0.125 0.629 0.125 0.929 0 l 3.481 -1.442 c 0.299 -0.124 0.532 -0.357 0.656 -0.658 c 0.125 -0.3 0.125 -0.629 0.001 -0.928 c -0.546 -1.319 -0.034 -2.494 0.628 -3.154 c 0.658 -0.66 1.832 -1.173 3.152 -0.627 c 0.3 0.123 0.63 0.123 0.931 0 c 0.299 -0.124 0.532 -0.357 0.656 -0.657 l 1.441 -3.481 c 0.256 -0.618 -0.038 -1.329 -0.657 -1.586 c -1.317 -0.545 -1.787 -1.738 -1.787 -2.673 c 0 -0.935 0.469 -2.128 1.786 -2.674 c 0.3 -0.124 0.533 -0.357 0.658 -0.657 c 0.124 -0.3 0.124 -0.63 0 -0.931 l -1.441 -3.479 c -0.124 -0.3 -0.357 -0.533 -0.657 -0.657 c -0.3 -0.125 -0.63 -0.125 -0.929 0 c -1.318 0.546 -2.494 0.034 -3.155 -0.629 c -0.66 -0.657 -1.173 -1.832 -0.626 -3.152 c 0.124 -0.3 0.124 -0.629 0 -0.929 s -0.357 -0.533 -0.657 -0.657 l -3.481 -1.442 c -0.299 -0.123 -0.628 -0.124 -0.929 0 c -0.3 0.125 -0.533 0.357 -0.657 0.657 c -0.546 1.318 -1.739 1.787 -2.674 1.787 c -0.935 0 -2.127 -0.469 -2.673 -1.786 c -0.257 -0.618 -0.969 -0.913 -1.587 -0.658 l -3.481 1.442 c -0.3 0.124 -0.533 0.356 -0.656 0.656 c -0.125 0.301 -0.125 0.63 0 0.931 c 0.546 1.317 0.033 2.493 -0.629 3.153 c -0.657 0.66 -1.832 1.173 -3.151 0.627 c -0.619 -0.255 -1.331 0.037 -1.587 0.657 l -1.442 3.48 c -0.124 0.3 -0.124 0.629 0 0.928 c 0.124 0.302 0.357 0.534 0.656 0.657 c 1.32 0.547 1.789 1.741 1.787 2.677 c 0 0.933 -0.469 2.126 -1.786 2.671 l -0.001 0.001 c -0.298 0.124 -0.531 0.357 -0.655 0.657 c -0.125 0.3 -0.125 0.63 -0.001 0.928 l 1.442 3.481 c 0.256 0.618 0.968 0.913 1.587 0.657 c 1.32 -0.55 2.494 -0.033 3.155 0.63 c 0.659 0.654 1.173 1.829 0.626 3.151 c -0.256 0.618 0.039 1.329 0.657 1.586 l 3.481 1.442 c 0.617 0.255 1.33 -0.04 1.586 -0.657 C 15.173 73.696 16.367 73.226 17.302 73.226 z M 2.368 62.213 h 0.01 H 2.368 z M 17.302 67.575 c -3.922 0 -7.113 -3.19 -7.113 -7.112 s 3.191 -7.113 7.113 -7.113 c 3.922 0 7.113 3.191 7.113 7.113 S 21.223 67.575 17.302 67.575 z M 17.302 55.349 c -2.819 0 -5.113 2.294 -5.113 5.113 c 0 2.819 2.294 5.112 5.113 5.112 s 5.113 -2.293 5.113 -5.112 C 22.414 57.643 20.121 55.349 17.302 55.349 z" style="stroke: none; stroke-width: 1; stroke-dasharray: none; stroke-linecap: butt; stroke-linejoin: miter; stroke-miterlimit: 10; fill: rgb(0,0,0); fill-rule: nonzero; opacity: 1;" transform=" matrix(1 0 0 1 0 0) " stroke-linecap="round" />
</g>
</g>
</svg>