<svg xmlns="http://www.w3.org/2000/svg" xmlns:xlink="http://www.w3.org/1999/xlink" version="1.1" width="256" height="256" viewBox="0 0 256 256" xml:space="preserve">
<desc>Created with Fabric.js 1.7.22</desc>
<defs>
</defs>
<g transform="translate(128 128) scale(0.72 0.72)" style="">
	<g style="stroke: none; stroke-width: 0; stroke-dasharray: none; stroke-linecap: butt; stroke-linejoin: miter; stroke-miterlimit: 10; fill: none; fill-rule: nonzero; opacity: 1;" transform="translate(-175.05 -175.05) scale(3.89 3.89)" >
	<path d="M 45 65.268 c -11.176 0 -20.268 -9.092 -20.268 -20.268 S 33.824 24.732 45 24.732 S 65.268 33.824 65.268 45 S 56.176 65.268 45 65.268 z M 45 28.732 c -8.97 0 -16.268 7.298 -16.268 16.268 S 36.03 61.268 45 61.268 S 61.268 53.97 61.268 45 S 53.97 28.732 45 28.732 z" style="stroke: none; stroke-width: 1; stroke-dasharray: none; stroke-linecap: butt; stroke-linejoin: miter; stroke-miterlimit: 10; fill: rgb(0,0,0); fill-rule: nonzero; opacity: 1;" transform=" matrix(1 0 0 1 0 0) " stroke-linecap="round" />
	<path d="M 45 65.258 c -13.915 0 -27.824 -5.816 -41.642 -17.454 c -0.826 -0.695 -1.3 -1.717 -1.301 -2.803 c 0 -1.086 0.474 -2.109 1.301 -2.805 c 27.631 -23.271 55.652 -23.27 83.283 0 l 0.001 0 c 0.826 0.696 1.3 1.719 1.3 2.805 c 0 1.086 -0.475 2.108 -1.301 2.804 C 72.828 59.438 58.911 65.258 45 65.258 z M 6.239 45 c 26.079 21.799 51.443 21.799 77.521 0 C 57.684 23.201 32.319 23.2 6.239 45 z" style="stroke: none; stroke-width: 1; stroke-dasharray: none; stroke-linecap: butt; stroke-linejoin: miter; stroke-miterlimit: 10; fill: rgb(0,0,0); fill-rule: nonzero; opacity: 1;" transform=" matrix(1 0 0 1 0 0) " stroke-linecap="round" />
	<path d="M 45 56.099 c -6.12 0 -11.098 -4.979 -11.098 -11.099 c 0 -6.12 4.979 -11.098 11.098 -11.098 c 6.12 0 11.099 4.979 11.099 11.098 C 56.099 51.12 51.12 56.099 45 56.099 z M 45 37.902 c -3.914 0 -7.098 3.184 -7.098 7.098 s 3.184 7.099 7.098 7.099 s 7.099 -3.185 7.099 -7.099 S 48.914 37.902 45 37.902 z" style="stroke: none; stroke-width: 1; stroke-dasharray: none; stroke-linecap: butt; stroke-linejoin: miter; stroke-miterlimit: 10; fill: rgb(0,0,0); fill-rule: nonzero; opacity: 1;" transform=" matrix(1 0 0 1 0 0) " stroke-linecap="round" />
	<path d="M 45 15.771 c -1.104 0 -2 -0.896 -2 -2 V 2 c 0 -1.104 0.896 -2 2 -2 s 2 0.896 2 2 v 11.771 C 47 14.875 46.104 15.771 45 15.771 z" style="stroke: none; stroke-width: 1; stroke-dasharray: none; stroke-linecap: butt; stroke-linejoin: miter; stroke-miterlimit: 10; fill: rgb(0,0,0); fill-rule: nonzero; opacity: 1;" transform=" matrix(1 0 0 1 0 0) " stroke-linecap="round" />
	<path d="M 59.441 18.882 c -0.32 0 -0.646 -0.077 -0.947 -0.24 c -0.973 -0.524 -1.335 -1.737 -0.812 -2.709 l 4.999 -9.271 c 0.524 -0.973 1.738 -1.336 2.71 -0.811 c 0.973 0.524 1.335 1.737 0.812 2.709 l -4.999 9.271 C 60.843 18.501 60.153 18.882 59.441 18.882 z" style="stroke: none; stroke-width: 1; stroke-dasharray: none; stroke-linecap: butt; stroke-linejoin: miter; stroke-miterlimit: 10; fill: rgb(0,0,0); fill-rule: nonzero; opacity: 1;" transform=" matrix(1 0 0 1 0 0) " stroke-linecap="round" />
	<path d="M 30.559 18.882 c -0.712 0 -1.401 -0.381 -1.762 -1.051 L 23.797 8.56 c -0.524 -0.972 -0.161 -2.186 0.811 -2.709 c 0.972 -0.525 2.186 -0.162 2.709 0.811 l 4.999 9.271 c 0.524 0.972 0.161 2.186 -0.811 2.709 C 31.204 18.805 30.879 18.882 30.559 18.882 z" style="stroke: none; stroke-width: 1; stroke-dasharray: none; stroke-linecap: butt; stroke-linejoin: miter; stroke-miterlimit: 10; fill: rgb(0,0,0); fill-rule: nonzero; opacity: 1;" transform=" matrix(1 0 0 1 0 0) " stroke-linecap="round" />
	<path d="M 45 90 c -1.104 0 -2 -0.896 -2 -2 V 76.229 c 0 -1.104 0.896 -2 2 -2 s 2 0.896 2 2 V 88 C 47 89.104 46.104 90 45 90 z" style="stroke: none; stroke-width: 1; stroke-dasharray: none; stroke-linecap: butt; stroke-linejoin: miter; stroke-miterlimit: 10; fill: rgb(0,0,0); fill-rule: nonzero; opacity: 1;" transform=" matrix(1 0 0 1 0 0) " stroke-linecap="round" />
	<path d="M 64.444 84.39 c -0.712 0 -1.4 -0.381 -1.763 -1.051 l -4.999 -9.271 c -0.523 -0.973 -0.161 -2.186 0.812 -2.71 c 0.972 -0.522 2.185 -0.16 2.71 0.812 l 4.999 9.271 c 0.523 0.973 0.161 2.186 -0.812 2.71 C 65.09 84.313 64.765 84.39 64.444 84.39 z" style="stroke: none; stroke-width: 1; stroke-dasharray: none; stroke-linecap: butt; stroke-linejoin: miter; stroke-miterlimit: 10; fill: rgb(0,0,0); fill-rule: nonzero; opacity: 1;" transform=" matrix(1 0 0 1 0 0) " stroke-linecap="round" />
	<path d="M 25.556 84.39 c -0.32 0 -0.646 -0.077 -0.947 -0.239 c -0.972 -0.524 -1.335 -1.737 -0.811 -2.71 l 4.999 -9.271 c 0.524 -0.972 1.737 -1.334 2.709 -0.812 c 0.972 0.524 1.335 1.737 0.811 2.71 l -4.999 9.271 C 26.957 84.009 26.268 84.39 25.556 84.39 z" style="stroke: none; stroke-width: 1; stroke-dasharray: none; stroke-linecap: butt; stroke-linejoin: miter; stroke-miterlimit: 10; fill: rgb(0,0,0); fill-rule: nonzero; opacity: 1;" transform=" matrix(1 0 0 1 0 0) " stroke-linecap="round" />
</g>
</g>
</svg>