<svg xmlns="http://www.w3.org/2000/svg" xmlns:xlink="http://www.w3.org/1999/xlink" version="1.1" width="256" height="256" viewBox="0 0 256 256" xml:space="preserve">
<desc>Created with Fabric.js 1.7.22</desc>
<defs>
</defs>
<g transform="translate(128 128) scale(0.72 0.72)" style="">
	<g style="stroke: none; stroke-width: 0; stroke-dasharray: none; stroke-linecap: butt; stroke-linejoin: miter; stroke-miterlimit: 10; fill: none; fill-rule: nonzero; opacity: 1;" transform="translate(-175.05 -175.05) scale(3.89 3.89)" >
	<path d="M 45 65.843 c -11.493 0 -20.843 -9.35 -20.843 -20.843 c 0 -11.493 9.35 -20.843 20.843 -20.843 c 11.493 0 20.843 9.35 20.843 20.843 C 65.843 56.493 56.493 65.843 45 65.843 z M 45 30.157 c -8.185 0 -14.843 6.658 -14.843 14.843 S 36.815 59.843 45 59.843 S 59.843 53.185 59.843 45 S 53.185 30.157 45 30.157 z" style="stroke: none; stroke-width: 1; stroke-dasharray: none; stroke-linecap: butt; stroke-linejoin: miter; stroke-miterlimit: 10; fill: rgb(0,0,0); fill-rule: nonzero; opacity: 1;" transform=" matrix(1 0 0 1 0 0) " stroke-linecap="round" />
	<path d="M 45 65.869 c -13.814 0 -27.629 -5.776 -41.347 -17.329 C 2.609 47.66 2.01 46.37 2.01 45 s 0.599 -2.661 1.643 -3.54 c 27.437 -23.107 55.259 -23.106 82.695 0 l 0.001 0 C 87.392 42.34 87.99 43.63 87.99 45 s -0.599 2.66 -1.642 3.539 C 72.63 60.093 58.814 65.869 45 65.869 z M 8.785 45 c 24.356 19.844 48.076 19.844 72.431 0 C 56.86 25.155 33.141 25.155 8.785 45 z" style="stroke: none; stroke-width: 1; stroke-dasharray: none; stroke-linecap: butt; stroke-linejoin: miter; stroke-miterlimit: 10; fill: rgb(0,0,0); fill-rule: nonzero; opacity: 1;" transform=" matrix(1 0 0 1 0 0) " stroke-linecap="round" />
	<circle cx="44.997" cy="44.997" r="8.887" style="stroke: none; stroke-width: 1; stroke-dasharray: none; stroke-linecap: butt; stroke-linejoin: miter; stroke-miterlimit: 10; fill: rgb(0,0,0); fill-rule: nonzero; opacity: 1;" transform="  matrix(1 0 0 1 0 0) "/>
	<path d="M 45 17.497 c -1.657 0 -3 -1.343 -3 -3 V 3 c 0 -1.657 1.343 -3 3 -3 c 1.657 0 3 1.343 3 3 v 11.497 C 48 16.153 46.657 17.497 45 17.497 z" style="stroke: none; stroke-width: 1; stroke-dasharray: none; stroke-linecap: butt; stroke-linejoin: miter; stroke-miterlimit: 10; fill: rgb(0,0,0); fill-rule: nonzero; opacity: 1;" transform=" matrix(1 0 0 1 0 0) " stroke-linecap="round" />
	<path d="M 59.104 20.536 c -0.48 0 -0.968 -0.116 -1.421 -0.36 c -1.458 -0.787 -2.003 -2.606 -1.217 -4.064 l 4.883 -9.055 c 0.785 -1.458 2.604 -2.004 4.064 -1.217 c 1.458 0.787 2.003 2.606 1.217 4.064 l -4.883 9.055 C 61.206 19.964 60.172 20.536 59.104 20.536 z" style="stroke: none; stroke-width: 1; stroke-dasharray: none; stroke-linecap: butt; stroke-linejoin: miter; stroke-miterlimit: 10; fill: rgb(0,0,0); fill-rule: nonzero; opacity: 1;" transform=" matrix(1 0 0 1 0 0) " stroke-linecap="round" />
	<path d="M 30.895 20.536 c -1.067 0 -2.101 -0.571 -2.643 -1.577 l -4.883 -9.055 c -0.786 -1.458 -0.242 -3.278 1.217 -4.064 c 1.458 -0.786 3.277 -0.241 4.064 1.217 l 4.883 9.055 c 0.786 1.458 0.242 3.278 -1.217 4.064 C 31.864 20.42 31.376 20.536 30.895 20.536 z" style="stroke: none; stroke-width: 1; stroke-dasharray: none; stroke-linecap: butt; stroke-linejoin: miter; stroke-miterlimit: 10; fill: rgb(0,0,0); fill-rule: nonzero; opacity: 1;" transform=" matrix(1 0 0 1 0 0) " stroke-linecap="round" />
	<path d="M 45 90 c -1.657 0 -3 -1.343 -3 -3 V 75.503 c 0 -1.657 1.343 -3 3 -3 c 1.657 0 3 1.343 3 3 V 87 C 48 88.657 46.657 90 45 90 z" style="stroke: none; stroke-width: 1; stroke-dasharray: none; stroke-linecap: butt; stroke-linejoin: miter; stroke-miterlimit: 10; fill: rgb(0,0,0); fill-rule: nonzero; opacity: 1;" transform=" matrix(1 0 0 1 0 0) " stroke-linecap="round" />
	<path d="M 63.993 84.521 c -1.067 0 -2.102 -0.571 -2.644 -1.577 l -4.883 -9.056 c -0.786 -1.458 -0.241 -3.278 1.217 -4.064 c 1.459 -0.786 3.278 -0.242 4.064 1.217 l 4.883 9.056 c 0.786 1.458 0.241 3.278 -1.217 4.064 C 64.961 84.405 64.474 84.521 63.993 84.521 z" style="stroke: none; stroke-width: 1; stroke-dasharray: none; stroke-linecap: butt; stroke-linejoin: miter; stroke-miterlimit: 10; fill: rgb(0,0,0); fill-rule: nonzero; opacity: 1;" transform=" matrix(1 0 0 1 0 0) " stroke-linecap="round" />
	<path d="M 26.007 84.521 c -0.481 0 -0.968 -0.116 -1.421 -0.36 c -1.458 -0.786 -2.003 -2.606 -1.217 -4.064 l 4.883 -9.056 c 0.787 -1.459 2.606 -2.002 4.064 -1.217 c 1.458 0.786 2.003 2.606 1.217 4.064 l -4.883 9.056 C 28.108 83.95 27.075 84.521 26.007 84.521 z" style="stroke: none; stroke-width: 1; stroke-dasharray: none; stroke-linecap: butt; stroke-linejoin: miter; stroke-miterlimit: 10; fill: rgb(0,0,0); fill-rule: nonzero; opacity: 1;" transform=" matrix(1 0 0 1 0 0) " stroke-linecap="round" />
</g>
</g>
</svg>