<svg xmlns="http://www.w3.org/2000/svg" xmlns:xlink="http://www.w3.org/1999/xlink" version="1.1" width="256" height="256" viewBox="0 0 256 256" xml:space="preserve">
<desc>Created with Fabric.js 1.7.22</desc>
<defs>
</defs>
<g transform="translate(128 128) scale(0.72 0.72)" style="">
	<g style="stroke: none; stroke-width: 0; stroke-dasharray: none; stroke-linecap: butt; stroke-linejoin: miter; stroke-miterlimit: 10; fill: none; fill-rule: nonzero; opacity: 1;" transform="translate(-175.05 -175.05) scale(3.89 3.89)" >
	<path d="M 76.887 60.444 c -0.828 0 -1.5 -0.672 -1.5 -1.5 s 0.672 -1.5 1.5 -1.5 C 82.463 57.444 87 52.907 87 47.331 c 0 -5.335 -4.179 -9.764 -9.514 -10.081 l -1.581 -0.094 l 0.18 -1.573 c 0.1 -0.872 0.147 -1.652 0.147 -2.385 c 0 -11.438 -9.305 -20.742 -20.742 -20.742 c -7.165 0 -13.729 3.641 -17.559 9.741 l -0.745 1.187 l -1.235 -0.663 c -2.294 -1.231 -4.889 -1.882 -7.502 -1.882 c -8.491 0 -15.457 6.65 -15.858 15.14 l -0.057 1.196 l -1.179 0.21 C 6.514 38.244 3 42.428 3 47.331 c 0 5.576 4.537 10.113 10.113 10.113 c 0.829 0 1.5 0.672 1.5 1.5 s -0.671 1.5 -1.5 1.5 C 5.883 60.444 0 54.562 0 47.331 c 0 -5.966 4.007 -11.109 9.683 -12.645 c 1.025 -9.537 9.057 -16.849 18.766 -16.849 c 2.649 0 5.282 0.563 7.693 1.637 c 4.46 -6.299 11.596 -10.019 19.349 -10.019 c 13.092 0 23.742 10.651 23.742 23.742 c 0 0.401 -0.013 0.813 -0.037 1.239 C 85.365 35.536 90 40.93 90 47.331 C 90 54.562 84.117 60.444 76.887 60.444 z" style="stroke: none; stroke-width: 1; stroke-dasharray: none; stroke-linecap: butt; stroke-linejoin: miter; stroke-miterlimit: 10; fill: rgb(37,51,75); fill-rule: nonzero; opacity: 1;" transform=" matrix(1 0 0 1 0 0) " stroke-linecap="round" />
	<path d="M 67.472 34.672 c -0.828 0 -1.5 -0.671 -1.5 -1.5 c 0 -5.779 -4.702 -10.481 -10.481 -10.481 c -0.828 0 -1.5 -0.671 -1.5 -1.5 s 0.672 -1.5 1.5 -1.5 c 7.434 0 13.481 6.048 13.481 13.481 C 68.972 34.001 68.3 34.672 67.472 34.672 z" style="stroke: none; stroke-width: 1; stroke-dasharray: none; stroke-linecap: butt; stroke-linejoin: miter; stroke-miterlimit: 10; fill: rgb(37,51,75); fill-rule: nonzero; opacity: 1;" transform=" matrix(1 0 0 1 0 0) " stroke-linecap="round" />
	<path d="M 21.859 37.381 c -0.024 0 -0.048 0 -0.072 -0.001 c -0.828 -0.04 -1.467 -0.742 -1.428 -1.569 c 0.205 -4.33 3.758 -7.721 8.089 -7.721 c 0.829 0 1.5 0.671 1.5 1.5 s -0.671 1.5 -1.5 1.5 c -2.727 0 -4.963 2.136 -5.092 4.862 C 23.319 36.755 22.655 37.381 21.859 37.381 z" style="stroke: none; stroke-width: 1; stroke-dasharray: none; stroke-linecap: butt; stroke-linejoin: miter; stroke-miterlimit: 10; fill: rgb(37,51,75); fill-rule: nonzero; opacity: 1;" transform=" matrix(1 0 0 1 0 0) " stroke-linecap="round" />
	<path d="M 69.248 56.885 c -0.523 -0.7 -1.326 -1.102 -2.2 -1.102 h -5.774 v -3.861 c 0 -1.914 -1.557 -3.471 -3.471 -3.471 H 44.534 c -0.125 0 -0.244 -0.049 -0.333 -0.139 l -4.064 -4.063 c -0.656 -0.656 -1.527 -1.017 -2.455 -1.017 H 23.675 c -1.914 0 -3.471 1.557 -3.471 3.471 V 73.19 v 4.066 v 1.349 c 0 1.607 1.308 2.915 2.915 2.915 h 37.507 c 0.007 0 0.014 0 0.021 0 c 1.615 0 2.854 -1.115 3.396 -3.046 l 5.64 -19.168 C 69.93 58.468 69.771 57.585 69.248 56.885 z M 23.204 77.257 V 73.19 V 46.703 c 0 -0.26 0.211 -0.472 0.471 -0.472 h 14.006 c 0.124 0 0.246 0.051 0.333 0.139 l 4.063 4.063 c 0.656 0.657 1.528 1.019 2.456 1.019 h 13.269 c 0.26 0 0.471 0.211 0.471 0.471 v 3.861 H 32.167 c -1.561 0 -2.952 1.048 -3.382 2.549 l -5.581 19.47 V 77.257 z M 61.159 77.646 c -0.14 0.499 -0.361 0.875 -0.523 0.875 c -0.001 0 -0.001 0 -0.001 0 H 26.119 l 5.549 -19.362 c 0.063 -0.221 0.268 -0.375 0.498 -0.375 H 66.71 L 61.159 77.646 z" style="stroke: none; stroke-width: 1; stroke-dasharray: none; stroke-linecap: butt; stroke-linejoin: miter; stroke-miterlimit: 10; fill: rgb(64,100,163); fill-rule: nonzero; opacity: 1;" transform=" matrix(1 0 0 1 0 0) " stroke-linecap="round" />
</g>
</g>
</svg>