<svg xmlns="http://www.w3.org/2000/svg" xmlns:xlink="http://www.w3.org/1999/xlink" version="1.1" width="256" height="256" viewBox="0 0 256 256" xml:space="preserve">
<desc>Created with Fabric.js 1.7.22</desc>
<defs>
</defs>
<g transform="translate(128 128) scale(0.72 0.72)" style="">
	<g style="stroke: none; stroke-width: 0; stroke-dasharray: none; stroke-linecap: butt; stroke-linejoin: miter; stroke-miterlimit: 10; fill: none; fill-rule: nonzero; opacity: 1;" transform="translate(-175.05 -175.05) scale(3.89 3.89)" >
	<path d="M 65.275 20.369 c -0.48 0 -0.963 -0.172 -1.347 -0.522 c -0.816 -0.744 -0.874 -2.009 -0.13 -2.825 l 9.557 -10.477 c 0.744 -0.815 2.009 -0.875 2.825 -0.13 c 0.816 0.744 0.874 2.009 0.13 2.825 l -9.557 10.477 C 66.359 20.149 65.818 20.369 65.275 20.369 z" style="stroke: none; stroke-width: 1; stroke-dasharray: none; stroke-linecap: butt; stroke-linejoin: miter; stroke-miterlimit: 10; fill: rgb(255,200,80); fill-rule: nonzero; opacity: 1;" transform=" matrix(1 0 0 1 0 0) " stroke-linecap="round" />
	<path d="M 24.039 19.618 c -0.542 0 -1.083 -0.22 -1.478 -0.652 L 13.69 9.24 c -0.745 -0.816 -0.687 -2.081 0.13 -2.825 c 0.816 -0.744 2.081 -0.687 2.825 0.13 l 8.871 9.725 c 0.745 0.816 0.687 2.081 -0.13 2.825 C 25.003 19.445 24.521 19.618 24.039 19.618 z" style="stroke: none; stroke-width: 1; stroke-dasharray: none; stroke-linecap: butt; stroke-linejoin: miter; stroke-miterlimit: 10; fill: rgb(255,200,80); fill-rule: nonzero; opacity: 1;" transform=" matrix(1 0 0 1 0 0) " stroke-linecap="round" />
	<path d="M 45 90 c -1.104 0 -2 -0.896 -2 -2 V 77.191 c 0 -1.104 0.896 -2 2 -2 s 2 0.896 2 2 V 88 C 47 89.104 46.104 90 45 90 z" style="stroke: none; stroke-width: 1; stroke-dasharray: none; stroke-linecap: butt; stroke-linejoin: miter; stroke-miterlimit: 10; fill: rgb(255,200,80); fill-rule: nonzero; opacity: 1;" transform=" matrix(1 0 0 1 0 0) " stroke-linecap="round" />
	<path d="M 85.479 63.173 c -0.305 0 -0.614 -0.069 -0.904 -0.217 l -9.513 -4.835 c -0.984 -0.501 -1.377 -1.705 -0.877 -2.689 c 0.502 -0.984 1.706 -1.376 2.689 -0.877 l 9.513 4.835 c 0.984 0.501 1.377 1.705 0.877 2.689 C 86.91 62.773 86.208 63.173 85.479 63.173 z" style="stroke: none; stroke-width: 1; stroke-dasharray: none; stroke-linecap: butt; stroke-linejoin: miter; stroke-miterlimit: 10; fill: rgb(255,200,80); fill-rule: nonzero; opacity: 1;" transform=" matrix(1 0 0 1 0 0) " stroke-linecap="round" />
	<path d="M 5.026 62.266 c -0.738 0 -1.448 -0.41 -1.796 -1.117 c -0.488 -0.991 -0.08 -2.189 0.912 -2.678 l 9.557 -4.702 c 0.99 -0.486 2.19 -0.078 2.677 0.912 c 0.488 0.991 0.08 2.189 -0.912 2.678 l -9.557 4.702 C 5.624 62.2 5.323 62.266 5.026 62.266 z" style="stroke: none; stroke-width: 1; stroke-dasharray: none; stroke-linecap: butt; stroke-linejoin: miter; stroke-miterlimit: 10; fill: rgb(255,200,80); fill-rule: nonzero; opacity: 1;" transform=" matrix(1 0 0 1 0 0) " stroke-linecap="round" />
	<path d="M 45 0.24 C 45 0.24 45 0.24 45 0.24 c -1.293 0 -2.451 0.72 -3.023 1.879 L 31.084 24.19 c -0.092 0.185 -0.268 0.313 -0.472 0.343 L 6.255 28.073 c -1.279 0.186 -2.322 1.065 -2.721 2.294 c -0.4 1.23 -0.073 2.554 0.853 3.456 l 17.624 17.18 c 0.148 0.144 0.215 0.351 0.181 0.554 l -4.161 24.258 c -0.218 1.274 0.295 2.538 1.341 3.297 c 1.045 0.76 2.405 0.858 3.552 0.258 l 21.786 -11.455 C 44.8 67.869 44.9 67.845 45 67.845 C 51.218 48.239 49.905 25.085 45 0.24 z" style="stroke: none; stroke-width: 1; stroke-dasharray: none; stroke-linecap: butt; stroke-linejoin: miter; stroke-miterlimit: 10; fill: rgb(255,200,80); fill-rule: nonzero; opacity: 1;" transform=" matrix(1 0 0 1 0 0) " stroke-linecap="round" />
	<path d="M 45 0.24 C 45 0.24 45 0.24 45 0.24 c 1.293 0 2.451 0.72 3.023 1.879 L 58.916 24.19 c 0.092 0.185 0.268 0.313 0.472 0.343 l 24.357 3.539 c 1.279 0.186 2.322 1.065 2.721 2.294 c 0.4 1.23 0.073 2.554 -0.853 3.456 l -17.624 17.18 c -0.148 0.144 -0.215 0.351 -0.181 0.554 l 4.161 24.258 c 0.218 1.274 -0.295 2.538 -1.341 3.297 c -1.045 0.76 -2.405 0.858 -3.552 0.258 L 45.291 67.916 C 45.2 67.869 45.1 67.845 45 67.845 C 37.673 48.876 39.309 25.564 45 0.24 z" style="stroke: none; stroke-width: 1; stroke-dasharray: none; stroke-linecap: butt; stroke-linejoin: miter; stroke-miterlimit: 10; fill: rgb(255,220,100); fill-rule: nonzero; opacity: 1;" transform=" matrix(1 0 0 1 0 0) " stroke-linecap="round" />
</g>
</g>
</svg>